<svg xmlns="http://www.w3.org/2000/svg" viewBox="0 0 96 96"><defs><style>.cls-1{fill:#fff;}.cls-2{fill:none;stroke:#000;stroke-linecap:round;stroke-linejoin:round;}.cls-3{fill:#8d521e;}</style></defs><title>soil</title><g id="Layer_1" data-name="Layer 1"><path class="cls-1" d="M95.5,95.5H.5V.5h95v95"/><path class="cls-2" d="M95.5,95.5H.5V.5h95Z"/></g><g id="Layer_2" data-name="Layer 2"><path class="cls-3" d="M60.35,32,76.9,39.7l6.5,2.4.5.7v.75l-.25.7-1,1-2,1.2-2.9,1-9.25,2L55.5,50.55l-16-.45L20.3,47.45l-7.05-2-1.7-.75-1.2-.7L9.9,43.3l-.3-.75.3-.45.7-.75,13.6-4.6L37.8,31l7.55-1.7L47.2,29l6.35.45,6.8,2.5"/></g></svg>