<?xml version="1.0" encoding="UTF-8" standalone="no"?>
<svg xmlns:xlink="http://www.w3.org/1999/xlink" height="291.65px" width="357.05px" xmlns="http://www.w3.org/2000/svg">
  <g transform="matrix(1.0, 0.0, 0.0, 1.0, 103.85, 83.75)">
    <path d="M43.65 179.95 L45.65 207.4 42.45 207.4 42.45 177.05 43.65 179.95" fill="#663300" fill-rule="evenodd" stroke="none"/>
    <path d="M47.85 77.8 L47.85 85.2 42.45 78.5 42.45 71.85 47.85 77.8 M42.45 67.8 L52.2 70.45 55.1 74.5 42.45 71.85 42.45 67.8" fill="#663300" fill-rule="evenodd" stroke="none"/>
    <path d="M232.0 -64.35 L230.4 -63.2 228.55 -62.2 224.75 -61.3 221.2 -60.8 220.0 -60.8 207.4 -57.95 237.65 -57.95 231.05 -56.05 204.5 -56.05 177.9 -48.95 196.2 -44.2 234.9 -44.2 225.65 -42.85 202.65 -42.05 210.8 -37.8 233.95 -34.25 253.2 -34.25 232.0 -33.05 220.0 -33.55 176.05 -46.8 148.4 -39.95 153.55 -38.3 161.2 -34.55 174.5 -25.45 178.8 -23.05 207.4 -23.85 187.1 -21.2 174.1 -21.9 162.35 -29.3 150.0 -36.4 142.75 -37.8 125.4 -36.4 115.25 -25.25 101.3 -21.2 93.15 -19.8 77.2 -10.55 68.15 -6.6 54.45 4.6 42.45 17.65 42.45 5.55 55.35 -6.6 Q59.6 -9.25 63.65 -12.0 L72.85 -20.5 79.2 -29.0 81.05 -32.35 83.0 -42.55 83.0 -52.5 84.85 -47.1 85.5 -38.1 84.6 -34.05 83.0 -30.2 73.8 -16.95 83.0 -20.5 90.5 -24.75 102.2 -27.4 117.75 -37.8 126.05 -48.45 129.85 -56.05 129.85 -59.6 128.8 -63.85 123.4 -74.75 127.6 -72.65 130.8 -70.0 133.0 -66.95 134.6 -63.65 135.1 -56.05 134.2 -52.5 132.6 -48.95 163.95 -51.8 168.7 -51.8 159.85 -49.85 151.3 -48.95 133.55 -45.4 128.8 -39.95 154.75 -45.4 214.6 -62.9 226.6 -64.35 232.0 -64.35" fill="#663300" fill-rule="evenodd" stroke="none"/>
    <path d="M81.7 -76.9 L87.75 -76.9 97.5 -75.75 104.2 -74.05 88.4 -74.25 69.3 -72.15 59.85 -69.6 52.6 -67.25 42.45 -62.7 42.45 -68.4 45.25 -69.8 51.7 -77.6 51.7 -82.35 55.35 -78.3 53.55 -71.2 63.4 -74.05 69.3 -75.45 75.65 -76.4 81.7 -76.9" fill="#663300" fill-rule="evenodd" stroke="none"/>
    <path d="M42.45 -80.15 L45.25 -80.15 42.45 -79.8 42.45 -80.15" fill="#663300" fill-rule="evenodd" stroke="none"/>
    <path d="M10.25 -83.75 L15.9 -80.15 18.4 -74.75 29.45 -80.15 42.45 -80.15 42.45 -79.8 34.2 -78.3 20.35 -71.95 20.35 -65.75 37.75 -65.75 42.45 -68.4 42.45 -62.7 39.6 -61.5 24.05 -61.5 19.3 -51.8 9.15 -42.05 6.4 -7.95 2.85 -0.85 -2.8 3.9 4.85 18.6 12.05 22.15 22.2 20.7 39.6 8.15 42.45 5.55 42.45 17.65 39.6 20.7 13.0 34.7 13.4 54.35 18.4 70.45 32.05 64.55 42.45 67.6 42.45 78.5 40.9 76.6 41.55 81.15 41.55 92.0 37.05 87.25 37.05 70.45 29.2 70.45 21.3 75.9 20.35 93.4 19.3 99.3 25.6 126.9 29.2 110.0 34.55 100.1 42.45 94.85 42.45 109.8 38.9 114.75 37.75 120.15 38.4 133.0 42.45 129.25 42.45 145.05 42.1 145.35 41.8 145.75 41.15 146.55 38.4 156.2 38.4 168.25 42.45 177.05 42.45 207.4 13.0 207.9 13.0 195.85 6.65 164.3 6.65 124.7 2.2 111.95 -5.05 102.9 -6.25 102.0 -10.7 99.3 -13.85 97.95 -15.45 96.95 -17.0 96.25 -17.0 83.7 -7.3 88.45 -4.65 89.15 -2.15 90.15 0.35 90.8 0.35 81.65 -3.05 73.75 -17.0 70.65 -17.0 62.0 -2.8 64.55 1.95 68.8 4.85 72.85 2.85 62.35 -1.9 54.85 -1.9 45.8 1.95 33.25 -12.0 8.15 -17.0 1.35 -17.0 -30.0 -16.35 -29.5 -15.85 -29.3 -15.45 -28.8 -14.8 -28.3 -16.35 -20.7 -16.35 -14.85 -12.0 -1.55 -2.8 -7.25 -0.95 -41.35 9.15 -52.5 2.85 -57.95 4.85 -66.45 -8.2 -80.15 6.4 -70.5 7.35 -61.5 Q9.7 -60.0 12.05 -58.65 L14.95 -67.9 10.25 -83.75" fill="#663300" fill-rule="evenodd" stroke="none"/>
    <path d="M-44.25 -76.9 L-41.35 -73.35 -41.35 -66.45 -44.25 -54.6 -41.75 -50.85 -35.7 -44.2 -28.75 -38.3 -17.0 -30.0 -17.0 1.35 -19.25 -1.55 -20.85 -7.75 -21.1 -25.25 -27.55 -33.05 -49.65 -49.65 -49.65 -57.25 -44.25 -65.75 -44.25 -76.9" fill="#663300" fill-rule="evenodd" stroke="none"/>
    <path d="M-31.25 -12.0 L-28.45 -7.95 -38.6 -7.25 -45.2 -3.7 -45.2 12.4 -36.65 29.7 -35.7 52.0 -31.25 59.1 -17.4 61.7 -17.0 62.0 -17.0 70.65 -20.55 69.8 -31.9 65.25 -34.4 71.85 -29.4 74.5 -20.2 81.85 -17.0 83.7 -17.0 96.25 -29.15 90.65 -35.95 86.4 -39.25 83.7 -41.75 80.85 -43.6 77.8 -49.65 75.7 -49.65 69.3 -46.75 70.45 -42.4 70.45 -42.4 62.0 -49.25 60.8 -49.65 61.0 -49.65 51.7 -43.35 52.7 -46.75 38.65 -46.75 30.45 -49.65 24.55 -49.65 -7.45 -39.5 -10.55 -38.6 -30.2 -35.05 -20.5 -36.65 -12.0 -31.25 -12.0" fill="#663300" fill-rule="evenodd" stroke="none"/>
    <path d="M-50.85 -50.65 L-54.4 -53.0 -54.4 -60.1 -50.6 -56.05 -49.65 -57.25 -49.65 -49.65 -50.85 -50.65" fill="#663300" fill-rule="evenodd" stroke="none"/>
    <path d="M-49.65 24.55 L-54.4 14.55 -54.4 4.1 -51.5 4.6 -53.45 -6.6 -49.65 -7.45 -49.65 24.55" fill="#663300" fill-rule="evenodd" stroke="none"/>
    <path d="M-54.4 51.0 L-49.65 51.7 -49.65 61.0 -54.4 64.05 -54.4 58.4 -51.9 56.95 -54.4 56.45 -54.4 51.0" fill="#663300" fill-rule="evenodd" stroke="none"/>
    <path d="M-49.65 75.7 L-54.4 74.05 -54.4 67.1 -49.65 69.3 -49.65 75.7" fill="#663300" fill-rule="evenodd" stroke="none"/>
    <path d="M-54.4 -53.0 Q-54.65 -53.2 -55.05 -53.4 L-55.7 -53.7 -56.25 -54.2 -56.9 -54.6 -60.05 -63.2 -60.05 -75.05 -55.3 -60.8 -54.4 -60.1 -54.4 -53.0" fill="#663300" fill-rule="evenodd" stroke="none"/>
    <path d="M-54.4 14.55 L-55.3 12.9 -60.05 8.85 -60.05 0.55 -58.85 3.2 -54.4 4.1 -54.4 14.55" fill="#663300" fill-rule="evenodd" stroke="none"/>
    <path d="M-60.05 50.3 L-56.9 50.5 -54.4 51.0 -54.4 56.45 -60.05 55.55 -60.05 50.3" fill="#663300" fill-rule="evenodd" stroke="none"/>
    <path d="M-54.4 74.05 L-60.05 71.15 -60.05 61.2 -54.4 58.4 -54.4 64.05 -57.3 65.95 -54.4 67.1 -54.4 74.05" fill="#663300" fill-rule="evenodd" stroke="none"/>
    <path d="M-60.05 -63.2 L-61.65 -67.9 Q-61.1 -72.35 -60.7 -76.9 L-60.05 -75.05 -60.05 -63.2" fill="#663300" fill-rule="evenodd" stroke="none"/>
    <path d="M60.35 -82.4 L60.35 -73.3 70.9 -73.3 77.85 -60.1 77.85 -52.3 68.9 -50.9 67.35 -64.15 48.15 -56.05 49.95 -65.3 36.0 -62.65 25.6 -70.55 29.05 -78.55 43.0 -82.4 60.35 -82.4" fill="#51ce2b" fill-rule="evenodd" stroke="none"/>
    <path d="M-39.25 -75.9 L-37.65 -71.65 -29.8 -62.9 Q-30.05 -61.8 -30.45 -60.8 -30.95 -59.9 -31.6 -59.15 L-33.6 -57.95 -35.85 -56.95 -38.35 -56.25 -40.15 -55.55 -41.5 -55.35 -42.15 -55.35 -42.15 -42.55 -52.8 -46.1 -54.4 -60.1 -79.15 -54.2 -99.0 -54.2 -103.85 -64.85 Q-101.35 -68.9 -99.0 -73.05 L-87.05 -69.3 -87.05 -62.5 -80.7 -70.5 -71.5 -74.05 -62.4 -70.5 -39.25 -75.9" fill="#51ce2b" fill-rule="evenodd" stroke="none"/>
    <path d="M-34.15 -14.45 L-28.1 -10.85 -28.1 -4.25 -37.8 1.2 -46.35 -2.55 Q-45.7 4.95 -45.2 12.35 L-54.95 14.9 -63.5 11.35 -69.55 18.75 -79.25 14.9 -76.75 7.6 -89.15 5.7 -96.4 12.35 -102.45 11.35 -97.7 1.2 -97.7 -3.55 -85.35 -5.15 -68.2 -5.15 -63.5 2.15 -56.25 3.05 -58.5 -9.0 -68.2 -7.1 -63.5 -14.45 -34.15 -14.45" fill="#51ce2b" fill-rule="evenodd" stroke="none"/>
    <path d="M93.1 -35.3 L87.45 -28.15 100.75 -24.1 100.75 -11.35 83.65 -11.35 80.1 -18.5 64.95 -18.5 57.7 -33.9 Q66.15 -40.2 74.45 -46.65 L94.95 -46.65 93.1 -35.3" fill="#51ce2b" fill-rule="evenodd" stroke="none"/>
    <path d="M48.5 129.45 L40.9 150.8 38.4 161.15 38.4 172.8 40.9 180.6 40.9 201.95 33.0 201.95 33.0 179.65 25.35 170.95 25.35 125.7 31.7 152.65 35.5 143.0 48.5 129.45" fill="#993300" fill-rule="evenodd" stroke="none"/>
    <path d="M3.25 26.4 Q6.3 28.3 9.15 30.15 L4.15 38.45 4.15 51.5 8.25 68.1 8.25 74.25 1.3 73.55 2.2 61.5 -0.95 49.15 -0.95 31.65 -14.8 3.4 3.25 26.4" fill="#350700" fill-rule="evenodd" stroke="none"/>
    <path d="M6.4 90.35 L12.35 100.8 -3.7 91.8 -3.7 72.85 -31.9 63.55 -31.9 58.4 -19.9 62.85 -1.9 63.55 6.4 69.8 6.4 90.35" fill="#350700" fill-rule="evenodd" stroke="none"/>
    <path d="M-54.15 50.8 L-41.1 53.7 -41.1 59.8 -49.9 59.8 -57.3 65.95 -62.3 62.85 -55.95 56.75 -69.25 53.7 -71.1 49.15 -54.15 50.8" fill="#350700" fill-rule="evenodd" stroke="none"/>
    <path d="M0.6 -69.6 L-14.8 -72.35 -8.2 -76.4 6.0 -69.6 8.65 -60.8 15.25 -60.8 22.85 -57.75 12.35 -49.85 0.6 -38.1 -0.55 -10.55 -8.2 1.35 -11.1 -4.6 -3.05 -11.5 -1.9 -22.4 -1.9 -37.1 11.15 -55.75 2.2 -58.65 0.6 -69.6" fill="#51ce2b" fill-rule="evenodd" stroke="none"/>
    <path d="M14.55 136.05 L13.4 169.45 18.1 179.25 21.55 190.6 21.55 202.15 15.5 203.15 5.1 164.3 5.1 153.65 8.65 142.3 5.1 120.95 0.35 108.6 -10.05 100.8 -28.75 92.7 -39.25 85.6 -46.1 76.9 -63.6 72.35 -60.05 68.1 -40.45 74.25 -30.95 84.0 -10.05 97.25 8.65 105.05 14.55 136.05" fill="#350700" fill-rule="evenodd" stroke="none"/>
    <path d="M48.5 101.5 L38.9 113.85 34.2 126.4 34.2 136.05 28.5 127.1 30.75 107.6 36.8 97.95 49.45 90.15 48.5 101.5" fill="#350700" fill-rule="evenodd" stroke="none"/>
  </g>
</svg>
