<svg xmlns="http://www.w3.org/2000/svg" viewBox="0 0 96 96"><defs><style>.cls-1{fill:#fff;}.cls-2,.cls-29{fill:none;stroke:#000;stroke-linecap:round;stroke-linejoin:round;}.cls-3{fill:#a8a8a8;}.cls-4{fill:#a3a3a3;}.cls-5{fill:#9e9e9e;}.cls-6{fill:#999;}.cls-7{fill:#949494;}.cls-8{fill:#8f8f8f;}.cls-9{fill:#8a8a8a;}.cls-10{fill:#858585;}.cls-11{fill:#adadad;}.cls-12{fill:#b2b2b2;}.cls-13{fill:#b8b8b8;}.cls-14{fill:#bdbdbd;}.cls-15{fill:#c2c2c2;}.cls-16{fill:#c7c7c7;}.cls-17{fill:#ccc;}.cls-18{fill:#d1d1d1;}.cls-19{fill:#d6d6d6;}.cls-20{fill:#dbdbdb;}.cls-21{fill:#e0e0e0;}.cls-22{fill:#e5e5e5;}.cls-23{fill:#ebebeb;}.cls-24{fill:#f0f0f0;}.cls-25{fill:#f5f5f5;}.cls-26{fill:#fafafa;}.cls-27{opacity:0.43;}.cls-28{fill:red;}.cls-29{stroke-opacity:0;stroke-width:0.05px;}.cls-30{font-size:17.16px;}.cls-30,.cls-32{font-family:MyriadPro-Regular, Myriad Pro;}.cls-31{fill:#050505;opacity:0.8;}.cls-32{font-size:18.61px;fill:#f9f9f9;}</style></defs><title>carbondioxide</title><g id="Layer_1" data-name="Layer 1"><path class="cls-1" d="M95.5,95.5H.5V.5h95v95"/><path class="cls-2" d="M95.5,95.5H.5V.5h95Z"/></g><g id="Layer_2" data-name="Layer 2"><path class="cls-3" d="M23.87,43.93l.57.07.18-.18-.57,0q-.32,0-.18.14m9.44-22.81A13.68,13.68,0,0,1,37.24,27a13.27,13.27,0,0,1-4.08,14.34q-6.54,4.86-13.83,2.25l-2-.86a13.7,13.7,0,0,1-6.26-7.86,13.54,13.54,0,0,1,1.07-9.94,12.94,12.94,0,0,1,5.43-5.47,14,14,0,0,1,7.72-1.61,13.77,13.77,0,0,1,8,3.25"/><path class="cls-3" d="M24,43.75q-.32.07-.18.18l.54,0,.21-.14L24,43.75M33.13,21l.68.61.79.86.64.75.64.89.5.89.46,1,.36.93L37.53,28l.21,1,.11,1.14.07,1.07-.07,1.29-.14,1.07-.29,1.11-.32,1-.43,1.07-.46.89-.61,1-.61.82-.79.93-.71.64-1.07.89-.75.5-1.5.82-.68.29-2.82.79-.46.07-.36,0-.39,0-.32,0H23.51l-.32,0-.36,0-.36,0-.36,0-.39-.07-.39-.07-.5-.11-.5-.14-.68-.21-.57-.21-1-.43-.68-.39L16.18,42l-.75-.54-.89-.86-.68-.68L13.15,39l-.57-.82-.54-1-.43-.93-.39-1.07-.29-1-.29-1.86,0-1.11,0-1.14.14-1L11,27.84l.29-1,.39-1,.46-.93.57-1,.57-.82.75-.89.68-.68,1-.86.71-.54q.68-.43,1.36-.79l.71-.36a15.2,15.2,0,0,1,3.29-1L22.3,18l.39-.07.36,0h.36l.32,0h1l.32,0h.32l.32,0,.36,0,.36,0,.43.07.39.07.5.14.46.11.68.21.57.21,1.07.46.68.36a14.53,14.53,0,0,1,2,1.36"/><path class="cls-4" d="M33.13,21l.68.61.79.86.64.75.64.89.5.89.46,1,.36.93L37.53,28l.21,1,.11,1.14.07,1.07-.07,1.29-.14,1.07-.29,1.11-.32,1-.43,1.07-.46.89-.61,1-.61.82-.79.93-.71.64-1.07.89-.75.5-1.5.82-.68.29-2.82.79-.46.07-.36,0-.39,0-.32,0H23.51l-.32,0-.36,0-.36,0-.36,0-.39-.07-.39-.07-.5-.11-.5-.14-.68-.21-.57-.21-1-.43-.68-.39L16.18,42l-.75-.54-.89-.86-.68-.68-.39-.5L13.15,39l-.57-.82-.54-1-.43-.93-.39-1.07-.25-1,0-.07-.29-1.86,0-1.11,0-1.14.14-1L11,27.84l.29-1,.39-1,.46-.93.57-1,.57-.82.75-.89.68-.68,1-.86.71-.54q.68-.43,1.36-.79l.71-.36a15.2,15.2,0,0,1,3.29-1L22.3,18l.39-.07.36,0h.36l.32,0h1l.32,0h.32l.32,0,.36,0,.36,0,.43.07.39.07.5.14.46.11.68.21.57.21,1.07.46.68.36a14.53,14.53,0,0,1,2,1.36"/><path class="cls-5" d="M11.21,35.13l0-.14.18.57-.14-.43M33.13,21l.68.61.79.86.64.75.64.89.5.89.46,1,.36.93L37.53,28l.21,1,.11,1.14.07,1.07-.07,1.29-.14,1.07-.29,1.11-.32,1-.43,1.07-.46.89-.61,1-.61.82-.79.93-.71.64-1.07.89-.75.5-1.5.82-.68.29-2.82.79-.46.07-.36,0-.39,0-.32,0H23.51l-.32,0-.36,0-.36,0-.36,0-.39-.07-.39-.07-.5-.11-.5-.14-.68-.21-.57-.21-1-.43-.61-.36.18.11a11.51,11.51,0,0,0,7.9,1.22q6.83-2,7.22-8.51t-6-11.15q-6.47-3.72-11.83-.61t-3.79,10.8l-.14-.5-.29-1.86,0-1.11,0-1.14.14-1L11,27.84l.29-1,.39-1,.46-.93.57-1,.57-.82.75-.89.68-.68,1-.86.71-.54q.68-.43,1.36-.79l.71-.36a15.2,15.2,0,0,1,3.29-1L22.3,18l.39-.07.36,0h.36l.32,0h1l.32,0h.32l.32,0,.36,0,.36,0,.43.07.39.07.5.14.46.11.68.21.57.21,1.07.46.68.36a14.53,14.53,0,0,1,2,1.36"/><path class="cls-6" d="M33.13,21l.68.61.79.86.64.75.64.89.5.89.46,1,.36.93L37.53,28l.21,1,.11,1.14.07,1.07-.07,1.29-.14,1.07-.29,1.11-.32,1-.43,1.07-.46.89-.61,1-.61.82-.79.93-.71.64-1.07.89-.75.5-1.5.82-.68.29-2.82.79-.46.07-.36,0-.39,0-.32,0H23.51l-.32,0-.36,0-.36,0-.36,0-.39-.07-.39-.07,2.68.18q7.26-.71,8.83-6.9t-4-12.08q-5.58-4.72-11.69-3.07t-6.54,9.19v.71l0-1.11,0-1.14.14-1L11,27.84l.29-1,.39-1,.46-.93.57-1,.57-.82.75-.89.68-.68,1-.86.71-.54q.68-.43,1.36-.79l.71-.36a15.2,15.2,0,0,1,3.29-1L22.3,18l.39-.07.36,0h.36l.32,0h1l.32,0h.32l.32,0,.36,0,.36,0,.43.07.39.07.5.14.46.11.68.21.57.21,1.07.46.68.36a14.53,14.53,0,0,1,2,1.36"/><path class="cls-7" d="M33.13,21l.68.61.79.86.64.75.64.89.5.89.46,1,.36.93L37.53,28l.21,1,.11,1.14.07,1.07-.07,1.29-.14,1.07-.29,1.11-.32,1-.43,1.07-.46.89-.61,1-.61.82-.79.93-.71.64-1.07.89-.75.5-1.5.82-.68.29-2.82.79-.46.07-.36,0-.39,0-.32,0H23.51l-.32,0-.36,0-.36,0q7.47.5,10.26-5.08T31,26.8q-5.11-6-11.94-5.29T10.68,30l0,.18V30l.14-1L11,27.84l.29-1,.39-1,.46-.93.57-1,.57-.82.75-.89.68-.68,1-.86.71-.54q.68-.43,1.36-.79l.71-.36a15.2,15.2,0,0,1,3.29-1L22.3,18l.39-.07.36,0h.36l.32,0h1l.32,0h.32l.32,0,.36,0,.36,0,.43.07.39.07.5.14.46.11.68.21.57.21,1.07.46.68.36a14.53,14.53,0,0,1,2,1.36"/><path class="cls-8" d="M33.09,21l.68.61.82.86.61.75.64.89.5.89.5,1,.36.93L37.49,28l.21,1,.14,1.14,0,1.07-.07,1.29-.14,1.07-.25,1.11-.32,1-.43,1.07-.46.89-.61,1-.61.82-.82.93-.68.64-1.07.89-.75.5-1.5.82-.71.29-2.79.79-.46.07-.39,0-.36,0-.32,0H24q7.4-.32,9.55-5.9T32,27.05q-4.83-6.4-11.9-6.22t-9.22,7.79l.14-.79.32-1,.39-1,.43-.93.61-1,.54-.82.79-.89.68-.68,1-.86.75-.54,1.36-.79.71-.36a14.47,14.47,0,0,1,3.29-1L22.3,18l.39-.07.36,0h.32l.36,0h.93l.32,0h.36l.32,0,.36,0,.36,0,.39.07.43.07.5.14.46.11.68.21.57.21,1.07.46.68.36A12.89,12.89,0,0,1,33.09,21"/><path class="cls-9" d="M33.13,21l.68.61.79.86.64.75.64.89.5.89.46,1,.36.93L37.53,28l.21,1,.11,1.14.07,1.07-.07,1.29-.14,1.07-.29,1.11-.29,1-.46,1.07-.46.89-.61,1-.61.82-.79.93-.71.64-1.07.89-.75.5-1.5.82-.68.29-2.61.75-.46.07A9.67,9.67,0,0,0,33.88,39q2.14-4.4,0-9.94-3.68-7.51-11.3-8.65T11.32,26.87l.39-1,.46-.93.57-1,.57-.82.75-.89.68-.68,1-.86.71-.54q.68-.43,1.36-.79l.71-.36a15.2,15.2,0,0,1,3.29-1L22.3,18l.39-.07.36,0h.36l.32,0h1l.32,0h.32l.32,0,.36,0,.36,0,.43.07.39.07.5.14.46.11.68.21.61.21,1,.46.68.36a14.53,14.53,0,0,1,2,1.36"/><path class="cls-10" d="M12.64,24.16l0,0-.18.29.21-.32m22-1.72.64.75.61.89.5.89.5,1,.36.93L37.53,28l.18,1,.14,1.14,0,1.07-.07,1.29-.14,1.07-.25,1.11-.32,1-.43,1.07-.46.89-.61,1-.61.82-.82.93-.68.64-1.07.89-.75.5-1.5.82-1.39.54q8-3.29,6.65-12.69a14.62,14.62,0,0,0-9.65-10.58q-7.61-2.86-13,3.43l.57-.82.75-.89.68-.68,1-.86.75-.54q.68-.43,1.36-.79l.71-.36a14.47,14.47,0,0,1,3.29-1L22.3,18l.39-.07.36,0h.32l.36,0h1l.32,0h.32l.32,0,.36,0,.36,0,.43.07.39.07.5.14.46.11.68.21.57.21,1.07.46.68.36A12.89,12.89,0,0,1,33.09,21l.71.61.79.86"/><path class="cls-3" d="M26.73,25.73q5.43,4.5,4.79,10.44t-6.79,7.58l-.21,0-.5,0q-.25,0-.21.14l-.5,0a11.37,11.37,0,0,1-8.4-3A12.31,12.31,0,0,1,11,33.67q-.54-6.86,4.54-9.44t11.23,1.5"/><path class="cls-11" d="M20.3,43.6a11.44,11.44,0,0,1-7.11-4.75,11.14,11.14,0,0,1-2-8.26q1.64-6.15,7.58-6.72t10.3,5Q32.77,35,30,39.74T20.3,43.6"/><path class="cls-12" d="M18.79,43.07a11.53,11.53,0,0,1-6.65-6,9.66,9.66,0,0,1-.43-7.76q3.11-5.9,9.15-4.9a11.89,11.89,0,0,1,9,7Q32,37.24,28.48,41t-9.69,2.07"/><path class="cls-13" d="M17.44,42.35a11.28,11.28,0,0,1-5.22-5.54,9.19,9.19,0,0,1-.07-7.76A7.94,7.94,0,0,1,21,24.91q5.86,1,8.54,7,1.89,6.43-2.29,9.62t-9.83.79"/><path class="cls-14" d="M17.4,42.17A10.91,10.91,0,0,1,12,36.1a8.73,8.73,0,0,1,.68-7.51,7.87,7.87,0,0,1,8.94-3.22q5.54,1.39,7.76,7.4,1.29,5.65-2.57,8.72t-9.4.68"/><path class="cls-15" d="M16.22,41.28a10.22,10.22,0,0,1-4.11-5.61,8.34,8.34,0,0,1,.57-6.43,7.71,7.71,0,0,1,8.9-3.43q5.61,1.39,7.44,7.51.93,5.9-3.25,8.51t-9.55-.54"/><path class="cls-16" d="M16.29,41.14a9.68,9.68,0,0,1-4-5.58,7.65,7.65,0,0,1,1.22-6.79,7.91,7.91,0,0,1,8.72-2.32q5.22,1.57,6.54,7.79.39,5.15-3.65,7.4t-8.79-.5"/><path class="cls-17" d="M15.61,40.42a9.08,9.08,0,0,1-3.36-5.86A7.1,7.1,0,0,1,14,28.62a8.19,8.19,0,0,1,8.58-1.57,8,8,0,0,1,5.68,7.11Q28.23,40,24,41.71t-8.44-1.29"/><path class="cls-18" d="M15.36,39.92a9.18,9.18,0,0,1-2.68-4.54,7,7,0,0,1,1.39-6.15q3.22-3.43,8.15-2T28,34.13q0,5.43-4.11,7.33t-8.51-1.54"/><path class="cls-19" d="M15.58,39.74a8.43,8.43,0,0,1-2.65-4.61,6.48,6.48,0,0,1,1.14-5.29,7.32,7.32,0,0,1,8.12-2.25,7.5,7.5,0,0,1,5.51,6.51A7.18,7.18,0,0,1,23.83,41Q20,43.1,15.58,39.74"/><path class="cls-20" d="M15.79,39.56a7.24,7.24,0,0,1-2.61-4.65,6.12,6.12,0,0,1,1-4.43q3.57-4,8-2.57a7.23,7.23,0,0,1,5.18,6.18,7,7,0,0,1-3.54,6.36q-3.65,2.25-8-.89"/><path class="cls-21" d="M16.11,39.42a6.81,6.81,0,0,1-2.57-4.5,6.14,6.14,0,0,1,1.07-4.36,7.05,7.05,0,0,1,2.72-2,7.16,7.16,0,0,1,4.86-.29,6.59,6.59,0,0,1,3.65,2.72,7.12,7.12,0,0,1,1.22,3.11,6.75,6.75,0,0,1-3.4,6q-3.47,2.18-7.54-.64"/><path class="cls-22" d="M15.36,38.17a6.27,6.27,0,0,1-1.43-4.61,5.8,5.8,0,0,1,2.93-4.4q3.93-2,7.11.25a6,6,0,0,1,2.65,6A6.59,6.59,0,0,1,22,40.31q-3.57,1.07-6.61-2.14"/><path class="cls-23" d="M15.76,38a5.81,5.81,0,0,1-1.47-3.79,5.28,5.28,0,0,1,1.72-4,6.45,6.45,0,0,1,6.61-1.32A5.6,5.6,0,0,1,26.41,34a5.7,5.7,0,0,1-3.9,5.54A6,6,0,0,1,15.76,38"/><path class="cls-24" d="M16.18,37.85a6.06,6.06,0,0,1-1.39-3.32q-.36-2.29,1.86-4.47a5.84,5.84,0,0,1,6-.86,5.27,5.27,0,0,1-.14,10,5.77,5.77,0,0,1-6.36-1.36"/><path class="cls-25" d="M15.33,32.59a5,5,0,0,1,2.43-2.93,5.76,5.76,0,0,1,6.15.64,4.75,4.75,0,0,1,1.89,5.15,5.44,5.44,0,0,1-4.33,3.75,5.35,5.35,0,0,1-5.29-2.07,5,5,0,0,1-.86-4.54"/><path class="cls-26" d="M17.11,37.56a5,5,0,0,1-1.5-2.65Q15,33,17.08,30.66q3.22-2.22,5.15-1.18l1.14.75,1.11.71a4.12,4.12,0,0,1,1.32,3,4.89,4.89,0,0,1-3,4.36,5.26,5.26,0,0,1-5.68-.79"/><path class="cls-1" d="M24.19,30.95l1,1.25a3.83,3.83,0,0,1,.21,3.22,4.84,4.84,0,0,1-2,2.25,4.72,4.72,0,0,1-2,.79,5.53,5.53,0,0,1-4.9-2.22q-1.86-3.18,1.32-6l1.07-.43L20,29.45l2.25.25,2,1.25"/><path class="cls-1" d="M16.36,32.81a5.58,5.58,0,0,1,.75-1.57,5,5,0,0,1,3.32-1.57l1.79.21a6.33,6.33,0,0,1,1.57,1A4,4,0,0,1,25.37,34a4.06,4.06,0,0,1-1.25,2.82l-1.32,1-3.11.25a5.08,5.08,0,0,1-2.82-1.93,3.77,3.77,0,0,1-.5-3.32"/><path class="cls-1" d="M24.87,35.42,24,36.63a4,4,0,0,1-2.79,1.29,4.32,4.32,0,0,1-3.15-1l-1-1.18a3.38,3.38,0,0,1-.36-3.32A3,3,0,0,1,19,30.27a3.68,3.68,0,0,1,1.25-.39l2,.21a3.26,3.26,0,0,1,1.39.89q2.36,2.57,1.25,4.43"/><path class="cls-1" d="M22.23,30.27l1.5,1.07A3.74,3.74,0,0,1,25,34a3.58,3.58,0,0,1-1.11,2.47l-1.14.89L21,37.67l-1.64-.29A7.89,7.89,0,0,1,17.51,36a4.34,4.34,0,0,1-.68-1.47,3.68,3.68,0,0,1,.68-3.07,4.42,4.42,0,0,1,1.39-.93L20,30.05l1.11.11,1.14.11"/><path class="cls-1" d="M24.37,32.45l.21.75.18.75-.18.71-.18.71-.75.82-1,.86-1.5.32-1.75-.32L17.79,36A3.35,3.35,0,0,1,17,34.27a3.67,3.67,0,0,1,.89-2.86A8.06,8.06,0,0,1,19,30.77l1-.54,1.14.11,1.11.11a4.65,4.65,0,0,1,1.43,1.11l.71.89"/><path class="cls-1" d="M24.16,32.49l.21.75.18.75-.39,1.43-.75.71-.71.71L21,37.24a4.78,4.78,0,0,1-3-1.32,3.57,3.57,0,0,1-.79-1.5A3.2,3.2,0,0,1,18,31.7a6.76,6.76,0,0,1,2-1.25l1.11.11,1.11.11,1.22,1,.71.82"/><path class="cls-1" d="M24,32.49A2.88,2.88,0,0,1,24.37,34a3,3,0,0,1-.46,1.47,3,3,0,0,1-1.22,1.22L21,37a5.5,5.5,0,0,1-2.65-1.14,2.76,2.76,0,0,1-.82-2.75,3.32,3.32,0,0,1,1.25-1.79A3.08,3.08,0,0,1,20,30.63l1.11.11,1.11.14,1,.86.71.75"/><path class="cls-1" d="M23.76,32.49A2.88,2.88,0,0,1,24.16,34a3,3,0,0,1-.5,1.43,2.26,2.26,0,0,1-1,1l-1.72.39-1-.32a4.54,4.54,0,0,1-1.29-.64,4.2,4.2,0,0,1-.86-1.32,3.71,3.71,0,0,1,0-1.54,2.85,2.85,0,0,1,.75-1.07l.75-.64a1.83,1.83,0,0,1,.79-.43l1.18.11,1.07.14a4.42,4.42,0,0,1,1.47,1.43"/><path class="cls-1" d="M23.94,34l-.39,1.07a2.11,2.11,0,0,1-.93,1.14l-1.75.39-1.93-.82-.14-.14L18,34.45A4,4,0,0,1,18,33a4,4,0,0,1,.89-1l.82-.75L20,31l1.25.14,1,.14,1.25,1.18a2.88,2.88,0,0,1,.43,1.5"/><path class="cls-1" d="M23.73,34a4.09,4.09,0,0,1-.57,1.47l-.57.54-1.75.39a2.51,2.51,0,0,1-1.54-.64L18.62,35l-.39-.57,0-1.54.89-.86L20,31.2l1.11.14,1.11.18,1,1A2.82,2.82,0,0,1,23.73,34"/><path class="cls-1" d="M22.91,35.42l-.36.32-1.75.39a2.21,2.21,0,0,1-1.14-.46,3.47,3.47,0,0,1-1.18-1.32,3.24,3.24,0,0,1,.07-1.5l.75-.71.79-.71,1.11.14,1.07.18.82.75A2.69,2.69,0,0,1,23.51,34l-.61,1.47"/><path class="cls-1" d="M23,34.74l-.46.82L20.76,36a1.26,1.26,0,0,1-.75-.32,3.41,3.41,0,0,1-1.25-1.29,2,2,0,0,1,.07-1.5,2.68,2.68,0,0,1,1.29-1.18l1.11.14L22.3,32l.57.54A3,3,0,0,1,23.33,34l-.32.75"/><path class="cls-1" d="M22.69,32.52A2.69,2.69,0,0,1,23.12,34a2.1,2.1,0,0,1-.57,1.25l-1.82.5a.57.57,0,0,1-.36-.14A3.92,3.92,0,0,1,19,34.31a2.44,2.44,0,0,1,.14-1.54,2,2,0,0,1,1-.89l1.07.14,1.14.14.36.36"/><path class="cls-1" d="M20.15,32.09l1,.11,1.22.18.14.14A2.58,2.58,0,0,1,22.91,34l-.39.89-1.86.61a2.14,2.14,0,0,1-1.36-1.25,2.34,2.34,0,0,1,.14-1.5,1.34,1.34,0,0,1,.71-.64"/><path class="cls-1" d="M20.62,35.17a1.74,1.74,0,0,1-1-.93,2.67,2.67,0,0,1,.18-1.54l.43-.39a3.81,3.81,0,0,1,1.68.25l.5.32q.46.43.11,1.64l-1.86.64"/><path class="cls-1" d="M20.55,34.85a1.2,1.2,0,0,1-.71-.64A3.49,3.49,0,0,1,20,32.66l.14-.14q.07-.46,2.22,1.18l0,.43-1.89.71"/><path class="cls-1" d="M20.47,34.49l-.36-.32a2.78,2.78,0,0,1,.14-1.07l1.39.93a2.61,2.61,0,0,1-1.18.46"/><path class="cls-1" d="M20.44,34.17h0v-.07l.07,0,0,0"/><g class="cls-27"><path class="cls-28" d="M37.49,33.78l-.61,2.14A10.4,10.4,0,0,1,36,38l-1.14,1.7L34,40.6l-1.79,1.56a13.7,13.7,0,0,1-4.29,2.1l-5.65.4L19.51,44l-.93-.36-.79-.36L17.19,43,16,42.2l-1.64-1.41L13,39.15,11.86,37.3a10.93,10.93,0,0,1-.82-2l-.43-1.89a13.13,13.13,0,0,1,0-4.39l.54-2.1a10.59,10.59,0,0,1,.86-2,14.75,14.75,0,0,1,1.89-2.72,15,15,0,0,1,2.18-1.92,13.13,13.13,0,0,1,4.58-2.14,14.53,14.53,0,0,1,8,.36,13.64,13.64,0,0,1,4.4,2.5,14,14,0,0,1,2,2.18L36.2,25l.82,2a13.88,13.88,0,0,1,.68,3.26l0,1.31-.25,2.28M23.69,44.19l.54,0,.21-.15-.57,0q-.32,0-.18.15a10.24,10.24,0,0,1-5.9-.91,10.24,10.24,0,0,0,5.9.91"/><path class="cls-29" d="M37.49,33.78l-.61,2.14A10.4,10.4,0,0,1,36,38l-1.14,1.7L34,40.6l-1.79,1.56a13.7,13.7,0,0,1-4.29,2.1l-5.65.4L19.51,44l-.93-.36-.79-.36L17.19,43,16,42.2l-1.64-1.41L13,39.15,11.86,37.3a10.93,10.93,0,0,1-.82-2l-.43-1.89a13.13,13.13,0,0,1,0-4.39l.54-2.1a10.59,10.59,0,0,1,.86-2,14.75,14.75,0,0,1,1.89-2.72,15,15,0,0,1,2.18-1.92,13.13,13.13,0,0,1,4.58-2.14,14.53,14.53,0,0,1,8,.36,13.64,13.64,0,0,1,4.4,2.5,14,14,0,0,1,2,2.18L36.2,25l.82,2a13.88,13.88,0,0,1,.68,3.26l0,1.31-.25,2.28M23.69,44.19q-.14-.11.18-.15l.57,0-.21.15-.54,0a10.24,10.24,0,0,1-5.9-.91"/></g><text class="cls-30" transform="translate(18.22 37.45)">O</text></g><g id="Layer_3" data-name="Layer 3"><path class="cls-3" d="M72.68,44.48l.57.07.18-.18-.57,0q-.32,0-.18.14m9.44-22.81A13.68,13.68,0,0,1,86,27.57,13.27,13.27,0,0,1,82,41.91q-6.54,4.86-13.83,2.25l-2-.86a13.7,13.7,0,0,1-6.26-7.86A13.54,13.54,0,0,1,61,25.5,12.94,12.94,0,0,1,66.42,20a14,14,0,0,1,7.72-1.61,13.77,13.77,0,0,1,8,3.25"/><path class="cls-3" d="M72.85,44.3q-.32.07-.18.18l.54,0,.21-.14-.57-.07m9.08-22.77.68.61.79.86.64.75.64.89.5.89.46,1,.36.93.32,1.07.21,1,.11,1.14.07,1.07L86.65,33l-.14,1.07-.29,1.11-.32,1-.43,1.07-.46.89-.61,1-.61.82-.79.93-.71.64-1.07.89-.75.5L79,43.8l-.68.29-2.82.79-.46.07-.36,0-.39,0-.32,0H72.32L72,45l-.36,0-.36,0-.36,0-.39-.07-.39-.07-.5-.11-.5-.14-.68-.21-.57-.21-1-.43-.68-.39L65,42.51,64.24,42l-.89-.86-.68-.68L62,39.51l-.57-.82-.54-1-.43-.93L60,35.69l-.29-1-.29-1.86,0-1.11,0-1.14.14-1,.25-1.11.29-1,.39-1,.46-.93.57-1,.57-.82.75-.89.68-.68,1-.86.71-.54q.68-.43,1.36-.79l.71-.36a15.2,15.2,0,0,1,3.29-1l.46-.07.39-.07.36,0h.36l.32,0h1l.32,0h.32l.32,0,.36,0,.36,0,.43.07.39.07.5.14.46.11.68.21.57.21,1.07.46.68.36a14.53,14.53,0,0,1,2,1.36"/><path class="cls-4" d="M81.93,21.53l.68.61.79.86.64.75.64.89.5.89.46,1,.36.93.32,1.07.21,1,.11,1.14.07,1.07L86.65,33l-.14,1.07-.29,1.11-.32,1-.43,1.07-.46.89-.61,1-.61.82-.79.93-.71.64-1.07.89-.75.5L79,43.8l-.68.29-2.82.79-.46.07-.36,0-.39,0-.32,0H72.32L72,45l-.36,0-.36,0-.36,0-.39-.07-.39-.07-.5-.11-.5-.14-.68-.21-.57-.21-1-.43-.68-.39L65,42.51,64.24,42l-.89-.86-.68-.68-.39-.5L62,39.51l-.57-.82-.54-1-.43-.93L60,35.69l-.25-1,0-.07-.29-1.86,0-1.11,0-1.14.14-1,.25-1.11.29-1,.39-1,.46-.93.57-1,.57-.82.75-.89.68-.68,1-.86.71-.54q.68-.43,1.36-.79l.71-.36a15.2,15.2,0,0,1,3.29-1l.46-.07.39-.07.36,0h.36l.32,0h1l.32,0h.32l.32,0,.36,0,.36,0,.43.07.39.07.5.14.46.11.68.21.57.21,1.07.46.68.36a14.53,14.53,0,0,1,2,1.36"/><path class="cls-5" d="M60,35.69l0-.14.18.57L60,35.69M81.93,21.53l.68.61.79.86.64.75.64.89.5.89.46,1,.36.93.32,1.07.21,1,.11,1.14.07,1.07L86.65,33l-.14,1.07-.29,1.11-.32,1-.43,1.07-.46.89-.61,1-.61.82-.79.93-.71.64-1.07.89-.75.5L79,43.8l-.68.29-2.82.79-.46.07-.36,0-.39,0-.32,0H72.32L72,45l-.36,0-.36,0-.36,0-.39-.07-.39-.07-.5-.11-.5-.14-.68-.21-.57-.21-1-.43-.61-.36.18.11a11.51,11.51,0,0,0,7.9,1.22q6.83-2,7.22-8.51T75.5,25Q69,21.24,63.67,24.35t-3.79,10.8l-.14-.5-.29-1.86,0-1.11,0-1.14.14-1,.25-1.11.29-1,.39-1,.46-.93.57-1,.57-.82.75-.89.68-.68,1-.86.71-.54q.68-.43,1.36-.79l.71-.36a15.2,15.2,0,0,1,3.29-1l.46-.07.39-.07.36,0h.36l.32,0h1l.32,0h.32l.32,0,.36,0,.36,0,.43.07.39.07.5.14.46.11.68.21.57.21,1.07.46.68.36a14.53,14.53,0,0,1,2,1.36"/><path class="cls-6" d="M81.93,21.53l.68.61.79.86.64.75.64.89.5.89.46,1,.36.93.32,1.07.21,1,.11,1.14.07,1.07L86.65,33l-.14,1.07-.29,1.11-.32,1-.43,1.07-.46.89-.61,1-.61.82-.79.93-.71.64-1.07.89-.75.5L79,43.8l-.68.29-2.82.79-.46.07-.36,0-.39,0-.32,0H72.32L72,45l-.36,0-.36,0-.36,0-.39-.07-.39-.07,2.68.18q7.26-.71,8.83-6.9T77.68,26Q72.1,21.24,66,22.89t-6.54,9.19v.71l0-1.11,0-1.14.14-1,.25-1.11.29-1,.39-1,.46-.93.57-1,.57-.82.75-.89.68-.68,1-.86.71-.54q.68-.43,1.36-.79l.71-.36a15.2,15.2,0,0,1,3.29-1l.46-.07.39-.07.36,0h.36l.32,0h1l.32,0h.32l.32,0,.36,0,.36,0,.43.07.39.07.5.14.46.11.68.21.57.21,1.07.46.68.36a14.53,14.53,0,0,1,2,1.36"/><path class="cls-7" d="M81.93,21.53l.68.61.79.86.64.75.64.89.5.89.46,1,.36.93.32,1.07.21,1,.11,1.14.07,1.07L86.65,33l-.14,1.07-.29,1.11-.32,1-.43,1.07-.46.89-.61,1-.61.82-.79.93-.71.64-1.07.89-.75.5L79,43.8l-.68.29-2.82.79-.46.07-.36,0-.39,0-.32,0H72.32L72,45l-.36,0-.36,0q7.47.5,10.26-5.08T79.79,27.36q-5.11-6-11.94-5.29t-8.37,8.47l0,.18v-.18l.14-1,.25-1.11.29-1,.39-1,.46-.93.57-1,.57-.82.75-.89.68-.68,1-.86.71-.54q.68-.43,1.36-.79l.71-.36a15.2,15.2,0,0,1,3.29-1l.46-.07.39-.07.36,0h.36l.32,0h1l.32,0h.32l.32,0,.36,0,.36,0,.43.07.39.07.5.14.46.11.68.21.57.21,1.07.46.68.36a14.53,14.53,0,0,1,2,1.36"/><path class="cls-8" d="M81.9,21.53l.68.61.82.86.61.75.64.89.5.89.5,1,.36.93.29,1.07.21,1,.14,1.14,0,1.07L86.62,33l-.14,1.07-.25,1.11-.32,1-.43,1.07-.46.89-.61,1-.61.82-.82.93-.68.64-1.07.89-.75.5L79,43.8l-.71.29-2.79.79-.46.07-.39,0-.36,0-.32,0H72.78q7.4-.32,9.55-5.9T80.79,27.61q-4.83-6.4-11.9-6.22t-9.22,7.79l.14-.79.32-1,.39-1,.43-.93.61-1,.54-.82.79-.89.68-.68,1-.86.75-.54,1.36-.79.71-.36a14.47,14.47,0,0,1,3.29-1l.46-.07.39-.07.36,0h.32l.36,0h.93l.32,0h.36l.32,0,.36,0,.36,0,.39.07.43.07.5.14.46.11.68.21.57.21,1.07.46.68.36a12.89,12.89,0,0,1,1.93,1.36"/><path class="cls-9" d="M81.93,21.53l.68.61.79.86.64.75.64.89.5.89.46,1,.36.93.32,1.07.21,1,.11,1.14.07,1.07L86.65,33l-.14,1.07-.29,1.11-.29,1-.46,1.07-.46.89-.61,1-.61.82-.79.93-.71.64-1.07.89-.75.5L79,43.8l-.68.29-2.61.75-.46.07a9.67,9.67,0,0,0,7.47-5.4q2.14-4.4,0-9.94Q79,22.06,71.39,20.92T60.13,27.43l.39-1,.46-.93.57-1,.57-.82.75-.89.68-.68,1-.86.71-.54q.68-.43,1.36-.79l.71-.36a15.2,15.2,0,0,1,3.29-1l.46-.07.39-.07.36,0h.36l.32,0h1l.32,0h.32l.32,0,.36,0,.36,0,.43.07.39.07.5.14.46.11.68.21.61.21,1,.46.68.36a14.53,14.53,0,0,1,2,1.36"/><path class="cls-10" d="M61.45,24.71l0,0-.18.29.21-.32M83.4,23l.64.75.61.89.5.89.5,1,.36.93.32,1.07.18,1,.14,1.14,0,1.07L86.62,33l-.14,1.07-.25,1.11-.32,1-.43,1.07-.46.89-.61,1-.61.82-.82.93-.68.64-1.07.89-.75.5L79,43.8l-1.39.54q8-3.29,6.65-12.69a14.62,14.62,0,0,0-9.65-10.58Q67,18.2,61.56,24.5l.57-.82.75-.89.68-.68,1-.86.75-.54q.68-.43,1.36-.79l.71-.36a14.47,14.47,0,0,1,3.29-1l.46-.07.39-.07.36,0h.32l.36,0h1l.32,0h.32l.32,0,.36,0,.36,0,.43.07.39.07.5.14.46.11.68.21.57.21,1.07.46.68.36a12.89,12.89,0,0,1,1.93,1.36l.71.61.79.86"/><path class="cls-3" d="M75.54,26.28q5.43,4.5,4.79,10.44T73.53,44.3l-.21,0-.5,0q-.25,0-.21.14l-.5,0a11.37,11.37,0,0,1-8.4-3,12.31,12.31,0,0,1-3.93-7.26q-.54-6.86,4.54-9.44t11.23,1.5"/><path class="cls-11" d="M69.1,44.16A11.44,11.44,0,0,1,62,39.4a11.14,11.14,0,0,1-2-8.26q1.64-6.15,7.58-6.72t10.3,5q3.75,6.11,1,10.87T69.1,44.16"/><path class="cls-12" d="M67.6,43.62a11.53,11.53,0,0,1-6.65-6,9.66,9.66,0,0,1-.43-7.76q3.11-5.9,9.15-4.9a11.89,11.89,0,0,1,9,7q2.18,5.9-1.36,9.65T67.6,43.62"/><path class="cls-13" d="M66.24,42.91A11.28,11.28,0,0,1,61,37.37a9.19,9.19,0,0,1-.07-7.76,7.94,7.94,0,0,1,8.87-4.15q5.86,1,8.54,7,1.89,6.43-2.29,9.62t-9.83.79"/><path class="cls-14" d="M66.21,42.73a10.91,10.91,0,0,1-5.4-6.08,8.73,8.73,0,0,1,.68-7.51,7.87,7.87,0,0,1,8.94-3.22q5.54,1.39,7.76,7.4Q79.47,39,75.61,42t-9.4.68"/><path class="cls-15" d="M65,41.83a10.22,10.22,0,0,1-4.11-5.61,8.34,8.34,0,0,1,.57-6.43,7.71,7.71,0,0,1,8.9-3.43q5.61,1.39,7.44,7.51.93,5.9-3.25,8.51T65,41.83"/><path class="cls-16" d="M65.1,41.69a9.68,9.68,0,0,1-4-5.58,7.65,7.65,0,0,1,1.22-6.79A7.91,7.91,0,0,1,71,27q5.22,1.57,6.54,7.79.39,5.15-3.65,7.4t-8.79-.5"/><path class="cls-17" d="M64.42,41a9.08,9.08,0,0,1-3.36-5.86,7.1,7.1,0,0,1,1.79-5.93,8.19,8.19,0,0,1,8.58-1.57,8,8,0,0,1,5.68,7.11q-.07,5.83-4.25,7.54T64.42,41"/><path class="cls-18" d="M64.17,40.48a9.18,9.18,0,0,1-2.68-4.54,7,7,0,0,1,1.39-6.15q3.22-3.43,8.15-2t5.76,6.86q0,5.43-4.11,7.33t-8.51-1.54"/><path class="cls-19" d="M64.38,40.3a8.43,8.43,0,0,1-2.65-4.61,6.48,6.48,0,0,1,1.14-5.29A7.32,7.32,0,0,1,71,28.14a7.5,7.5,0,0,1,5.51,6.51,7.18,7.18,0,0,1-3.86,6.9q-3.86,2.11-8.26-1.25"/><path class="cls-20" d="M64.6,40.12A7.24,7.24,0,0,1,62,35.47,6.12,6.12,0,0,1,63,31q3.57-4,8-2.57a7.23,7.23,0,0,1,5.18,6.18A7,7,0,0,1,72.6,41q-3.65,2.25-8-.89"/><path class="cls-21" d="M64.92,40a6.81,6.81,0,0,1-2.57-4.5,6.14,6.14,0,0,1,1.07-4.36,7.05,7.05,0,0,1,2.72-2A7.16,7.16,0,0,1,71,28.79a6.59,6.59,0,0,1,3.65,2.72,7.12,7.12,0,0,1,1.22,3.11,6.75,6.75,0,0,1-3.4,6Q69,42.8,64.92,40"/><path class="cls-22" d="M64.17,38.72a6.27,6.27,0,0,1-1.43-4.61,5.8,5.8,0,0,1,2.93-4.4q3.93-2,7.11.25a6,6,0,0,1,2.65,6,6.59,6.59,0,0,1-4.65,4.86q-3.57,1.07-6.61-2.14"/><path class="cls-23" d="M64.56,38.55a5.81,5.81,0,0,1-1.47-3.79,5.28,5.28,0,0,1,1.72-4,6.45,6.45,0,0,1,6.61-1.32,5.6,5.6,0,0,1,3.79,5.15,5.7,5.7,0,0,1-3.9,5.54,6,6,0,0,1-6.76-1.57"/><path class="cls-24" d="M65,38.4a6.06,6.06,0,0,1-1.39-3.32q-.36-2.29,1.86-4.47a5.84,5.84,0,0,1,6-.86,5.27,5.27,0,0,1-.14,10A5.77,5.77,0,0,1,65,38.4"/><path class="cls-25" d="M64.13,33.15a5,5,0,0,1,2.43-2.93,5.76,5.76,0,0,1,6.15.64A4.75,4.75,0,0,1,74.61,36a5.44,5.44,0,0,1-4.33,3.75A5.35,5.35,0,0,1,65,37.69a5,5,0,0,1-.86-4.54"/><path class="cls-26" d="M65.92,38.12a5,5,0,0,1-1.5-2.65q-.57-1.93,1.47-4.25Q69.1,29,71,30l1.14.75,1.11.71a4.12,4.12,0,0,1,1.32,3,4.89,4.89,0,0,1-3,4.36,5.26,5.26,0,0,1-5.68-.79"/><path class="cls-1" d="M73,31.5l1,1.25A3.83,3.83,0,0,1,74.18,36a4.84,4.84,0,0,1-2,2.25,4.72,4.72,0,0,1-2,.79,5.53,5.53,0,0,1-4.9-2.22q-1.86-3.18,1.32-6l1.07-.43L68.78,30l2.25.25,2,1.25"/><path class="cls-1" d="M65.17,33.36a5.58,5.58,0,0,1,.75-1.57,5,5,0,0,1,3.32-1.57l1.79.21a6.33,6.33,0,0,1,1.57,1,4,4,0,0,1,1.57,3.07,4.06,4.06,0,0,1-1.25,2.82l-1.32,1-3.11.25a5.08,5.08,0,0,1-2.82-1.93,3.77,3.77,0,0,1-.5-3.32"/><path class="cls-1" d="M73.68,36l-.86,1.22A4,4,0,0,1,70,38.47a4.32,4.32,0,0,1-3.15-1l-1-1.18A3.38,3.38,0,0,1,65.56,33a3,3,0,0,1,2.25-2.18,3.68,3.68,0,0,1,1.25-.39l2,.21a3.26,3.26,0,0,1,1.39.89q2.36,2.57,1.25,4.43"/><path class="cls-1" d="M71,30.82l1.5,1.07a3.74,3.74,0,0,1,1.25,2.61A3.58,3.58,0,0,1,72.68,37l-1.14.89-1.68.36-1.64-.29a7.89,7.89,0,0,1-1.89-1.39,4.34,4.34,0,0,1-.68-1.47A3.68,3.68,0,0,1,66.31,32a4.42,4.42,0,0,1,1.39-.93l1.07-.46,1.11.11,1.14.11"/><path class="cls-1" d="M73.18,33l.21.75.18.75-.18.71-.18.71-.75.82-1,.86-1.5.32-1.75-.32L66.6,36.51a3.35,3.35,0,0,1-.82-1.68A3.67,3.67,0,0,1,66.67,32a8.06,8.06,0,0,1,1.11-.64l1-.54,1.14.11L71,31a4.65,4.65,0,0,1,1.43,1.11l.71.89"/><path class="cls-1" d="M73,33l.21.75.18.75L73,36l-.75.71-.71.71-1.64.39a4.78,4.78,0,0,1-3-1.32,3.57,3.57,0,0,1-.79-1.5,3.2,3.2,0,0,1,.71-2.72,6.76,6.76,0,0,1,2-1.25l1.11.11,1.11.11,1.22,1L73,33"/><path class="cls-1" d="M72.78,33a2.88,2.88,0,0,1,.39,1.47A3,3,0,0,1,72.71,36a3,3,0,0,1-1.22,1.22l-1.68.36a5.5,5.5,0,0,1-2.65-1.14,2.76,2.76,0,0,1-.82-2.75,3.32,3.32,0,0,1,1.25-1.79,3.08,3.08,0,0,1,1.25-.68l1.11.11,1.11.14,1,.86.71.75"/><path class="cls-1" d="M72.57,33A2.88,2.88,0,0,1,73,34.51a3,3,0,0,1-.5,1.43,2.26,2.26,0,0,1-1,1l-1.72.39-1-.32a4.54,4.54,0,0,1-1.29-.64A4.2,4.2,0,0,1,66.6,35a3.71,3.71,0,0,1,0-1.54,2.85,2.85,0,0,1,.75-1.07l.75-.64a1.83,1.83,0,0,1,.79-.43l1.18.11,1.07.14A4.42,4.42,0,0,1,72.57,33"/><path class="cls-1" d="M72.75,34.54l-.39,1.07a2.11,2.11,0,0,1-.93,1.14l-1.75.39-1.93-.82-.14-.14L66.78,35a4,4,0,0,1,0-1.5,4,4,0,0,1,.89-1l.82-.75.36-.18,1.25.14,1,.14L72.32,33a2.88,2.88,0,0,1,.43,1.5"/><path class="cls-1" d="M72.53,34.51A4.09,4.09,0,0,1,72,36l-.57.54-1.75.39a2.51,2.51,0,0,1-1.54-.64l-.68-.71L67,35l0-1.54.89-.86.89-.82L70,31.9l1.11.18,1,1a2.82,2.82,0,0,1,.43,1.47"/><path class="cls-1" d="M71.71,36l-.36.32-1.75.39a2.21,2.21,0,0,1-1.14-.46,3.47,3.47,0,0,1-1.18-1.32,3.24,3.24,0,0,1,.07-1.5l.75-.71.79-.71,1.11.14,1.07.18.82.75a2.69,2.69,0,0,1,.43,1.47L71.71,36"/><path class="cls-1" d="M71.82,35.29l-.46.82-1.79.39a1.26,1.26,0,0,1-.75-.32,3.41,3.41,0,0,1-1.25-1.29,2,2,0,0,1,.07-1.5,2.68,2.68,0,0,1,1.29-1.18l1.11.14,1.07.18.57.54a3,3,0,0,1,.46,1.47l-.32.75"/><path class="cls-1" d="M71.5,33.08a2.69,2.69,0,0,1,.43,1.47,2.1,2.1,0,0,1-.57,1.25l-1.82.5a.57.57,0,0,1-.36-.14,3.92,3.92,0,0,1-1.36-1.29A2.44,2.44,0,0,1,68,33.33a2,2,0,0,1,1-.89l1.07.14,1.14.14.36.36"/><path class="cls-1" d="M69,32.65l1,.11,1.22.18.14.14a2.58,2.58,0,0,1,.43,1.47l-.39.89L69.46,36a2.14,2.14,0,0,1-1.36-1.25,2.34,2.34,0,0,1,.14-1.5,1.34,1.34,0,0,1,.71-.64"/><path class="cls-1" d="M69.42,35.72a1.74,1.74,0,0,1-1-.93,2.67,2.67,0,0,1,.18-1.54l.43-.39a3.81,3.81,0,0,1,1.68.25l.5.32q.46.43.11,1.64l-1.86.64"/><path class="cls-1" d="M69.35,35.4a1.2,1.2,0,0,1-.71-.64,3.49,3.49,0,0,1,.21-1.54l.14-.14q.07-.46,2.22,1.18l0,.43-1.89.71"/><path class="cls-1" d="M69.28,35l-.36-.32a2.78,2.78,0,0,1,.14-1.07l1.39.93a2.61,2.61,0,0,1-1.18.46"/><path class="cls-1" d="M69.24,34.72h0v-.07l.07,0,0,0"/><g class="cls-27"><path class="cls-28" d="M86.49,34.2l-.61,2.12a10.25,10.25,0,0,1-.93,2L83.81,40,83,41,81.24,42.5a13.76,13.76,0,0,1-4.29,2.08L71.3,45l-2.79-.65L67.58,44l-.79-.36-.61-.32L65,42.53l-1.64-1.4L62,39.52l-1.11-1.83a10.76,10.76,0,0,1-.82-2l-.43-1.87a12.88,12.88,0,0,1,0-4.35l.54-2.08a10.44,10.44,0,0,1,.86-2,14.61,14.61,0,0,1,1.89-2.69,14.91,14.91,0,0,1,2.18-1.9,13.18,13.18,0,0,1,4.58-2.12,14.66,14.66,0,0,1,8,.36,13.67,13.67,0,0,1,4.4,2.48,14,14,0,0,1,2,2.15l1.14,1.8L86,27.41a13.64,13.64,0,0,1,.68,3.23l0,1.29-.25,2.26M72.69,44.51l.54,0,.21-.14-.57,0q-.32,0-.18.14a10.32,10.32,0,0,1-5.9-.9,10.32,10.32,0,0,0,5.9.9"/><path class="cls-29" d="M86.49,34.2l-.61,2.12a10.25,10.25,0,0,1-.93,2L83.81,40,83,41,81.24,42.5a13.76,13.76,0,0,1-4.29,2.08L71.3,45l-2.79-.65L67.58,44l-.79-.36-.61-.32L65,42.53l-1.64-1.4L62,39.52l-1.11-1.83a10.76,10.76,0,0,1-.82-2l-.43-1.87a12.88,12.88,0,0,1,0-4.35l.54-2.08a10.44,10.44,0,0,1,.86-2,14.61,14.61,0,0,1,1.89-2.69,14.91,14.91,0,0,1,2.18-1.9,13.18,13.18,0,0,1,4.58-2.12,14.66,14.66,0,0,1,8,.36,13.67,13.67,0,0,1,4.4,2.48,14,14,0,0,1,2,2.15l1.14,1.8L86,27.41a13.64,13.64,0,0,1,.68,3.23l0,1.29-.25,2.26M72.69,44.51q-.14-.11.18-.14l.57,0-.21.14-.54,0a10.32,10.32,0,0,1-5.9-.9"/></g><text class="cls-30" transform="translate(66.69 38.37)">O</text></g><g id="Layer_4" data-name="Layer 4"><path class="cls-3" d="M48,43.47l.58.07.18-.18-.58,0q-.33,0-.18.15m9.6-23.21a13.92,13.92,0,0,1,4,6,13.5,13.5,0,0,1-4.15,14.59q-6.66,4.95-14.08,2.29l-2-.87a13.94,13.94,0,0,1-6.37-8,13.77,13.77,0,0,1,1.09-10.11,13.17,13.17,0,0,1,5.53-5.57,14.26,14.26,0,0,1,7.86-1.64,14,14,0,0,1,8.11,3.31"/><path class="cls-3" d="M48.19,43.28q-.33.07-.18.18l.55,0,.22-.15-.58-.07m9.24-23.17.69.62.8.87.65.76.65.91.51.91.47,1,.36.95.33,1.09.22,1,.11,1.16.07,1.09-.07,1.31-.15,1.09L61.8,34l-.33,1L61,36.15l-.47.91-.62,1-.62.84-.8.95-.73.65-1.09.91-.76.51-1.53.84-.69.29-2.87.8-.47.07L50,44l-.4,0-.33,0H47.65l-.33,0L47,44l-.36,0-.36,0-.4-.07-.4-.07-.51-.11-.51-.15-.69-.22-.58-.22-1.06-.44-.69-.4-1.2-.76-.76-.55L38.52,40l-.69-.69-.73-.95-.58-.84-.55-1-.44-.95-.4-1.09-.29-1.05-.29-1.89,0-1.13,0-1.16.15-1.05L35,27.1l.29-1,.4-1.05.47-.95.58-1,.58-.84.76-.91.69-.69,1-.87.73-.55q.69-.44,1.38-.8l.73-.36a15.46,15.46,0,0,1,3.35-1l.47-.07.4-.07.36,0h.36l.33,0h1l.33,0h.33l.33,0,.36,0,.36,0,.44.07.4.07.51.15.47.11.69.22.58.22,1.09.47.69.36a14.79,14.79,0,0,1,2,1.38"/><path class="cls-4" d="M57.43,20.11l.69.62.8.87.65.76.65.91.51.91.47,1,.36.95.33,1.09.22,1,.11,1.16.07,1.09-.07,1.31-.15,1.09L61.8,34l-.33,1L61,36.15l-.47.91-.62,1-.62.84-.8.95-.73.65-1.09.91-.76.51-1.53.84-.69.29-2.87.8-.47.07L50,44l-.4,0-.33,0H47.65l-.33,0L47,44l-.36,0-.36,0-.4-.07-.4-.07-.51-.11-.51-.15-.69-.22-.58-.22-1.06-.44-.69-.4-1.2-.76-.76-.55L38.52,40l-.69-.69-.4-.51-.33-.44-.58-.84-.55-1-.44-.95-.4-1.09-.25-1,0-.07-.29-1.89,0-1.13,0-1.16.15-1.05L35,27.1l.29-1,.4-1.05.47-.95.58-1,.58-.84.76-.91.69-.69,1-.87.73-.55q.69-.44,1.38-.8l.73-.36a15.46,15.46,0,0,1,3.35-1l.47-.07.4-.07.36,0h.36l.33,0h1l.33,0h.33l.33,0,.36,0,.36,0,.44.07.4.07.51.15.47.11.69.22.58.22,1.09.47.69.36a14.79,14.79,0,0,1,2,1.38"/><path class="cls-5" d="M35.13,34.52l0-.15.18.58-.15-.44m22.3-14.41.69.62.8.87.65.76.65.91.51.91.47,1,.36.95.33,1.09.22,1,.11,1.16.07,1.09-.07,1.31-.15,1.09L61.8,34l-.33,1L61,36.15l-.47.91-.62,1-.62.84-.8.95-.73.65-1.09.91-.76.51-1.53.84-.69.29-2.87.8-.47.07L50,44l-.4,0-.33,0H47.65l-.33,0L47,44l-.36,0-.36,0-.4-.07-.4-.07-.51-.11-.51-.15-.69-.22-.58-.22-1.06-.44-.62-.36.18.11a11.71,11.71,0,0,0,8,1.24q6.95-2,7.35-8.66T50.89,23.6q-6.58-3.78-12-.62T35,34l-.15-.51-.29-1.89,0-1.13,0-1.16.15-1.05L35,27.1l.29-1,.4-1.05.47-.95.58-1,.58-.84.76-.91.69-.69,1-.87.73-.55q.69-.44,1.38-.8l.73-.36a15.46,15.46,0,0,1,3.35-1l.47-.07.4-.07.36,0h.36l.33,0h1l.33,0h.33l.33,0,.36,0,.36,0,.44.07.4.07.51.15.47.11.69.22.58.22,1.09.47.69.36a14.79,14.79,0,0,1,2,1.38"/><path class="cls-6" d="M57.43,20.11l.69.62.8.87.65.76.65.91.51.91.47,1,.36.95.33,1.09.22,1,.11,1.16.07,1.09-.07,1.31-.15,1.09L61.8,34l-.33,1L61,36.15l-.47.91-.62,1-.62.84-.8.95-.73.65-1.09.91-.76.51-1.53.84-.69.29-2.87.8-.47.07L50,44l-.4,0-.33,0H47.65l-.33,0L47,44l-.36,0-.36,0-.4-.07-.4-.07,2.73.18q7.38-.73,9-7t-4-12.3q-5.68-4.8-11.9-3.13t-6.66,9.35v.73l0-1.13,0-1.16.15-1.05L35,27.1l.29-1,.4-1.05.47-.95.58-1,.58-.84.76-.91.69-.69,1-.87.73-.55q.69-.44,1.38-.8l.73-.36a15.46,15.46,0,0,1,3.35-1l.47-.07.4-.07.36,0h.36l.33,0h1l.33,0h.33l.33,0,.36,0,.36,0,.44.07.4.07.51.15.47.11.69.22.58.22,1.09.47.69.36a14.79,14.79,0,0,1,2,1.38"/><path class="cls-7" d="M57.43,20.11l.69.62.8.87.65.76.65.91.51.91.47,1,.36.95.33,1.09.22,1,.11,1.16.07,1.09-.07,1.31-.15,1.09L61.8,34l-.33,1L61,36.15l-.47.91-.62,1-.62.84-.8.95-.73.65-1.09.91-.76.51-1.53.84-.69.29-2.87.8-.47.07L50,44l-.4,0-.33,0H47.65l-.33,0L47,44l-.36,0q7.6.51,10.44-5.17T55.25,26Q50,20,43.1,20.66t-8.51,8.62l0,.18v-.18l.15-1.05L35,27.1l.29-1,.4-1.05.47-.95.58-1,.58-.84.76-.91.69-.69,1-.87.73-.55q.69-.44,1.38-.8l.73-.36a15.46,15.46,0,0,1,3.35-1l.47-.07.4-.07.36,0h.36l.33,0h1l.33,0h.33l.33,0,.36,0,.36,0,.44.07.4.07.51.15.47.11.69.22.58.22,1.09.47.69.36a14.79,14.79,0,0,1,2,1.38"/><path class="cls-8" d="M57.4,20.11l.69.62.84.87.62.76.65.91.51.91.51,1,.36.95.29,1.09.22,1,.15,1.16,0,1.09-.07,1.31-.15,1.09L61.8,34l-.33,1L61,36.15l-.47.91-.62,1-.62.84-.84.95-.69.65-1.09.91-.76.51-1.53.84-.73.29-2.84.8-.47.07L50,44l-.36,0-.33,0H48.12q7.53-.33,9.71-6T56.27,26.3Q51.36,19.78,44.16,20T34.77,27.9l.15-.8.33-1,.4-1.05.44-.95.62-1,.55-.84.8-.91.69-.69,1-.87.76-.55,1.38-.8.73-.36a14.73,14.73,0,0,1,3.35-1l.47-.07.4-.07.36,0h.33l.36,0h.95l.33,0h.36l.33,0,.36,0,.36,0,.4.07.44.07.51.15.47.11.69.22.58.22,1.09.47.69.36a13.12,13.12,0,0,1,2,1.38"/><path class="cls-9" d="M57.43,20.11l.69.62.8.87.65.76.65.91.51.91.47,1,.36.95.33,1.09.22,1,.11,1.16.07,1.09-.07,1.31-.15,1.09L61.8,34l-.29,1L61,36.15l-.47.91-.62,1-.62.84-.8.95-.73.65-1.09.91-.76.51-1.53.84-.69.29-2.66.76-.47.07a9.84,9.84,0,0,0,7.6-5.49q2.18-4.47,0-10.11-3.75-7.64-11.5-8.8T35.24,26.11l.4-1.05.47-.95.58-1,.58-.84.76-.91.69-.69,1-.87.73-.55q.69-.44,1.38-.8l.73-.36a15.46,15.46,0,0,1,3.35-1l.47-.07.4-.07.36,0h.36l.33,0h1l.33,0h.33l.33,0,.36,0,.36,0,.44.07.4.07.51.15.47.11.69.22.62.22,1.06.47.69.36a14.79,14.79,0,0,1,2,1.38"/><path class="cls-10" d="M36.59,23.35l0,0-.18.29.22-.33M58.93,21.6l.65.76.62.91.51.91.51,1,.36.95.33,1.09.18,1,.15,1.16,0,1.09-.07,1.31-.15,1.09L61.8,34l-.33,1L61,36.15l-.47.91-.62,1-.62.84-.84.95-.69.65-1.09.91-.76.51-1.53.84L53,43.32Q61.15,40,59.76,30.41a14.87,14.87,0,0,0-9.82-10.77q-7.75-2.91-13.24,3.49l.58-.84.76-.91.69-.69,1-.87.76-.55q.69-.44,1.38-.8l.73-.36a14.73,14.73,0,0,1,3.35-1l.47-.07.4-.07.36,0h.33l.36,0h1l.33,0h.33l.33,0,.36,0,.36,0,.44.07.4.07.51.15.47.11.69.22.58.22,1.09.47.69.36a13.12,13.12,0,0,1,2,1.38l.73.62.8.87"/><path class="cls-3" d="M50.92,24.95q5.53,4.58,4.87,10.62t-6.91,7.71l-.22,0-.51,0q-.25,0-.22.15l-.51,0a11.57,11.57,0,0,1-8.55-3.06,12.52,12.52,0,0,1-4-7.38q-.55-7,4.62-9.6t11.42,1.53"/><path class="cls-11" d="M44.37,43.14a11.64,11.64,0,0,1-7.24-4.84,11.34,11.34,0,0,1-2.07-8.4q1.67-6.26,7.71-6.84t10.48,5.09q3.82,6.22,1,11.06t-9.86,3.93"/><path class="cls-12" d="M42.85,42.59a11.74,11.74,0,0,1-6.77-6.15,9.83,9.83,0,0,1-.44-7.89q3.16-6,9.31-5a12.1,12.1,0,0,1,9.13,7.09q2.22,6-1.38,9.82t-9.86,2.11"/><path class="cls-13" d="M41.46,41.87a11.47,11.47,0,0,1-5.31-5.64,9.35,9.35,0,0,1-.07-7.89,8.08,8.08,0,0,1,9-4.22q6,1,8.69,7.17,1.93,6.55-2.33,9.79t-10,.8"/><path class="cls-14" d="M41.43,41.68a11.11,11.11,0,0,1-5.49-6.18,8.89,8.89,0,0,1,.69-7.64,8,8,0,0,1,9.09-3.27q5.64,1.42,7.89,7.53Q54.92,37.86,51,41t-9.57.69"/><path class="cls-15" d="M40.23,40.77A10.4,10.4,0,0,1,36,35.06a8.49,8.49,0,0,1,.58-6.55Q40,23.6,45.68,25t7.57,7.64q.95,6-3.31,8.66t-9.71-.55"/><path class="cls-16" d="M40.3,40.63A9.85,9.85,0,0,1,36.19,35,7.78,7.78,0,0,1,37.43,28a8,8,0,0,1,8.88-2.36q5.31,1.6,6.66,7.93.4,5.24-3.71,7.53t-8.95-.51"/><path class="cls-17" d="M39.61,39.9a9.24,9.24,0,0,1-3.42-6,7.22,7.22,0,0,1,1.82-6,8.34,8.34,0,0,1,8.73-1.6q5,1.67,5.78,7.24-.07,5.93-4.33,7.68T39.61,39.9"/><path class="cls-18" d="M39.35,39.39a9.34,9.34,0,0,1-2.73-4.62A7.12,7.12,0,0,1,38,28.51q3.27-3.49,8.29-2t5.86,7Q52.23,39,48,41t-8.66-1.56"/><path class="cls-19" d="M39.57,39.21a8.58,8.58,0,0,1-2.69-4.69A6.6,6.6,0,0,1,38,29.13a7.45,7.45,0,0,1,8.26-2.29,7.63,7.63,0,0,1,5.6,6.62,7.31,7.31,0,0,1-3.93,7q-3.93,2.15-8.4-1.27"/><path class="cls-20" d="M39.79,39a7.37,7.37,0,0,1-2.66-4.73,6.23,6.23,0,0,1,1-4.51q3.64-4.11,8.15-2.62a7.36,7.36,0,0,1,5.27,6.29,7.12,7.12,0,0,1-3.6,6.48q-3.71,2.29-8.15-.91"/><path class="cls-21" d="M40.12,38.88A6.93,6.93,0,0,1,37.5,34.3a6.25,6.25,0,0,1,1.09-4.44,7.18,7.18,0,0,1,2.76-2.07,7.28,7.28,0,0,1,4.95-.29A6.7,6.7,0,0,1,50,30.26a7.25,7.25,0,0,1,1.24,3.16,6.87,6.87,0,0,1-3.46,6.11q-3.53,2.22-7.68-.65"/><path class="cls-22" d="M39.35,37.61a6.38,6.38,0,0,1-1.46-4.69,5.9,5.9,0,0,1,3-4.47q4-2.07,7.24.25a6.09,6.09,0,0,1,2.69,6.15,6.71,6.71,0,0,1-4.73,4.95q-3.64,1.09-6.73-2.18"/><path class="cls-23" d="M39.75,37.43a5.92,5.92,0,0,1-1.49-3.86A5.37,5.37,0,0,1,40,29.5a6.57,6.57,0,0,1,6.73-1.35,5.7,5.7,0,0,1,3.86,5.24,5.8,5.8,0,0,1-4,5.64,6.14,6.14,0,0,1-6.88-1.6"/><path class="cls-24" d="M40.19,37.28a6.17,6.17,0,0,1-1.42-3.38q-.36-2.33,1.89-4.55a5.94,5.94,0,0,1,6.15-.87,5.37,5.37,0,0,1-.15,10.19,5.87,5.87,0,0,1-6.48-1.38"/><path class="cls-25" d="M39.32,31.93a5.13,5.13,0,0,1,2.47-3q3.64-1.46,6.26.65A4.83,4.83,0,0,1,50,34.84a5.53,5.53,0,0,1-4.4,3.82,5.44,5.44,0,0,1-5.38-2.11,5.09,5.09,0,0,1-.87-4.62"/><path class="cls-26" d="M41.14,37a5.06,5.06,0,0,1-1.53-2.69Q39,32.33,41.1,30q3.27-2.26,5.24-1.2l1.16.76,1.13.73A4.19,4.19,0,0,1,50,33.35a5,5,0,0,1-3.06,4.44,5.35,5.35,0,0,1-5.78-.8"/><path class="cls-1" d="M48.34,30.26l1,1.27a3.9,3.9,0,0,1,.22,3.27,4.93,4.93,0,0,1-2,2.29,4.8,4.8,0,0,1-2,.8,5.63,5.63,0,0,1-5-2.26q-1.89-3.24,1.35-6.11L43,29.1,44,28.73l2.29.25,2,1.27"/><path class="cls-1" d="M40.37,32.15a5.68,5.68,0,0,1,.76-1.6A5.09,5.09,0,0,1,44.52,29l1.82.22a6.44,6.44,0,0,1,1.6,1.05,4.05,4.05,0,0,1,1.6,3.13,4.14,4.14,0,0,1-1.27,2.87l-1.35,1-3.16.25a5.17,5.17,0,0,1-2.87-2,3.84,3.84,0,0,1-.51-3.38"/><path class="cls-1" d="M49,34.81,48.16,36a4,4,0,0,1-2.84,1.31,4.4,4.4,0,0,1-3.2-1l-1-1.2a3.44,3.44,0,0,1-.36-3.38,3.05,3.05,0,0,1,2.29-2.22,3.74,3.74,0,0,1,1.27-.4l2,.22a3.32,3.32,0,0,1,1.42.91q2.4,2.62,1.27,4.51"/><path class="cls-1" d="M46.34,29.57l1.53,1.09a3.81,3.81,0,0,1,1.27,2.66A3.64,3.64,0,0,1,48,35.83l-1.16.91-1.71.36-1.67-.29a8,8,0,0,1-1.93-1.42,4.41,4.41,0,0,1-.69-1.49,3.74,3.74,0,0,1,.69-3.13A4.5,4.5,0,0,1,43,29.82L44,29.35l1.13.11,1.16.11"/><path class="cls-1" d="M48.52,31.79l.22.76.18.76-.18.73-.18.73-.76.84-1,.87-1.53.33-1.78-.33-1.67-1.13A3.41,3.41,0,0,1,41,33.64a3.74,3.74,0,0,1,.91-2.91A8.21,8.21,0,0,1,43,30.08l1-.55,1.16.11,1.13.11a4.73,4.73,0,0,1,1.46,1.13l.73.91"/><path class="cls-1" d="M48.3,31.82l.22.76.18.76-.4,1.46-.76.73-.73.73-1.67.4a4.86,4.86,0,0,1-3.06-1.35,3.64,3.64,0,0,1-.8-1.53A3.26,3.26,0,0,1,42,31a6.88,6.88,0,0,1,2.07-1.27l1.13.11,1.13.11,1.24,1,.73.84"/><path class="cls-1" d="M48.12,31.82a2.93,2.93,0,0,1,.4,1.49A3,3,0,0,1,48,34.81,3,3,0,0,1,46.81,36l-1.71.36a5.59,5.59,0,0,1-2.69-1.16q-1.31-1.56-.84-2.8a3.38,3.38,0,0,1,1.27-1.82,3.13,3.13,0,0,1,1.27-.69l1.13.11,1.13.15,1,.87.73.76"/><path class="cls-1" d="M47.9,31.82a2.93,2.93,0,0,1,.4,1.49,3.09,3.09,0,0,1-.51,1.46,2.3,2.3,0,0,1-1,1l-1.75.4-1-.33a4.62,4.62,0,0,1-1.31-.65,4.28,4.28,0,0,1-.87-1.35,3.77,3.77,0,0,1,0-1.56,2.9,2.9,0,0,1,.76-1.09l.76-.65a1.86,1.86,0,0,1,.8-.44l1.2.11,1.09.15a4.5,4.5,0,0,1,1.49,1.46"/><path class="cls-1" d="M48.09,33.35l-.4,1.09a2.14,2.14,0,0,1-.95,1.16L45,36l-2-.84L42.85,35,42,33.83a4,4,0,0,1,0-1.53,4,4,0,0,1,.91-1l.84-.76.36-.18,1.27.15,1,.15,1.27,1.2a2.93,2.93,0,0,1,.44,1.53"/><path class="cls-1" d="M47.87,33.32a4.16,4.16,0,0,1-.58,1.49l-.58.55-1.78.4a2.55,2.55,0,0,1-1.56-.65l-.69-.73-.4-.58,0-1.56.91-.87.91-.84,1.13.15,1.13.18,1.06,1a2.87,2.87,0,0,1,.44,1.49"/><path class="cls-1" d="M47,34.81l-.36.33-1.78.4a2.25,2.25,0,0,1-1.16-.47,3.53,3.53,0,0,1-1.2-1.35,3.29,3.29,0,0,1,.07-1.53l.76-.73.8-.73,1.13.15,1.09.18.84.76a2.74,2.74,0,0,1,.44,1.49L47,34.81"/><path class="cls-1" d="M47.14,34.12l-.47.84-1.82.4a1.28,1.28,0,0,1-.76-.33,3.47,3.47,0,0,1-1.27-1.31,2.07,2.07,0,0,1,.07-1.53A2.73,2.73,0,0,1,44.19,31l1.13.15,1.09.18.58.55a3,3,0,0,1,.47,1.49l-.33.76"/><path class="cls-1" d="M46.81,31.86a2.74,2.74,0,0,1,.44,1.49,2.13,2.13,0,0,1-.58,1.27l-1.86.51a.58.58,0,0,1-.36-.15,4,4,0,0,1-1.38-1.31,2.48,2.48,0,0,1,.15-1.56,2,2,0,0,1,1-.91l1.09.15,1.16.15.36.36"/><path class="cls-1" d="M44.23,31.42l1,.11,1.24.18.15.15A2.63,2.63,0,0,1,47,33.35l-.4.91-1.89.62a2.18,2.18,0,0,1-1.38-1.27,2.39,2.39,0,0,1,.15-1.53,1.37,1.37,0,0,1,.73-.65"/><path class="cls-1" d="M44.7,34.55a1.77,1.77,0,0,1-1.06-.95A2.72,2.72,0,0,1,43.83,32l.44-.4A3.87,3.87,0,0,1,46,31.9l.51.33q.47.44.11,1.67l-1.89.65"/><path class="cls-1" d="M44.63,34.23a1.22,1.22,0,0,1-.73-.65A3.55,3.55,0,0,1,44.12,32l.15-.15q.07-.47,2.26,1.2l0,.44-1.93.73"/><path class="cls-1" d="M44.56,33.86l-.36-.33a2.83,2.83,0,0,1,.15-1.09l1.42.95a2.66,2.66,0,0,1-1.2.47"/><path class="cls-1" d="M44.52,33.53h0v-.07l.07,0,0,0"/><path class="cls-31" d="M62.05,33.45l-.62,2.21a10.78,10.78,0,0,1-.95,2.09l-1.16,1.76-.8,1-1.82,1.61a13.88,13.88,0,0,1-4.37,2.17l-5.75.41L43.76,44l-.95-.37-.8-.37-.62-.34-1.2-.79-1.67-1.46L37.1,39,36,37.08A11.35,11.35,0,0,1,35.13,35L34.7,33a13.72,13.72,0,0,1,0-4.52l.55-2.17a11,11,0,0,1,.87-2.06A15.22,15.22,0,0,1,38,21.49a15.29,15.29,0,0,1,2.22-2,13.28,13.28,0,0,1,4.66-2.21,14.6,14.6,0,0,1,8.15.37,13.83,13.83,0,0,1,4.47,2.58,14.41,14.41,0,0,1,2,2.24l1.16,1.87.84,2a14.48,14.48,0,0,1,.69,3.36l0,1.35-.25,2.36M48,44.18l.55,0,.22-.15-.58,0q-.33,0-.18.15a10.3,10.3,0,0,1-6-.93,10.3,10.3,0,0,0,6,.93"/><path class="cls-29" d="M62.05,33.45l-.62,2.21a10.78,10.78,0,0,1-.95,2.09l-1.16,1.76-.8,1-1.82,1.61a13.88,13.88,0,0,1-4.37,2.17l-5.75.41L43.76,44l-.95-.37-.8-.37-.62-.34-1.2-.79-1.67-1.46L37.1,39,36,37.08A11.35,11.35,0,0,1,35.13,35L34.7,33a13.72,13.72,0,0,1,0-4.52l.55-2.17a11,11,0,0,1,.87-2.06A15.22,15.22,0,0,1,38,21.49a15.29,15.29,0,0,1,2.22-2,13.28,13.28,0,0,1,4.66-2.21,14.6,14.6,0,0,1,8.15.37,13.83,13.83,0,0,1,4.47,2.58,14.41,14.41,0,0,1,2,2.24l1.16,1.87.84,2a14.48,14.48,0,0,1,.69,3.36l0,1.35-.25,2.36M48,44.18q-.15-.11.18-.15l.58,0-.22.15-.55,0a10.3,10.3,0,0,1-6-.93"/><text class="cls-32" transform="translate(43 36.77)">C</text></g></svg>