<?xml version="1.0" encoding="UTF-8" standalone="no"?>
<svg xmlns:xlink="http://www.w3.org/1999/xlink" height="259.1px" width="228.5px" xmlns="http://www.w3.org/2000/svg">
  <g transform="matrix(1.0, 0.0, 0.0, 1.0, 0.0, 0.0)">
    <path d="M124.05 200.8 L121.55 205.35 121.15 207.85 121.15 209.5 122.4 213.7 121.95 216.2 119.45 221.6 115.3 228.25 114.85 229.95 114.45 234.1 114.45 236.15 115.3 240.35 116.55 241.6 118.2 242.85 120.3 243.25 125.75 242.4 135.35 239.5 137.0 233.25 137.0 226.6 136.6 223.25 134.5 215.75 131.15 208.7 130.35 205.8 130.35 199.95 131.15 198.3 130.75 197.85 129.9 197.85 127.8 198.3 126.15 199.1 124.05 200.8" fill="#418265" fill-rule="evenodd" stroke="none"/>
    <path d="M60.15 138.75 L57.65 138.75 56.0 139.15 53.9 140.8 51.8 142.9 50.95 145.0 50.55 147.9 51.8 156.65 53.9 162.9 59.3 174.15 62.65 182.85 63.5 186.6 63.1 193.7 61.85 197.85 53.45 219.95 51.4 234.1 49.7 237.4 48.9 240.35 48.9 243.25 53.45 242.4 54.3 242.0 54.75 241.15 54.75 242.4 55.55 246.15 58.5 246.15 60.15 245.75 61.4 244.9 61.85 244.1 62.65 245.75 63.9 247.0 66.0 247.85 68.5 245.35 68.95 244.5 68.95 243.25 70.6 244.5 72.25 245.35 73.5 245.35 73.95 244.5 73.95 244.1 72.7 239.1 72.7 232.45 73.5 224.95 78.1 213.7 81.9 206.2 84.4 199.95 84.8 199.55 85.65 197.85 86.9 192.85 86.05 165.4 85.2 159.95 83.95 157.9 77.3 149.95 72.7 145.8 67.7 142.05 64.75 140.4 60.15 138.75" fill="#46885d" fill-rule="evenodd" stroke="none"/>
    <path d="M7.1 8.75 L5.85 10.4 0.85 13.35 0.0 14.15 0.0 15.4 1.25 17.9 2.1 18.35 2.5 18.75 4.2 18.35 5.85 17.5 8.8 15.0 9.6 14.6 10.45 14.6 10.45 15.0 10.85 15.4 10.45 16.65 10.45 17.5 9.6 17.9 4.2 21.65 5.0 23.35 5.45 23.35 6.3 23.75 7.95 23.35 13.8 21.25 15.9 21.25 22.55 22.1 23.8 22.5 24.65 22.9 25.05 23.75 25.9 25.0 31.75 57.9 41.8 122.45 44.7 134.15 49.7 147.05 53.45 154.95 57.65 160.8 61.4 164.95 76.05 175.8 86.05 188.7 88.55 191.2 96.5 197.05 114.05 204.95 122.8 206.6 136.6 207.45 145.35 207.0 159.15 204.95 164.6 203.7 166.25 202.45 168.35 201.6 170.4 201.2 172.95 201.2 179.6 202.85 185.05 204.95 196.3 207.45 207.6 209.1 216.8 209.1 223.9 208.25 224.7 207.45 224.7 207.0 224.3 207.0 216.35 205.8 203.85 199.95 191.75 190.8 184.2 183.7 170.85 169.15 160.4 155.8 154.95 149.95 149.1 144.55 143.3 140.0 137.0 135.8 123.65 128.75 86.9 117.05 78.55 112.85 74.8 109.95 73.1 107.85 69.35 100.8 60.15 72.05 46.8 24.15 43.85 17.1 40.1 11.65 36.35 7.5 32.6 5.0 26.35 2.1 15.45 0.45 12.95 0.45 10.85 1.25 8.35 3.75 7.95 5.0 7.95 6.25 7.55 7.9 7.1 8.75" fill="#5c966b" fill-rule="evenodd" stroke="none"/>
    <path d="M39.25 58.3 L40.55 70.4 44.7 99.1 49.7 123.25 51.8 130.4 56.4 142.9 61.0 152.9 65.6 160.4 69.75 165.8 75.6 171.65 76.45 172.05 71.85 164.95 67.7 157.45 64.35 149.95 56.4 125.8 52.2 108.3 43.05 62.5 38.0 35.0 39.25 58.3" fill="#4a886a" fill-rule="evenodd" stroke="none"/>
    <path d="M18.4 21.65 L19.25 22.5 20.5 23.35 21.75 27.5 25.9 35.0 28.85 41.25 30.1 46.25 28.85 25.4 29.25 23.35 30.5 19.15 30.5 15.85 30.1 14.15 29.25 12.5 26.35 9.6 27.15 10.85 28.0 12.9 28.4 14.6 28.4 15.85 27.15 17.1 25.5 17.9 13.8 21.25 17.15 21.25 18.4 21.65" fill="#31785b" fill-rule="evenodd" stroke="none"/>
    <path d="M169.15 183.7 L158.75 174.95 155.8 173.3 154.55 172.9 153.3 173.3 152.45 173.7 149.95 178.3 147.85 181.2 144.1 184.55 139.1 187.45 136.15 188.7 128.65 190.35 114.05 189.55 103.2 186.2 98.15 184.1 93.55 181.6 85.2 175.8 78.1 169.95 68.5 159.55 65.15 154.95 69.75 164.55 79.8 180.8 88.55 190.8 93.55 195.35 106.95 203.7 115.3 207.0 119.9 208.25 134.9 210.35 145.8 209.5 155.8 207.85 172.95 204.1 175.85 204.1 180.05 204.55 204.25 209.5 215.1 210.35 219.7 209.95 224.3 208.7 228.5 207.0 226.8 207.0 215.55 207.85 207.6 207.0 198.85 204.1 189.65 199.55 175.0 189.55 169.15 183.7" fill="#4a886a" fill-rule="evenodd" stroke="none"/>
    <path d="M65.15 165.8 L65.15 167.05 71.85 172.05 95.65 193.3 98.15 194.95 106.95 199.1 110.3 199.55 114.05 199.55 114.05 199.1 111.55 199.1 109.05 198.7 104.85 197.05 100.65 194.55 93.55 188.7 79.8 174.15 75.6 170.8 71.0 167.9 66.0 165.4 65.6 165.4 65.15 165.8" fill="#5c966b" fill-rule="evenodd" stroke="none"/>
    <path d="M150.4 155.4 L147.85 157.05 146.6 158.7 145.8 159.55 142.0 167.05 139.1 177.05 138.7 189.55 140.35 199.1 144.55 209.5 156.2 229.5 162.5 239.1 161.65 239.5 159.55 241.6 158.75 243.25 158.3 244.9 157.9 247.4 160.4 247.4 161.25 252.0 162.05 252.4 163.3 252.4 167.1 250.35 167.9 253.25 172.1 252.85 175.45 252.0 178.35 250.35 180.45 247.85 183.8 242.85 184.65 238.25 184.65 235.35 181.7 224.5 177.95 216.2 173.35 208.7 166.25 201.2 163.3 196.2 162.9 194.1 162.9 191.6 163.3 189.55 167.1 184.95 168.75 180.8 167.9 175.8 165.85 171.2 158.3 160.4 156.2 157.9 153.7 155.8 152.45 155.4 150.4 155.4" fill="#669c72" fill-rule="evenodd" stroke="none"/>
    <path d="M152.05 162.05 L151.2 162.45 148.3 165.8 144.95 173.7 142.85 182.45 142.45 186.2 142.85 189.1 143.3 190.35 144.1 191.2 145.8 192.05 146.6 192.05 148.7 191.2 149.95 190.35 152.45 187.45 156.65 179.1 157.5 174.95 157.5 169.15 157.05 167.05 156.2 165.8 155.8 164.55 154.95 162.9 154.15 162.05 152.05 162.05" fill="#73a37a" fill-rule="evenodd" stroke="none"/>
    <path d="M11.3 0.85 L10.05 1.7 9.2 2.5 8.35 3.75 7.55 6.25 7.55 9.15 7.95 9.6 8.8 9.6 12.1 5.45 13.8 3.75 16.7 2.95 19.65 2.95 22.55 3.35 28.85 3.35 28.85 2.95 20.9 0.45 16.7 0.0 14.65 0.0 11.3 0.85" fill="#73a37a" fill-rule="evenodd" stroke="none"/>
    <path d="M99.4 136.25 L95.25 137.05 93.15 137.9 91.5 139.15 89.8 140.8 86.45 145.0 83.95 151.65 83.95 158.3 84.4 160.8 86.9 166.2 105.25 201.6 106.1 203.7 106.95 207.85 106.5 209.95 105.7 221.6 105.7 236.15 104.85 244.9 103.2 248.25 102.75 249.9 102.35 252.85 103.6 252.85 105.7 251.6 105.7 252.4 104.85 254.1 104.85 255.75 105.7 257.4 108.2 257.4 109.85 257.0 109.85 258.25 110.3 258.65 111.1 259.1 114.45 258.25 116.15 257.0 116.95 257.4 118.2 257.85 120.7 256.6 121.95 255.35 123.65 254.1 124.05 247.85 123.65 238.25 126.55 225.75 129.5 209.95 129.5 203.7 129.9 202.05 129.9 200.8 129.5 199.1 124.9 191.2 123.65 188.3 122.8 184.95 122.8 182.05 123.65 179.1 125.75 176.2 128.65 169.55 129.5 161.65 128.65 157.9 127.0 153.3 119.9 144.55 115.7 141.25 111.1 138.75 104.0 136.25 99.4 136.25" fill="#669c72" fill-rule="evenodd" stroke="none"/>
    <path d="M100.25 145.0 L96.5 146.65 94.8 147.9 93.15 149.55 91.9 151.2 91.05 153.7 90.65 156.2 91.05 159.15 91.9 162.45 93.55 166.65 101.5 181.2 111.55 197.45 115.3 205.35 115.7 208.25 115.7 209.95 116.55 211.6 117.4 212.45 117.8 212.45 118.65 212.85 120.3 212.0 121.15 210.75 121.55 209.95 122.4 206.6 122.4 204.55 121.55 199.55 114.85 179.95 112.8 167.9 114.45 162.45 116.15 159.95 117.4 153.7 116.95 150.4 116.15 147.5 115.3 146.25 114.45 145.4 113.2 144.55 111.55 143.75 109.85 143.3 107.75 143.3 100.25 145.0" fill="#73a37a" fill-rule="evenodd" stroke="none"/>
    <path d="M1.7 14.6 L1.7 15.4 2.1 15.4 2.5 15.0 2.95 15.0 2.5 14.15 2.1 14.15 1.7 14.6" fill="#050905" fill-rule="evenodd" stroke="none"/>
    <path d="M140.35 164.15 L139.95 164.15 138.7 174.15 138.25 188.3 139.5 197.85 142.45 207.85 144.55 213.25 149.55 222.85 155.8 232.0 163.75 240.35 164.15 239.9 164.15 239.1 152.45 221.6 147.05 212.0 143.3 202.05 140.75 192.85 139.5 173.7 140.35 164.15" fill="#31785b" fill-rule="evenodd" stroke="none"/>
    <path d="M83.95 144.55 L83.55 144.55 82.7 150.4 82.7 156.2 85.65 167.05 91.05 177.05 99.4 190.8 103.6 202.05 104.45 205.8 104.85 218.25 103.2 232.0 103.2 244.5 102.75 248.25 101.1 252.4 101.5 252.85 101.95 252.85 104.85 246.15 106.1 238.65 106.1 231.2 107.35 216.6 107.35 209.5 106.5 202.45 105.7 199.1 104.45 195.8 97.35 183.3 93.15 177.45 89.4 171.2 84.8 162.05 83.15 155.4 83.15 148.3 83.95 144.55" fill="#31785b" fill-rule="evenodd" stroke="none"/>
    <path d="M65.6 91.2 L65.6 91.65 67.7 97.85 70.6 104.1 74.35 109.95 79.35 114.95 83.15 117.45 94.8 122.85 111.1 127.9 126.55 135.0 131.6 137.9 149.55 151.65 177.95 180.8 178.35 180.8 178.8 180.35 178.8 179.95 159.55 156.2 152.45 149.15 145.35 142.9 129.9 132.9 117.4 126.65 94.4 119.55 89.8 117.85 82.3 113.7 78.95 111.2 73.5 105.35 68.95 98.7 65.6 91.2" fill="#4a886a" fill-rule="evenodd" stroke="none"/>
    <path d="M15.45 4.2 L13.8 4.6 12.1 5.45 10.45 7.9 10.45 9.6 10.85 10.0 12.95 10.0 13.8 9.15 14.2 8.35 14.65 7.9 15.9 7.9 18.8 7.5 21.3 6.25 22.15 5.45 22.15 5.0 20.05 5.0 18.4 4.2 15.45 4.2" fill="#31785b" fill-rule="evenodd" stroke="none"/>
    <path d="M12.55 6.7 L12.1 7.5 12.1 9.15 12.55 9.6 13.4 10.0 14.65 10.0 15.45 9.6 15.9 9.15 15.9 7.5 15.45 6.7 14.65 6.7 13.8 6.25 13.4 6.7 12.55 6.7" fill="#050905" fill-rule="evenodd" stroke="none"/>
    <path d="M14.2 7.5 L14.2 8.35 15.05 8.35 15.05 7.5 14.65 7.1 14.2 7.5" fill="#dbf1cf" fill-rule="evenodd" stroke="none"/>
    <path d="M14.2 7.1 L15.9 7.1 16.7 6.25 17.15 5.45 16.3 6.25 Q15.85 6.5 15.45 6.7 L14.2 6.7 14.2 7.1" fill="#050905" fill-rule="evenodd" stroke="none"/>
  </g>
</svg>
