<?xml version="1.0" encoding="UTF-8" standalone="no"?>
<svg xmlns:xlink="http://www.w3.org/1999/xlink" height="600.05px" width="803.4px" xmlns="http://www.w3.org/2000/svg">
  <g transform="matrix(1.0, 0.0, 0.0, 1.0, 402.4, 301.85)">
    <path d="M398.6 -301.85 L398.6 107.35 -401.4 107.35 -401.4 -301.85 398.6 -301.85" fill="#dbdbe0" fill-rule="evenodd" stroke="none"/>
    <path d="M238.65 22.15 L398.6 9.2 398.6 118.6 -400.55 206.15 -400.55 50.3 -247.45 38.55 -91.8 34.55 181.6 18.15 238.65 22.15" fill="#9eb7c6" fill-rule="evenodd" stroke="none"/>
    <path d="M261.4 59.0 L317.95 66.75 398.6 66.75 398.6 154.3 -399.4 210.15 -401.4 97.7 -199.15 91.15 81.7 42.55 153.25 50.3 261.4 59.0" fill="#519e9e" fill-rule="evenodd" stroke="none"/>
    <path d="M398.6 105.7 L398.6 297.0 -400.55 298.2 -401.05 138.55 -327.55 114.15 -308.8 119.3 -306.5 135.75 -278.1 138.55 -231.0 122.15 -240.65 138.55 -221.9 132.7 -184.4 124.95 -188.7 141.4 -160.85 141.4 -97.8 135.75 -55.5 124.95 31.45 135.75 160.85 144.2 210.3 122.15 203.15 144.2 231.35 141.4 271.35 132.7 327.9 103.35 372.7 94.9 398.6 105.7" fill="#637549" fill-rule="evenodd" stroke="none"/>
    <path d="M-333.2 14.4 L-301.7 22.15 -293.2 50.3 -324.4 59.0 Q-331.2 54.75 -338.0 50.3 L-349.65 65.55 -349.65 79.15 -347.95 91.15 Q-338.2 85.25 -328.4 79.15 L-334.35 73.05 -322.75 69.55 -276.15 69.55 -279.8 84.35 -328.4 87.15 -341.5 92.1 -347.95 97.25 -349.65 115.8 -337.2 110.85 -333.55 100.55 -319.6 97.25 -300.85 103.35 -309.65 114.85 -327.55 113.7 -336.35 114.85 -351.6 119.8 Q-356.25 128.7 -361.05 137.4 -362.4 145.15 -363.9 152.65 L-372.7 152.65 -372.7 139.5 -352.8 103.35 -352.8 74.7 -378.65 74.7 -375.85 98.9 -392.6 94.9 -392.6 54.3 -372.7 30.1 -349.95 59.0 -355.95 18.15 -333.2 14.4" fill="#775b33" fill-rule="evenodd" stroke="none"/>
    <path d="M241.8 26.1 L246.15 54.3 229.4 62.75 222.25 54.3 218.25 82.0 219.9 88.3 221.9 89.95 227.4 83.65 224.25 77.55 230.2 73.55 255.4 73.55 253.75 88.8 227.4 91.15 220.25 96.05 221.4 108.05 216.6 111.35 215.75 119.8 Q219.25 117.65 222.55 115.3 L224.55 105.25 232.2 101.25 242.15 107.35 237.35 118.6 227.9 117.65 223.05 118.6 215.1 123.75 209.8 141.4 213.1 165.55 202.65 165.1 203.5 143.5 214.3 107.35 211.45 96.8 207.15 100.55 201.85 103.35 192.7 98.9 192.7 59.0 203.5 34.55 215.75 62.75 212.6 22.15 225.05 18.15 241.8 26.1" fill="#775b33" fill-rule="evenodd" stroke="none"/>
    <path d="M270.5 26.1 L291.6 62.75 274.85 70.7 267.7 62.75 267.35 89.95 265.7 90.45 267.35 91.6 267.35 97.7 272.85 91.6 269.7 85.5 275.65 81.5 301.2 81.5 299.2 96.8 272.85 98.9 265.7 104.05 262.55 109.2 261.75 128.25 268.2 123.3 270.2 112.95 277.65 109.2 287.6 115.3 282.95 127.05 273.35 125.4 268.55 127.05 260.55 131.75 255.4 149.85 254.1 165.1 249.45 165.1 248.95 151.95 259.75 115.3 259.75 87.15 246.15 87.15 244.15 97.25 237.85 92.1 238.65 66.75 246.65 52.65 261.4 70.7 260.55 44.65 270.5 26.1" fill="#775b33" fill-rule="evenodd" stroke="none"/>
    <path d="M396.0 214.0 L397.0 229.0 398.0 228.0 397.0 254.0 398.0 268.0 401.0 295.95 87.0 294.95 -40.0 294.95 -166.0 297.95 -191.9 297.2 -400.95 296.95 -402.4 244.6 -398.95 211.0 -398.95 210.0 -339.85 208.0 -240.15 200.0 -81.25 200.0 -32.95 204.0 84.0 206.0 168.95 215.95 172.0 213.0 204.0 212.0 254.0 215.0 344.0 211.0 372.0 213.0 396.0 214.0" fill="#775b33" fill-rule="evenodd" stroke="none"/>
    <path d="M-47.7 52.45 L-53.35 61.95 -40.05 67.35 -40.05 84.3 -57.15 84.3 Q-58.85 79.6 -60.7 74.85 L-75.85 74.85 -83.1 54.3 -66.35 37.35 -45.85 37.35 -47.7 52.45" fill="#51ce2b" fill-rule="evenodd" stroke="none"/>
    <path d="M80.4 -102.65 L103.3 -115.55 111.2 -109.9 115.0 -106.35 132.65 -105.15 144.1 -115.55 160.55 -116.75 162.15 -107.7 177.0 -102.65 Q185.95 -106.35 194.75 -110.2 L211.25 -101.1 219.4 -90.95 219.4 -80.55 208.05 -80.55 209.65 -49.25 194.75 -45.15 181.75 -48.05 167.15 -60.95 147.55 -68.6 149.1 -53.05 175.05 -33.45 175.05 -18.05 167.15 -3.4 155.4 -12.65 142.55 -7.65 142.55 2.75 127.9 8.15 119.75 2.75 109.9 4.1 109.9 17.4 96.85 19.9 64.35 14.5 59.2 2.75 72.25 -15.15 Q64.2 -21.05 56.05 -27.1 L46.3 -27.1 72.25 -43.85 93.45 -48.05 90.3 -63.45 78.85 -64.75 46.3 -73.85 36.45 -73.85 34.85 -60.95 44.75 -49.25 41.2 -38.85 28.3 -34.75 3.95 -37.65 0.4 -53.05 -17.4 -51.75 -43.55 -48.05 Q-50.0 -45.3 -56.6 -42.65 L-56.6 -29.75 -46.75 -28.45 -46.75 -18.05 -58.2 -18.05 -58.2 4.1 -74.65 8.15 -82.8 2.75 -90.7 4.1 -97.4 12.0 -105.55 10.65 -113.85 -0.9 -121.75 -0.9 -128.45 -11.3 Q-135.7 -14.6 -142.95 -18.05 -149.5 -15.25 -156.25 -12.65 L-166.1 -15.15 -172.4 -25.55 -182.15 -32.25 -174.0 -46.45 -187.3 -54.35 -187.3 -73.85 Q-180.6 -76.35 -174.0 -79.0 L-146.5 -75.15 -146.5 -94.8 Q-143.85 -99.9 -141.35 -105.15 L-128.45 -102.65 -121.75 -95.95 -77.8 -90.95 -66.35 -99.8 -43.55 -99.8 -38.55 -90.95 -37.0 -79.0 -43.55 -68.6 -28.7 -62.25 -14.2 -68.6 Q-11.7 -77.0 -9.35 -85.55 L0.4 -80.55 20.0 -80.55 20.0 -93.45 31.45 -98.45 15.25 -105.15 13.7 -123.45 18.4 -132.3 34.85 -131.0 60.8 -120.6 67.5 -105.15 80.4 -102.65" fill="#51ce2b" fill-rule="evenodd" stroke="none"/>
    <path d="M52.25 62.2 L74.35 56.55 101.9 73.25 104.5 87.2 79.75 78.65 93.35 95.35 85.15 111.8 60.4 98.25 60.4 84.3 43.95 78.65 33.3 92.6 11.05 109.3 -13.55 106.45 -18.95 89.7 -38.3 92.6 -38.3 111.8 -74.1 120.4 -82.25 100.75 -82.25 84.3 -54.75 75.9 -68.7 70.5 -82.25 73.25 -82.25 59.45 -71.2 45.5 -46.45 37.3 -41.05 53.75 -40.5 54.05 -38.55 55.35 -36.05 56.55 -32.9 57.45 -29.75 57.85 -27.25 57.2 -25.25 55.35 -24.6 51.15 8.3 51.15 13.95 70.5 30.4 39.8 52.25 62.2" fill="#51ce2b" fill-rule="evenodd" stroke="none"/>
  </g>
</svg>
