<svg xmlns="http://www.w3.org/2000/svg" xmlns:xlink="http://www.w3.org/1999/xlink" viewBox="0 0 96 96"><defs><style>.cls-1{fill:#fff;}.cls-2,.cls-5{fill:none;stroke-linecap:round;stroke-linejoin:round;}.cls-2{stroke:#000;}.cls-3{fill:#fc0;}.cls-4{fill:url(#radial-gradient);}.cls-5{stroke:#f7e914;stroke-width:2px;}.cls-6{fill:url(#radial-gradient-2);}</style><radialGradient id="radial-gradient" cx="9046.49" cy="-12005.35" r="818.71" gradientTransform="matrix(0.03, 0, 0, -0.03, -225.75, -310.3)" gradientUnits="userSpaceOnUse"><stop offset="0" stop-color="#fff"/><stop offset="0.47" stop-color="#f9e814"/><stop offset="0.98" stop-color="#f4c513"/></radialGradient><radialGradient id="radial-gradient-2" cx="16777.63" cy="-22353.7" r="819.2" gradientTransform="matrix(0.02, 0, 0, -0.02, -228.09, -316.2)" gradientUnits="userSpaceOnUse"><stop offset="0" stop-color="#fede13"/><stop offset="0.38" stop-color="#fbd304"/><stop offset="0.73" stop-color="#facc07"/><stop offset="1" stop-color="#fbb610"/></radialGradient></defs><title>lightenergy</title><g id="Layer_1" data-name="Layer 1"><path class="cls-1" d="M95.5,95.5H.5V.5h95v95"/><path class="cls-2" d="M95.5,95.5H.5V.5h95Z"/></g><g id="Layer_2" data-name="Layer 2"><path class="cls-3" d="M92,43.32l-15.6-1.4,8-13.35L92,43.32M72.77,56l8-13.35,7.65,14.75L72.77,56"/></g><g id="Layer_3" data-name="Layer 3"><path class="cls-4" d="M38,11.2a13.15,13.15,0,0,0,2.35-3.25,20.78,20.78,0,0,0-.7,4.8A4.72,4.72,0,0,0,41.48,17a5,5,0,0,0,4,.4,26.55,26.55,0,0,0,3.9-1.4,12.68,12.68,0,0,0-3.05,3.8,4.9,4.9,0,0,0-.1,4.7,6.86,6.86,0,0,0,6.2,2.5,38.17,38.17,0,0,0-4.25,1.5,3.14,3.14,0,0,0-2,3.5,8.8,8.8,0,0,0,1.65,3.85,4.9,4.9,0,0,0,2.6,1.5l-4.3-.3a4,4,0,0,0-3.65,1.35,5.38,5.38,0,0,0-.65,4.35A15.46,15.46,0,0,0,43.48,47a25,25,0,0,0-3.5-3,5.2,5.2,0,0,0-4.3-1.1,4.34,4.34,0,0,0-2.9,3.7,16.49,16.49,0,0,0,0,4.95,32,32,0,0,0-1.65-4.7,4.8,4.8,0,0,0-3.55-3.1,4.65,4.65,0,0,0-4,1.75,17.71,17.71,0,0,0-2.65,3.7l.45-5.65a6.24,6.24,0,0,0-1.55-4.35,4.14,4.14,0,0,0-3.9-.25,39,39,0,0,0-5.15,1.75,17.25,17.25,0,0,0,3.4-5A4.77,4.77,0,0,0,14,30.85a5.24,5.24,0,0,0-4.1-1.1l-3.6-.45,4-1.3a11.78,11.78,0,0,0,3.3-1.65,2.7,2.7,0,0,0,1.05-3.15,13.9,13.9,0,0,0-5.55-6.3l4.2,1.05,3.8.35a2.78,2.78,0,0,0,2.55-2.35,14,14,0,0,0-.85-5.9l2.95,2a5.36,5.36,0,0,0,3.55,1,4.33,4.33,0,0,0,3.6-3,14.23,14.23,0,0,0,.8-4.9l1.8,4.2a5.15,5.15,0,0,0,2.85,3.1A4.16,4.16,0,0,0,38,11.2"/><path class="cls-5" d="M38,11.2a4.16,4.16,0,0,1-3.65,1.2,5.15,5.15,0,0,1-2.85-3.1l-1.8-4.2a14.23,14.23,0,0,1-.8,4.9,4.33,4.33,0,0,1-3.6,3,5.36,5.36,0,0,1-3.55-1l-2.95-2a14,14,0,0,1,.85,5.9,2.78,2.78,0,0,1-2.55,2.35l-3.8-.35L9.08,16.9a13.9,13.9,0,0,1,5.55,6.3,2.7,2.7,0,0,1-1.05,3.15A11.78,11.78,0,0,1,10.28,28l-4,1.3,3.6.45a5.24,5.24,0,0,1,4.1,1.1,4.77,4.77,0,0,1,.15,4.85,17.25,17.25,0,0,1-3.4,5,39,39,0,0,1,5.15-1.75,4.14,4.14,0,0,1,3.9.25,6.24,6.24,0,0,1,1.55,4.35l-.45,5.65a17.71,17.71,0,0,1,2.65-3.7,4.65,4.65,0,0,1,4-1.75,4.8,4.8,0,0,1,3.55,3.1,32,32,0,0,1,1.65,4.7,16.49,16.49,0,0,1,0-4.95,4.34,4.34,0,0,1,2.9-3.7,5.2,5.2,0,0,1,4.3,1.1,25,25,0,0,1,3.5,3,15.46,15.46,0,0,1-1.65-4.25,5.38,5.38,0,0,1,.65-4.35,4,4,0,0,1,3.65-1.35l4.3.3a4.9,4.9,0,0,1-2.6-1.5A8.8,8.8,0,0,1,46.18,32a3.14,3.14,0,0,1,2-3.5A38.17,38.17,0,0,1,52.38,27a6.86,6.86,0,0,1-6.2-2.5,4.9,4.9,0,0,1,.1-4.7A12.68,12.68,0,0,1,49.33,16a26.55,26.55,0,0,1-3.9,1.4,5,5,0,0,1-4-.4,4.72,4.72,0,0,1-1.85-4.25,20.78,20.78,0,0,1,.7-4.8A13.15,13.15,0,0,1,38,11.2m-19.35-.9-.1-.25,0-.15.2.15L17.58,7.5"/><path class="cls-6" d="M39.18,36.95a12.55,12.55,0,0,1-17.8,0,12.55,12.55,0,0,1,0-17.8,12.55,12.55,0,0,1,17.8,0,12.55,12.55,0,0,1,0,17.8"/></g><g id="Layer_4" data-name="Layer 4"><path class="cls-3" d="M49.37,19.75l-7.1,3.8V21.7l7.5-4.7,1.45-.55,1.25-.1,1.05.6.8,1.2.25,1.5-.3,4.95.1,1.4.45,1.3,1.1,1,1.3.3,1.4-.3,1.55-.7,3-1.9L64.67,25,66,24.7l1.4.35.65.8.3,1.2-.3,6.2.15,1.15.65.7,1.5.55,1.65-.4,6.45-3.6,1.45-.35,1.25.3.85.8.55,1.15.25,2.95.4,1.1-2.5,2.05.85-1.15-.85.8-.4-3.4L80,34.7,79.52,34l-1.25-.3-1.5.35-6.45,3.7L68.77,38l-1.55-.45-.65-.75-.3-1.15.4-6.15-.35-1.1-.7-.9-1.25-.35-1.4.3-6,3.3-1.45.2-1.3-.25-1-1-.5-1.4.2-6.7-.35-1.4-1-1-.8,0-1.4.5"/><path class="cls-3" d="M64.42,39.95l.3,1.2-.3,6.2.15,1.15.65.7,1.5.55,1.65-.4,6.45-3.6,1.45-.35,1.25.3.85.8.55,1.15.25,3,.4,1.1-2.5,2.05.85-1.15-.85.8-.4-3.4-.35-1.2-.45-.65-1.25-.3-1.5.35-6.45,3.7-1.55.25-1.55-.45-.65-.75-.3-1.15.4-6.15-.35-1.1-.7-.9-1.25-.35-1.4.3-6,3.3-1.45.2-1.3-.25-1-1-.5-1.4.2-6.7-.35-1.4-1-.95-.8-.05-1.4.5-7.1,3.8V35.8l7.5-4.7,1.45-.55,1.25-.1,1,.6.8,1.2.25,1.5-.3,5,.1,1.4.45,1.3,1.1,1.05,1.3.3,1.4-.3,1.55-.7L61,39.1l1.35-.3,1.4.35.65.8"/></g></svg>