<svg xmlns="http://www.w3.org/2000/svg" viewBox="0 0 96 96"><defs><style>.cls-1{fill:#fff;}.cls-2,.cls-29{fill:none;stroke:#000;stroke-linecap:round;stroke-linejoin:round;}.cls-3{fill:#a8a8a8;}.cls-4{fill:#a3a3a3;}.cls-5{fill:#9e9e9e;}.cls-6{fill:#999;}.cls-7{fill:#949494;}.cls-8{fill:#8f8f8f;}.cls-9{fill:#8a8a8a;}.cls-10{fill:#858585;}.cls-11{fill:#adadad;}.cls-12{fill:#b2b2b2;}.cls-13{fill:#b8b8b8;}.cls-14{fill:#bdbdbd;}.cls-15{fill:#c2c2c2;}.cls-16{fill:#c7c7c7;}.cls-17{fill:#ccc;}.cls-18{fill:#d1d1d1;}.cls-19{fill:#d6d6d6;}.cls-20{fill:#dbdbdb;}.cls-21{fill:#e0e0e0;}.cls-22{fill:#e5e5e5;}.cls-23{fill:#ebebeb;}.cls-24{fill:#f0f0f0;}.cls-25{fill:#f5f5f5;}.cls-26{fill:#fafafa;}.cls-27{opacity:0.43;}.cls-28{fill:red;}.cls-29{stroke-opacity:0;stroke-width:0.05px;}.cls-30{font-size:24px;font-family:MyriadPro-Regular, Myriad Pro;}</style></defs><title>oxygen</title><g id="Layer_1" data-name="Layer 1"><path class="cls-1" d="M95.5,95.5H.5V.5h95v95"/><path class="cls-2" d="M95.5,95.5H.5V.5h95Z"/></g><g id="Layer_2" data-name="Layer 2"><path class="cls-3" d="M28.59,50.59l.8.1.25-.25-.8,0q-.45,0-.25.2m13.2-31.9a19.14,19.14,0,0,1,5.5,8.25,18.06,18.06,0,0,1,0,11.8A18,18,0,0,1,41.59,47q-9.15,6.8-19.35,3.15l-2.75-1.2a19.16,19.16,0,0,1-8.75-11A18.93,18.93,0,0,1,12.24,24a18.09,18.09,0,0,1,7.6-7.65,19.59,19.59,0,0,1,10.8-2.25q7.05.8,11.15,4.55"/><path class="cls-3" d="M28.84,50.34q-.45.1-.25.25l.75,0,.3-.2-.8-.1m12.7-31.85,1,.85,1.1,1.2.9,1.05.9,1.25.7,1.25.65,1.4.5,1.3.45,1.5.3,1.4.15,1.6.1,1.5-.1,1.8-.2,1.5-.4,1.55L47.09,39l-.6,1.5-.65,1.25L45,43.19l-.85,1.15L43,45.64l-1,.9-1.5,1.25-1,.7-2.1,1.15-1,.4-3.95,1.1-.65.1-.5,0-.55,0-.45,0H28.09l-.45,0-.5,0-.5,0-.5-.05-.55-.1L25,51l-.7-.15-.7-.2-1-.3-.8-.3-1.45-.6-.95-.55-1.65-1-1-.75-1.25-1.2-1-1-1-1.3-.8-1.15L12,41.09l-.6-1.3-.55-1.5-.4-1.45-.4-2.6,0-1.55,0-1.6.2-1.45.35-1.55.4-1.35.55-1.45.65-1.3.8-1.35.8-1.15,1-1.25,1-.95,1.4-1.2,1-.75q.95-.6,1.9-1.1l1-.5a21.25,21.25,0,0,1,4.6-1.35l.65-.1.55-.1.5,0h.5l.45-.05h1.35l.45.05h.45l.45,0,.5.05.5,0,.6.1.55.1.7.2.65.15,1,.3.8.3,1.5.65,1,.5a20.33,20.33,0,0,1,2.75,1.9"/><path class="cls-4" d="M41.54,18.49l1,.85,1.1,1.2.9,1.05.9,1.25.7,1.25.65,1.4.5,1.3.45,1.5.3,1.4.15,1.6.1,1.5-.1,1.8-.2,1.5-.4,1.55L47.09,39l-.6,1.5-.65,1.25L45,43.19l-.85,1.15L43,45.64l-1,.9-1.5,1.25-1,.7-2.1,1.15-1,.4-3.95,1.1-.65.1-.5,0-.55,0-.45,0H28.09l-.45,0-.5,0-.5,0-.5-.05-.55-.1L25,51l-.7-.15-.7-.2-1-.3-.8-.3-1.45-.6-.95-.55-1.65-1-1-.75-1.25-1.2-1-1-.55-.7-.45-.6-.8-1.15L12,41.09l-.6-1.3-.55-1.5-.35-1.35,0-.1-.4-2.6,0-1.55,0-1.6.2-1.45.35-1.55.4-1.35.55-1.45.65-1.3.8-1.35.8-1.15,1-1.25,1-.95,1.4-1.2,1-.75q.95-.6,1.9-1.1l1-.5a21.25,21.25,0,0,1,4.6-1.35l.65-.1.55-.1.5,0h.5l.45-.05h1.35l.45.05h.45l.45,0,.5.05.5,0,.6.1.55.1.7.2.65.15,1,.3.8.3,1.5.65,1,.5a20.33,20.33,0,0,1,2.75,1.9"/><path class="cls-5" d="M10.89,38.29l0-.2.25.8-.2-.6m30.65-19.8,1,.85,1.1,1.2.9,1.05.9,1.25.7,1.25.65,1.4.5,1.3.45,1.5.3,1.4.15,1.6.1,1.5-.1,1.8-.2,1.5-.4,1.55L47.09,39l-.6,1.5-.65,1.25L45,43.19l-.85,1.15L43,45.64l-1,.9-1.5,1.25-1,.7-2.1,1.15-1,.4-3.95,1.1-.65.1-.5,0-.55,0-.45,0H28.09l-.45,0-.5,0-.5,0-.5-.05-.55-.1L25,51l-.7-.15-.7-.2-1-.3-.8-.3-1.45-.6-.85-.5.25.15a16.1,16.1,0,0,0,11,1.7Q40.44,48,41,38.89t-8.45-15.6q-9-5.2-16.55-.85t-5.3,15.1l-.2-.7-.4-2.6,0-1.55,0-1.6.2-1.45.35-1.55.4-1.35.55-1.45.65-1.3.8-1.35.8-1.15,1-1.25,1-.95,1.4-1.2,1-.75q.95-.6,1.9-1.1l1-.5a21.25,21.25,0,0,1,4.6-1.35l.65-.1.55-.1.5,0h.5l.45-.05h1.35l.45.05h.45l.45,0,.5.05.5,0,.6.1.55.1.7.2.65.15,1,.3.8.3,1.5.65,1,.5a20.33,20.33,0,0,1,2.75,1.9"/><path class="cls-6" d="M41.54,18.49l1,.85,1.1,1.2.9,1.05.9,1.25.7,1.25.65,1.4.5,1.3.45,1.5.3,1.4.15,1.6.1,1.5-.1,1.8-.2,1.5-.4,1.55L47.09,39l-.6,1.5-.65,1.25L45,43.19l-.85,1.15L43,45.64l-1,.9-1.5,1.25-1,.7-2.1,1.15-1,.4-3.95,1.1-.65.1-.5,0-.55,0-.45,0H28.09l-.45,0-.5,0-.5,0-.5-.05-.55-.1L25,51l3.75.25q10.15-1,12.35-9.65t-5.55-16.9q-7.8-6.6-16.35-4.3T10.09,33.24v1l0-1.55,0-1.6.2-1.45.35-1.55.4-1.35.55-1.45.65-1.3.8-1.35.8-1.15,1-1.25,1-.95,1.4-1.2,1-.75q.95-.6,1.9-1.1l1-.5a21.25,21.25,0,0,1,4.6-1.35l.65-.1.55-.1.5,0h.5l.45-.05h1.35l.45.05h.45l.45,0,.5.05.5,0,.6.1.55.1.7.2.65.15,1,.3.8.3,1.5.65,1,.5a20.33,20.33,0,0,1,2.75,1.9"/><path class="cls-7" d="M41.54,18.49l1,.85,1.1,1.2.9,1.05.9,1.25.7,1.25.65,1.4.5,1.3.45,1.5.3,1.4.15,1.6.1,1.5-.1,1.8-.2,1.5-.4,1.55L47.09,39l-.6,1.5-.65,1.25L45,43.19l-.85,1.15L43,45.64l-1,.9-1.5,1.25-1,.7-2.1,1.15-1,.4-3.95,1.1-.65.1-.5,0-.55,0-.45,0H28.09l-.45,0-.5,0-.5,0q10.45.7,14.35-7.1t-2.45-17.5q-7.15-8.35-16.7-7.4T10.14,31.09l0,.25v-.25l.2-1.45.35-1.55.4-1.35.55-1.45.65-1.3.8-1.35.8-1.15,1-1.25,1-.95,1.4-1.2,1-.75q.95-.6,1.9-1.1l1-.5a21.25,21.25,0,0,1,4.6-1.35l.65-.1.55-.1.5,0h.5l.45-.05h1.35l.45.05h.45l.45,0,.5.05.5,0,.6.1.55.1.7.2.65.15,1,.3.8.3,1.5.65,1,.5a20.33,20.33,0,0,1,2.75,1.9"/><path class="cls-8" d="M41.49,18.49l.95.85,1.15,1.2.85,1.05.9,1.25.7,1.25.7,1.4.5,1.3.4,1.5.3,1.4.2,1.6,0,1.5-.1,1.8-.2,1.5-.35,1.55L47.09,39l-.6,1.5-.65,1.25L45,43.19l-.85,1.15L43,45.64l-1,.9-1.5,1.25-1,.7-2.1,1.15-1,.4-3.9,1.1-.65.1-.55,0-.5,0-.45,0h-1.6q10.35-.45,13.35-8.25T39.94,27Q33.19,18,23.29,18.29t-12.9,10.9l.2-1.1L11,26.74l.55-1.45.6-1.3L13,22.64l.75-1.15,1.1-1.25,1-.95,1.35-1.2,1.05-.75,1.9-1.1,1-.5a20.24,20.24,0,0,1,4.6-1.35l.65-.1.55-.1.5,0h.45l.5-.05h1.3l.45.05h.5l.45,0,.5.05.5,0,.55.1.6.1.7.2.65.15,1,.3.8.3,1.5.65,1,.5a18,18,0,0,1,2.7,1.9"/><path class="cls-9" d="M41.54,18.49l1,.85,1.1,1.2.9,1.05.9,1.25.7,1.25.65,1.4.5,1.3.45,1.5.3,1.4.15,1.6.1,1.5-.1,1.8-.2,1.5-.4,1.55-.4,1.4-.65,1.5-.65,1.25L45,43.19l-.85,1.15L43,45.64l-1,.9-1.5,1.25-1,.7-2.1,1.15-1,.4-3.65,1-.65.1q7.45-1.35,10.45-7.55t0-13.9q-5.15-10.5-15.8-12.1T11,26.74l.55-1.45.65-1.3.8-1.35.8-1.15,1-1.25,1-.95,1.4-1.2,1-.75q.95-.6,1.9-1.1l1-.5a21.25,21.25,0,0,1,4.6-1.35l.65-.1.55-.1.5,0h.5l.45-.05h1.35l.45.05h.45l.45,0,.5.05.5,0,.6.1.55.1.7.2.65.15,1,.3.85.3,1.45.65,1,.5a20.33,20.33,0,0,1,2.75,1.9"/><path class="cls-10" d="M12.89,22.94l0,0-.25.4.3-.45m30.7-2.4.9,1.05.85,1.25.7,1.25.7,1.4.5,1.3.45,1.5.25,1.4.2,1.6,0,1.5-.1,1.8-.2,1.5-.35,1.55L47.09,39l-.6,1.5-.65,1.25L45,43.19l-.85,1.15L43,45.64l-1,.9-1.5,1.25-1,.7-2.1,1.15-2,.75q11.2-4.6,9.3-17.75a20.44,20.44,0,0,0-13.5-14.8q-10.65-4-18.2,4.8l.8-1.15,1-1.25,1-.95,1.35-1.2,1.05-.75q.95-.6,1.9-1.1l1-.5a20.24,20.24,0,0,1,4.6-1.35l.65-.1.55-.1.5,0h.45l.5-.05h1.35l.45.05h.45l.45,0,.5.05.5,0,.6.1.55.1.7.2.65.15,1,.3.8.3,1.5.65,1,.5a18,18,0,0,1,2.7,1.9l1,.85,1.1,1.2"/><path class="cls-3" d="M32.59,25.14q7.6,6.3,6.7,14.6t-9.5,10.6l-.3,0-.7,0q-.35.05-.3.2l-.7,0A15.9,15.9,0,0,1,16,46.39a17.21,17.21,0,0,1-5.5-10.15q-.75-9.6,6.35-13.2t15.7,2.1"/><path class="cls-11" d="M23.59,50.14a16,16,0,0,1-10-6.65,15.59,15.59,0,0,1-2.85-11.55q2.3-8.6,10.6-9.4t14.4,7q5.25,8.55,1.35,15.2t-13.55,5.4"/><path class="cls-12" d="M21.49,49.39a16.13,16.13,0,0,1-9.3-8.45,13.51,13.51,0,0,1-.6-10.85q4.35-8.25,12.8-6.85T36.94,33Q40,41.24,35,46.49t-13.55,2.9"/><path class="cls-13" d="M19.59,48.39a15.77,15.77,0,0,1-7.3-7.75,12.85,12.85,0,0,1-.1-10.85q4.15-7.15,12.4-5.8t12,9.85q2.65,9-3.2,13.45t-13.75,1.1"/><path class="cls-14" d="M19.54,48.14A15.26,15.26,0,0,1,12,39.64a12.21,12.21,0,0,1,.95-10.5q4.75-6.45,12.5-4.5T36.29,35q1.8,7.9-3.6,12.2t-13.15,1"/><path class="cls-15" d="M17.89,46.89A14.29,14.29,0,0,1,12.14,39a11.67,11.67,0,0,1,.8-9q4.65-6.75,12.45-4.8t10.4,10.5q1.3,8.25-4.55,11.9t-13.35-.75"/><path class="cls-16" d="M18,46.69a13.54,13.54,0,0,1-5.65-7.8,10.7,10.7,0,0,1,1.7-9.5q4.9-5.4,12.2-3.25T35.39,37q.55,7.2-5.1,10.35T18,46.69"/><path class="cls-17" d="M17,45.69a12.7,12.7,0,0,1-4.7-8.2,9.93,9.93,0,0,1,2.5-8.3q5-4.5,12-2.2t8,10q-.1,8.15-6,10.55T17,45.69"/><path class="cls-18" d="M16.69,45a12.84,12.84,0,0,1-3.75-6.35q-1.2-4.15,2-8.6,4.5-4.8,11.4-2.75t8,9.6q0,7.6-5.75,10.25T16.69,45"/><path class="cls-19" d="M17,44.74a11.79,11.79,0,0,1-3.7-6.45,9.07,9.07,0,0,1,1.6-7.4q4.8-5.2,11.35-3.15t7.7,9.1q.05,6.7-5.4,9.65T17,44.74"/><path class="cls-20" d="M17.29,44.49A10.13,10.13,0,0,1,13.64,38,8.56,8.56,0,0,1,15,31.79q5-5.65,11.2-3.6a10.12,10.12,0,0,1,7.25,8.65,9.78,9.78,0,0,1-4.95,8.9q-5.1,3.15-11.2-1.25"/><path class="cls-21" d="M17.74,44.29a9.52,9.52,0,0,1-3.6-6.3,8.59,8.59,0,0,1,1.5-6.1A9.87,9.87,0,0,1,19.44,29a10,10,0,0,1,6.8-.4,9.22,9.22,0,0,1,5.1,3.8A10,10,0,0,1,33,36.79a9.44,9.44,0,0,1-4.75,8.4q-4.85,3.05-10.55-.9"/><path class="cls-22" d="M16.69,42.54a8.77,8.77,0,0,1-2-6.45q.3-3.65,4.1-6.15,5.5-2.85,10,.35a8.36,8.36,0,0,1,3.7,8.45,9.22,9.22,0,0,1-6.5,6.8q-5,1.5-9.25-3"/><path class="cls-23" d="M17.24,42.29A8.13,8.13,0,0,1,15.19,37a7.39,7.39,0,0,1,2.4-5.6q4.45-3.6,9.25-1.85a7.84,7.84,0,0,1,5.3,7.2q-.3,5.85-5.45,7.75t-9.45-2.2"/><path class="cls-24" d="M17.84,42.09a8.48,8.48,0,0,1-2-4.65q-.5-3.2,2.6-6.25A8.16,8.16,0,0,1,26.94,30a7.62,7.62,0,0,1,5,6.7q-.3,5.5-5.15,7.3t-8.9-1.9"/><path class="cls-25" d="M16.64,34.74a7,7,0,0,1,3.4-4.1q5-2,8.6.9a6.64,6.64,0,0,1,2.65,7.2,7.6,7.6,0,0,1-6,5.25,7.48,7.48,0,0,1-7.4-2.9q-2.25-3.45-1.2-6.35"/><path class="cls-26" d="M19.14,41.69A7,7,0,0,1,17,38q-.8-2.7,2-5.95,4.5-3.1,7.2-1.65l1.6,1.05,1.55,1q2.1,2.45,1.85,4.25a6.84,6.84,0,0,1-4.2,6.1q-4,1.85-8-1.1"/><path class="cls-1" d="M29,32.44l1.35,1.75a5.36,5.36,0,0,1,.3,4.5,6.77,6.77,0,0,1-2.75,3.15,6.6,6.6,0,0,1-2.8,1.1,7.73,7.73,0,0,1-6.85-3.1q-2.6-4.45,1.85-8.4l1.5-.6,1.5-.5,3.15.35L29,32.44"/><path class="cls-1" d="M18.09,35a7.8,7.8,0,0,1,1-2.2q2.5-2.25,4.65-2.2l2.5.3a8.85,8.85,0,0,1,2.2,1.45,5.57,5.57,0,0,1,2.2,4.3,5.68,5.68,0,0,1-1.75,3.95L27.09,42l-4.35.35q-1.8-.25-4-2.7a5.28,5.28,0,0,1-.7-4.65"/><path class="cls-1" d="M30,38.69l-1.2,1.7a5.53,5.53,0,0,1-3.9,1.8q-3,0-4.4-1.35l-1.35-1.65a4.73,4.73,0,0,1-.5-4.65,4.2,4.2,0,0,1,3.15-3.05,5.14,5.14,0,0,1,1.75-.55l2.75.3a4.56,4.56,0,0,1,2,1.25q3.3,3.6,1.75,6.2"/><path class="cls-1" d="M26.29,31.49l2.1,1.5a5.23,5.23,0,0,1,1.75,3.65,5,5,0,0,1-1.55,3.45L27,41.34l-2.35.5-2.3-.4a11,11,0,0,1-2.65-1.95,6.07,6.07,0,0,1-.95-2.05q-.6-1.8.95-4.3a6.18,6.18,0,0,1,2-1.3l1.5-.65,1.55.15,1.6.15"/><path class="cls-1" d="M29.29,34.54l.3,1,.25,1-.25,1-.25,1-1,1.15L26.94,41l-2.1.45L22.39,41l-2.3-1.55a4.69,4.69,0,0,1-1.15-2.35q-.4-1.65,1.25-4a11.28,11.28,0,0,1,1.55-.9l1.4-.75,1.6.15,1.55.15a6.5,6.5,0,0,1,2,1.55l1,1.25"/><path class="cls-1" d="M29,34.59l.3,1,.25,1.05-.55,2-1.05,1-1,1-2.3.55a6.68,6.68,0,0,1-4.2-1.85,5,5,0,0,1-1.1-2.1q-.5-1.6,1-3.8a9.45,9.45,0,0,1,2.85-1.75l1.55.15,1.55.15,1.7,1.4,1,1.15"/><path class="cls-1" d="M28.74,34.59a4,4,0,0,1,.55,2,4.13,4.13,0,0,1-.65,2,4.18,4.18,0,0,1-1.7,1.7l-2.35.5a7.69,7.69,0,0,1-3.7-1.6q-1.8-2.15-1.15-3.85a4.65,4.65,0,0,1,1.75-2.5,4.3,4.3,0,0,1,1.75-1l1.55.15,1.55.2,1.4,1.2,1,1"/><path class="cls-1" d="M28.44,34.59a4,4,0,0,1,.55,2,4.24,4.24,0,0,1-.7,2,3.16,3.16,0,0,1-1.4,1.4l-2.4.55-1.4-.45a6.35,6.35,0,0,1-1.8-.9,5.88,5.88,0,0,1-1.2-1.85,5.18,5.18,0,0,1,0-2.15,4,4,0,0,1,1-1.5l1-.9a2.56,2.56,0,0,1,1.1-.6l1.65.15,1.5.2a6.19,6.19,0,0,1,2,2"/><path class="cls-1" d="M28.69,36.69l-.55,1.5a2.94,2.94,0,0,1-1.3,1.6l-2.45.55-2.7-1.15-.2-.2-1.15-1.65a5.56,5.56,0,0,1,0-2.1,5.53,5.53,0,0,1,1.25-1.4l1.15-1,.5-.25,1.75.2,1.35.2,1.75,1.65a4,4,0,0,1,.6,2.1"/><path class="cls-1" d="M28.39,36.64a5.72,5.72,0,0,1-.8,2l-.8.75L24.34,40a3.51,3.51,0,0,1-2.15-.9l-.95-1-.55-.8.05-2.15L22,33.94l1.25-1.15,1.55.2,1.55.25,1.45,1.35a3.94,3.94,0,0,1,.6,2"/><path class="cls-1" d="M27.24,38.69l-.5.45-2.45.55a3.09,3.09,0,0,1-1.6-.65A4.85,4.85,0,0,1,21,37.19a4.53,4.53,0,0,1,.1-2.1l1-1,1.1-1,1.55.2,1.5.25,1.15,1a3.77,3.77,0,0,1,.6,2l-.85,2"/><path class="cls-1" d="M27.39,37.74l-.65,1.15-2.5.55A1.76,1.76,0,0,1,23.19,39a4.76,4.76,0,0,1-1.75-1.8,2.85,2.85,0,0,1,.1-2.1,3.75,3.75,0,0,1,1.8-1.65l1.55.2,1.5.25.8.75a4.13,4.13,0,0,1,.65,2.05l-.45,1"/><path class="cls-1" d="M26.94,34.64a3.77,3.77,0,0,1,.6,2.05,2.93,2.93,0,0,1-.8,1.75l-2.55.7a.8.8,0,0,1-.5-.2,5.48,5.48,0,0,1-1.9-1.8A3.41,3.41,0,0,1,22,35a2.74,2.74,0,0,1,1.35-1.25l1.5.2,1.6.2.5.5"/><path class="cls-1" d="M23.39,34l1.35.15,1.7.25.2.2a3.61,3.61,0,0,1,.6,2.05l-.55,1.25-2.6.85A3,3,0,0,1,22.19,37a3.28,3.28,0,0,1,.2-2.1,1.88,1.88,0,0,1,1-.9"/><path class="cls-1" d="M24,38.34A2.43,2.43,0,0,1,22.59,37a3.74,3.74,0,0,1,.25-2.15l.6-.55a5.32,5.32,0,0,1,2.35.35l.7.45q.65.6.15,2.3l-2.6.9"/><path class="cls-1" d="M23.94,37.89a1.67,1.67,0,0,1-1-.9,4.88,4.88,0,0,1,.3-2.15l.2-.2q.1-.65,3.1,1.65l0,.6-2.65,1"/><path class="cls-1" d="M23.84,37.39l-.5-.45a3.89,3.89,0,0,1,.2-1.5l2,1.3a3.65,3.65,0,0,1-1.65.65"/><path class="cls-1" d="M23.79,36.94h0v-.1l.1,0,0,.05"/><g class="cls-27"><path class="cls-28" d="M47.64,36.09,46.79,39a14.25,14.25,0,0,1-1.3,2.8l-1.6,2.35-1.1,1.3-2.5,2.15a19.28,19.28,0,0,1-6,2.9l-7.9.55-3.9-.9-1.3-.5-1.1-.5-.85-.45-1.65-1-2.3-2-2-2.25-1.55-2.55a14.94,14.94,0,0,1-1.15-2.8l-.6-2.6a17.86,17.86,0,0,1,0-6l.75-2.9A14.5,14.5,0,0,1,12,23.84a20.33,20.33,0,0,1,2.65-3.75,20.83,20.83,0,0,1,3-2.65,18.48,18.48,0,0,1,6.4-3,20.59,20.59,0,0,1,11.2.5,19.14,19.14,0,0,1,6.15,3.45,19.46,19.46,0,0,1,2.8,3l1.6,2.5L47,26.64a18.91,18.91,0,0,1,1,4.5l0,1.8-.35,3.15M28.34,50.44l.75,0,.3-.2-.8-.05q-.45.05-.25.2a14.5,14.5,0,0,1-8.25-1.25,14.5,14.5,0,0,0,8.25,1.25"/><path class="cls-29" d="M47.64,36.09,46.79,39a14.25,14.25,0,0,1-1.3,2.8l-1.6,2.35-1.1,1.3-2.5,2.15a19.28,19.28,0,0,1-6,2.9l-7.9.55-3.9-.9-1.3-.5-1.1-.5-.85-.45-1.65-1-2.3-2-2-2.25-1.55-2.55a14.94,14.94,0,0,1-1.15-2.8l-.6-2.6a17.86,17.86,0,0,1,0-6l.75-2.9A14.5,14.5,0,0,1,12,23.84a20.33,20.33,0,0,1,2.65-3.75,20.83,20.83,0,0,1,3-2.65,18.48,18.48,0,0,1,6.4-3,20.59,20.59,0,0,1,11.2.5,19.14,19.14,0,0,1,6.15,3.45,19.46,19.46,0,0,1,2.8,3l1.6,2.5L47,26.64a18.91,18.91,0,0,1,1,4.5l0,1.8-.35,3.15M28.34,50.44q-.2-.15.25-.2l.8.05-.3.2-.75,0a14.5,14.5,0,0,1-8.25-1.25"/></g><text class="cls-30" transform="translate(20.69 41.53)">O</text></g><g id="Layer_3" data-name="Layer 3"><path class="cls-3" d="M65.67,50.41l.8.1.25-.25-.8,0q-.45,0-.25.2m13.2-31.9a19.14,19.14,0,0,1,5.5,8.25,18.06,18.06,0,0,1,0,11.8,18,18,0,0,1-5.65,8.25Q69.52,53.61,59.32,50l-2.75-1.2a19.16,19.16,0,0,1-8.75-11,18.93,18.93,0,0,1,1.5-13.9,18.09,18.09,0,0,1,7.6-7.65A19.59,19.59,0,0,1,67.72,14q7.05.8,11.15,4.55"/><path class="cls-3" d="M65.92,50.16q-.45.1-.25.25l.75,0,.3-.2-.8-.1m12.7-31.85,1,.85,1.1,1.2.9,1.05.9,1.25.7,1.25.65,1.4.5,1.3.45,1.5.3,1.4.15,1.6.1,1.5-.1,1.8-.2,1.5-.4,1.55-.45,1.4-.6,1.5-.65,1.25L82.07,43l-.85,1.15-1.1,1.3-1,.9-1.5,1.25-1,.7-2.1,1.15-1,.4L69.57,51l-.65.1-.5,0-.55,0-.45,0H65.17l-.45,0-.5,0-.5,0-.5-.05-.55-.1-.55-.1-.7-.15-.7-.2-1-.3-.8-.3-1.45-.6-.95-.55-1.65-1-1-.75-1.25-1.2-1-1-1-1.3-.8-1.15-.75-1.4-.6-1.3L48,38.11l-.4-1.45-.4-2.6,0-1.55,0-1.6.2-1.45.35-1.55.4-1.35.55-1.45.65-1.3.8-1.35.8-1.15,1-1.25,1-.95,1.4-1.2,1-.75q.95-.6,1.9-1.1l1-.5a21.25,21.25,0,0,1,4.6-1.35l.65-.1L64,14l.5,0H65l.45-.05h1.35l.45.05h.45l.45,0,.5.05.5,0,.6.1.55.1.7.2.65.15,1,.3.8.3,1.5.65,1,.5a20.33,20.33,0,0,1,2.75,1.9"/><path class="cls-4" d="M78.62,18.31l1,.85,1.1,1.2.9,1.05.9,1.25.7,1.25.65,1.4.5,1.3.45,1.5.3,1.4.15,1.6.1,1.5-.1,1.8-.2,1.5-.4,1.55-.45,1.4-.6,1.5-.65,1.25L82.07,43l-.85,1.15-1.1,1.3-1,.9-1.5,1.25-1,.7-2.1,1.15-1,.4L69.57,51l-.65.1-.5,0-.55,0-.45,0H65.17l-.45,0-.5,0-.5,0-.5-.05-.55-.1-.55-.1-.7-.15-.7-.2-1-.3-.8-.3-1.45-.6-.95-.55-1.65-1-1-.75-1.25-1.2-1-1-.55-.7-.45-.6-.8-1.15-.75-1.4-.6-1.3L48,38.11l-.35-1.35,0-.1-.4-2.6,0-1.55,0-1.6.2-1.45.35-1.55.4-1.35.55-1.45.65-1.3.8-1.35.8-1.15,1-1.25,1-.95,1.4-1.2,1-.75q.95-.6,1.9-1.1l1-.5a21.25,21.25,0,0,1,4.6-1.35l.65-.1L64,14l.5,0H65l.45-.05h1.35l.45.05h.45l.45,0,.5.05.5,0,.6.1.55.1.7.2.65.15,1,.3.8.3,1.5.65,1,.5a20.33,20.33,0,0,1,2.75,1.9"/><path class="cls-5" d="M48,38.11l0-.2.25.8-.2-.6m30.65-19.8,1,.85,1.1,1.2.9,1.05.9,1.25.7,1.25.65,1.4.5,1.3.45,1.5.3,1.4.15,1.6.1,1.5-.1,1.8-.2,1.5-.4,1.55-.45,1.4-.6,1.5-.65,1.25L82.07,43l-.85,1.15-1.1,1.3-1,.9-1.5,1.25-1,.7-2.1,1.15-1,.4L69.57,51l-.65.1-.5,0-.55,0-.45,0H65.17l-.45,0-.5,0-.5,0-.5-.05-.55-.1-.55-.1-.7-.15-.7-.2-1-.3-.8-.3-1.45-.6-.85-.5.25.15a16.1,16.1,0,0,0,11,1.7q9.55-2.8,10.1-11.9t-8.45-15.6q-9-5.2-16.55-.85t-5.3,15.1l-.2-.7-.4-2.6,0-1.55,0-1.6.2-1.45.35-1.55.4-1.35.55-1.45.65-1.3.8-1.35.8-1.15,1-1.25,1-.95,1.4-1.2,1-.75q.95-.6,1.9-1.1l1-.5a21.25,21.25,0,0,1,4.6-1.35l.65-.1L64,14l.5,0H65l.45-.05h1.35l.45.05h.45l.45,0,.5.05.5,0,.6.1.55.1.7.2.65.15,1,.3.8.3,1.5.65,1,.5a20.33,20.33,0,0,1,2.75,1.9"/><path class="cls-6" d="M78.62,18.31l1,.85,1.1,1.2.9,1.05.9,1.25.7,1.25.65,1.4.5,1.3.45,1.5.3,1.4.15,1.6.1,1.5-.1,1.8-.2,1.5-.4,1.55-.45,1.4-.6,1.5-.65,1.25L82.07,43l-.85,1.15-1.1,1.3-1,.9-1.5,1.25-1,.7-2.1,1.15-1,.4L69.57,51l-.65.1-.5,0-.55,0-.45,0H65.17l-.45,0-.5,0-.5,0-.5-.05-.55-.1-.55-.1,3.75.25q10.15-1,12.35-9.65t-5.55-16.9q-7.8-6.6-16.35-4.3T47.17,33.06v1l0-1.55,0-1.6.2-1.45.35-1.55.4-1.35.55-1.45.65-1.3.8-1.35.8-1.15,1-1.25,1-.95,1.4-1.2,1-.75q.95-.6,1.9-1.1l1-.5a21.25,21.25,0,0,1,4.6-1.35l.65-.1L64,14l.5,0H65l.45-.05h1.35l.45.05h.45l.45,0,.5.05.5,0,.6.1.55.1.7.2.65.15,1,.3.8.3,1.5.65,1,.5a20.33,20.33,0,0,1,2.75,1.9"/><path class="cls-7" d="M78.62,18.31l1,.85,1.1,1.2.9,1.05.9,1.25.7,1.25.65,1.4.5,1.3.45,1.5.3,1.4.15,1.6.1,1.5-.1,1.8-.2,1.5-.4,1.55-.45,1.4-.6,1.5-.65,1.25L82.07,43l-.85,1.15-1.1,1.3-1,.9-1.5,1.25-1,.7-2.1,1.15-1,.4L69.57,51l-.65.1-.5,0-.55,0-.45,0H65.17l-.45,0-.5,0-.5,0q10.45.7,14.35-7.1t-2.45-17.5q-7.15-8.35-16.7-7.4T47.22,30.91l0,.25v-.25l.2-1.45.35-1.55.4-1.35.55-1.45.65-1.3.8-1.35.8-1.15,1-1.25,1-.95,1.4-1.2,1-.75q.95-.6,1.9-1.1l1-.5a21.25,21.25,0,0,1,4.6-1.35l.65-.1L64,14l.5,0H65l.45-.05h1.35l.45.05h.45l.45,0,.5.05.5,0,.6.1.55.1.7.2.65.15,1,.3.8.3,1.5.65,1,.5a20.33,20.33,0,0,1,2.75,1.9"/><path class="cls-8" d="M78.57,18.31l.95.85,1.15,1.2.85,1.05.9,1.25.7,1.25.7,1.4.5,1.3.4,1.5.3,1.4.2,1.6,0,1.5-.1,1.8-.2,1.5-.35,1.55-.45,1.4-.6,1.5-.65,1.25L82.07,43l-.85,1.15-1.15,1.3-1,.9-1.5,1.25-1,.7-2.1,1.15-1,.4L69.57,51l-.65.1-.55,0-.5,0-.45,0h-1.6Q76.17,50.76,79.17,43T77,26.81q-6.75-8.95-16.65-8.7T47.47,29l.2-1.1.45-1.35.55-1.45.6-1.3.85-1.35.75-1.15L52,20.06l1-.95,1.35-1.2,1.05-.75,1.9-1.1,1-.5a20.24,20.24,0,0,1,4.6-1.35l.65-.1L64,14l.5,0H65l.5-.05h1.3l.45.05h.5l.45,0,.5.05.5,0,.55.1.6.1.7.2.65.15,1,.3.8.3,1.5.65,1,.5a18,18,0,0,1,2.7,1.9"/><path class="cls-9" d="M78.62,18.31l1,.85,1.1,1.2.9,1.05.9,1.25.7,1.25.65,1.4.5,1.3.45,1.5.3,1.4.15,1.6.1,1.5-.1,1.8-.2,1.5-.4,1.55-.4,1.4-.65,1.5-.65,1.25L82.07,43l-.85,1.15-1.1,1.3-1,.9-1.5,1.25-1,.7-2.1,1.15-1,.4-3.65,1-.65.1q7.45-1.35,10.45-7.55t0-13.9q-5.15-10.5-15.8-12.1t-15.75,9.1l.55-1.45.65-1.3.8-1.35.8-1.15,1-1.25,1-.95,1.4-1.2,1-.75q.95-.6,1.9-1.1l1-.5a21.25,21.25,0,0,1,4.6-1.35l.65-.1L64,14l.5,0H65l.45-.05h1.35l.45.05h.45l.45,0,.5.05.5,0,.6.1.55.1.7.2.65.15,1,.3.85.3,1.45.65,1,.5a20.33,20.33,0,0,1,2.75,1.9"/><path class="cls-10" d="M50,22.76l0,0-.25.4.3-.45m30.7-2.4.9,1.05.85,1.25.7,1.25.7,1.4.5,1.3.45,1.5.25,1.4.2,1.6,0,1.5-.1,1.8-.2,1.5-.35,1.55-.45,1.4-.6,1.5-.65,1.25L82.07,43l-.85,1.15-1.15,1.3-1,.9-1.5,1.25-1,.7-2.1,1.15-2,.75q11.2-4.6,9.3-17.75a20.44,20.44,0,0,0-13.5-14.8q-10.65-4-18.2,4.8l.8-1.15,1-1.25,1-.95,1.35-1.2,1.05-.75q.95-.6,1.9-1.1l1-.5a20.24,20.24,0,0,1,4.6-1.35l.65-.1L64,14l.5,0H65l.5-.05h1.35l.45.05h.45l.45,0,.5.05.5,0,.6.1.55.1.7.2.65.15,1,.3.8.3,1.5.65,1,.5a18,18,0,0,1,2.7,1.9l1,.85,1.1,1.2"/><path class="cls-3" d="M69.67,25q7.6,6.3,6.7,14.6t-9.5,10.6l-.3,0-.7,0q-.35.05-.3.2l-.7,0a15.9,15.9,0,0,1-11.75-4.2,17.21,17.21,0,0,1-5.5-10.15q-.75-9.6,6.35-13.2T69.67,25"/><path class="cls-11" d="M60.67,50a16,16,0,0,1-10-6.65,15.59,15.59,0,0,1-2.85-11.55q2.3-8.6,10.6-9.4t14.4,7q5.25,8.55,1.35,15.2T60.67,50"/><path class="cls-12" d="M58.57,49.21a16.13,16.13,0,0,1-9.3-8.45,13.51,13.51,0,0,1-.6-10.85q4.35-8.25,12.8-6.85T74,32.81q3.05,8.25-1.9,13.5t-13.55,2.9"/><path class="cls-13" d="M56.67,48.21a15.77,15.77,0,0,1-7.3-7.75,12.85,12.85,0,0,1-.1-10.85q4.15-7.15,12.4-5.8t12,9.85q2.65,9-3.2,13.45t-13.75,1.1"/><path class="cls-14" d="M56.62,48a15.26,15.26,0,0,1-7.55-8.5A12.21,12.21,0,0,1,50,29q4.75-6.45,12.5-4.5T73.37,34.81q1.8,7.9-3.6,12.2T56.62,48"/><path class="cls-15" d="M55,46.71a14.29,14.29,0,0,1-5.75-7.85,11.67,11.67,0,0,1,.8-9q4.65-6.75,12.45-4.8t10.4,10.5q1.3,8.25-4.55,11.9T55,46.71"/><path class="cls-16" d="M55.07,46.51a13.54,13.54,0,0,1-5.65-7.8,10.7,10.7,0,0,1,1.7-9.5Q56,23.81,63.32,26t9.15,10.9q.55,7.2-5.1,10.35t-12.3-.7"/><path class="cls-17" d="M54.12,45.51a12.7,12.7,0,0,1-4.7-8.2,9.93,9.93,0,0,1,2.5-8.3q5-4.5,12-2.2t8,10q-.1,8.15-6,10.55t-11.8-1.8"/><path class="cls-18" d="M53.77,44.81A12.84,12.84,0,0,1,50,38.46q-1.2-4.15,2-8.6,4.5-4.8,11.4-2.75t8,9.6q0,7.6-5.75,10.25t-11.9-2.15"/><path class="cls-19" d="M54.07,44.56a11.79,11.79,0,0,1-3.7-6.45,9.07,9.07,0,0,1,1.6-7.4q4.8-5.2,11.35-3.15t7.7,9.1q.05,6.7-5.4,9.65T54.07,44.56"/><path class="cls-20" d="M54.37,44.31a10.13,10.13,0,0,1-3.65-6.5,8.56,8.56,0,0,1,1.35-6.2q5-5.65,11.2-3.6a10.12,10.12,0,0,1,7.25,8.65,9.78,9.78,0,0,1-4.95,8.9q-5.1,3.15-11.2-1.25"/><path class="cls-21" d="M54.82,44.11a9.52,9.52,0,0,1-3.6-6.3,8.59,8.59,0,0,1,1.5-6.1,9.87,9.87,0,0,1,3.8-2.85,10,10,0,0,1,6.8-.4,9.22,9.22,0,0,1,5.1,3.8,10,10,0,0,1,1.7,4.35A9.44,9.44,0,0,1,65.37,45q-4.85,3.05-10.55-.9"/><path class="cls-22" d="M53.77,42.36a8.77,8.77,0,0,1-2-6.45q.3-3.65,4.1-6.15,5.5-2.85,10,.35a8.36,8.36,0,0,1,3.7,8.45,9.22,9.22,0,0,1-6.5,6.8q-5,1.5-9.25-3"/><path class="cls-23" d="M54.32,42.11a8.13,8.13,0,0,1-2.05-5.3,7.39,7.39,0,0,1,2.4-5.6q4.45-3.6,9.25-1.85a7.84,7.84,0,0,1,5.3,7.2q-.3,5.85-5.45,7.75t-9.45-2.2"/><path class="cls-24" d="M54.92,41.91a8.48,8.48,0,0,1-2-4.65q-.5-3.2,2.6-6.25A8.16,8.16,0,0,1,64,29.81a7.62,7.62,0,0,1,5,6.7q-.3,5.5-5.15,7.3t-8.9-1.9"/><path class="cls-25" d="M53.72,34.56a7,7,0,0,1,3.4-4.1q5-2,8.6.9a6.64,6.64,0,0,1,2.65,7.2,7.6,7.6,0,0,1-6,5.25,7.48,7.48,0,0,1-7.4-2.9q-2.25-3.45-1.2-6.35"/><path class="cls-26" d="M56.22,41.51a7,7,0,0,1-2.1-3.7q-.8-2.7,2-5.95,4.5-3.1,7.2-1.65L65,31.26l1.55,1q2.1,2.45,1.85,4.25a6.84,6.84,0,0,1-4.2,6.1q-4,1.85-8-1.1"/><path class="cls-1" d="M66.12,32.26,67.47,34a5.36,5.36,0,0,1,.3,4.5A6.77,6.77,0,0,1,65,41.66a6.6,6.6,0,0,1-2.8,1.1,7.73,7.73,0,0,1-6.85-3.1q-2.6-4.45,1.85-8.4l1.5-.6,1.5-.5,3.15.35,2.75,1.75"/><path class="cls-1" d="M55.17,34.86a7.8,7.8,0,0,1,1-2.2q2.5-2.25,4.65-2.2l2.5.3a8.85,8.85,0,0,1,2.2,1.45,5.57,5.57,0,0,1,2.2,4.3A5.68,5.68,0,0,1,66,40.46l-1.85,1.4-4.35.35q-1.8-.25-4-2.7a5.28,5.28,0,0,1-.7-4.65"/><path class="cls-1" d="M67.07,38.51l-1.2,1.7A5.53,5.53,0,0,1,62,42q-3,0-4.4-1.35L56.22,39a4.73,4.73,0,0,1-.5-4.65,4.2,4.2,0,0,1,3.15-3.05,5.14,5.14,0,0,1,1.75-.55l2.75.3a4.56,4.56,0,0,1,2,1.25q3.3,3.6,1.75,6.2"/><path class="cls-1" d="M63.37,31.31l2.1,1.5a5.23,5.23,0,0,1,1.75,3.65,5,5,0,0,1-1.55,3.45l-1.6,1.25-2.35.5-2.3-.4a11,11,0,0,1-2.65-1.95,6.07,6.07,0,0,1-.95-2.05q-.6-1.8.95-4.3a6.18,6.18,0,0,1,2-1.3l1.5-.65,1.55.15,1.6.15"/><path class="cls-1" d="M66.37,34.36l.3,1,.25,1-.25,1-.25,1-1,1.15L64,40.81l-2.1.45-2.45-.45-2.3-1.55A4.69,4.69,0,0,1,56,36.91q-.4-1.65,1.25-4a11.28,11.28,0,0,1,1.55-.9l1.4-.75,1.6.15,1.55.15a6.5,6.5,0,0,1,2,1.55l1,1.25"/><path class="cls-1" d="M66.07,34.41l.3,1,.25,1.05-.55,2-1.05,1-1,1-2.3.55a6.68,6.68,0,0,1-4.2-1.85,5,5,0,0,1-1.1-2.1q-.5-1.6,1-3.8a9.45,9.45,0,0,1,2.85-1.75l1.55.15,1.55.15,1.7,1.4,1,1.15"/><path class="cls-1" d="M65.82,34.41a4,4,0,0,1,.55,2,4.13,4.13,0,0,1-.65,2,4.18,4.18,0,0,1-1.7,1.7l-2.35.5a7.69,7.69,0,0,1-3.7-1.6q-1.8-2.15-1.15-3.85a4.65,4.65,0,0,1,1.75-2.5,4.3,4.3,0,0,1,1.75-1l1.55.15,1.55.2,1.4,1.2,1,1"/><path class="cls-1" d="M65.52,34.41a4,4,0,0,1,.55,2,4.24,4.24,0,0,1-.7,2,3.16,3.16,0,0,1-1.4,1.4l-2.4.55L60.17,40a6.35,6.35,0,0,1-1.8-.9,5.88,5.88,0,0,1-1.2-1.85,5.18,5.18,0,0,1,0-2.15,4,4,0,0,1,1-1.5l1-.9a2.56,2.56,0,0,1,1.1-.6l1.65.15,1.5.2a6.19,6.19,0,0,1,2,2"/><path class="cls-1" d="M65.77,36.51,65.22,38a2.94,2.94,0,0,1-1.3,1.6l-2.45.55L58.77,39l-.2-.2-1.15-1.65a5.56,5.56,0,0,1,0-2.1,5.53,5.53,0,0,1,1.25-1.4l1.15-1,.5-.25,1.75.2,1.35.2,1.75,1.65a4,4,0,0,1,.6,2.1"/><path class="cls-1" d="M65.47,36.46a5.72,5.72,0,0,1-.8,2l-.8.75-2.45.55a3.51,3.51,0,0,1-2.15-.9l-.95-1-.55-.8L57.82,35l1.25-1.2,1.25-1.15,1.55.2,1.55.25,1.45,1.35a3.94,3.94,0,0,1,.6,2"/><path class="cls-1" d="M64.32,38.51l-.5.45-2.45.55a3.09,3.09,0,0,1-1.6-.65A4.85,4.85,0,0,1,58.12,37a4.53,4.53,0,0,1,.1-2.1l1-1,1.1-1,1.55.2,1.5.25,1.15,1a3.77,3.77,0,0,1,.6,2l-.85,2"/><path class="cls-1" d="M64.47,37.56l-.65,1.15-2.5.55a1.76,1.76,0,0,1-1.05-.45A4.76,4.76,0,0,1,58.52,37a2.85,2.85,0,0,1,.1-2.1,3.75,3.75,0,0,1,1.8-1.65l1.55.2,1.5.25.8.75a4.13,4.13,0,0,1,.65,2.05l-.45,1"/><path class="cls-1" d="M64,34.46a3.77,3.77,0,0,1,.6,2.05,2.93,2.93,0,0,1-.8,1.75l-2.55.7a.8.8,0,0,1-.5-.2,5.48,5.48,0,0,1-1.9-1.8,3.41,3.41,0,0,1,.2-2.15,2.74,2.74,0,0,1,1.35-1.25l1.5.2,1.6.2.5.5"/><path class="cls-1" d="M60.47,33.86l1.35.15,1.7.25.2.2a3.61,3.61,0,0,1,.6,2.05l-.55,1.25-2.6.85a3,3,0,0,1-1.9-1.75,3.28,3.28,0,0,1,.2-2.1,1.88,1.88,0,0,1,1-.9"/><path class="cls-1" d="M61.12,38.16a2.43,2.43,0,0,1-1.45-1.3,3.74,3.74,0,0,1,.25-2.15l.6-.55a5.32,5.32,0,0,1,2.35.35l.7.45q.65.6.15,2.3l-2.6.9"/><path class="cls-1" d="M61,37.71a1.67,1.67,0,0,1-1-.9,4.88,4.88,0,0,1,.3-2.15l.2-.2q.1-.65,3.1,1.65l0,.6-2.65,1"/><path class="cls-1" d="M60.92,37.21l-.5-.45a3.89,3.89,0,0,1,.2-1.5l2,1.3a3.65,3.65,0,0,1-1.65.65"/><path class="cls-1" d="M60.87,36.76h0v-.1l.1,0,0,.05"/><g class="cls-27"><path class="cls-28" d="M85,35.94l-.85,2.95a14.25,14.25,0,0,1-1.3,2.8L81.24,44l-1.1,1.3-2.5,2.15a19.28,19.28,0,0,1-6,2.9l-7.9.55-3.9-.9-1.3-.5-1.1-.5-.85-.45-1.65-1-2.3-2-2-2.25-1.55-2.55A14.94,14.94,0,0,1,48,38l-.6-2.6a17.86,17.86,0,0,1,0-6l.75-2.9a14.5,14.5,0,0,1,1.2-2.75A20.33,20.33,0,0,1,52,19.94a20.83,20.83,0,0,1,3-2.65,18.48,18.48,0,0,1,6.4-3,20.59,20.59,0,0,1,11.2.5,19.14,19.14,0,0,1,6.15,3.45,19.46,19.46,0,0,1,2.8,3l1.6,2.5,1.15,2.7a18.91,18.91,0,0,1,1,4.5l0,1.8L85,35.94M65.69,50.29l.75,0,.3-.2-.8-.05q-.45.05-.25.2A14.5,14.5,0,0,1,57.44,49a14.5,14.5,0,0,0,8.25,1.25"/><path class="cls-29" d="M85,35.94l-.85,2.95a14.25,14.25,0,0,1-1.3,2.8L81.24,44l-1.1,1.3-2.5,2.15a19.28,19.28,0,0,1-6,2.9l-7.9.55-3.9-.9-1.3-.5-1.1-.5-.85-.45-1.65-1-2.3-2-2-2.25-1.55-2.55A14.94,14.94,0,0,1,48,38l-.6-2.6a17.86,17.86,0,0,1,0-6l.75-2.9a14.5,14.5,0,0,1,1.2-2.75A20.33,20.33,0,0,1,52,19.94a20.83,20.83,0,0,1,3-2.65,18.48,18.48,0,0,1,6.4-3,20.59,20.59,0,0,1,11.2.5,19.14,19.14,0,0,1,6.15,3.45,19.46,19.46,0,0,1,2.8,3l1.6,2.5,1.15,2.7a18.91,18.91,0,0,1,1,4.5l0,1.8L85,35.94M65.69,50.29q-.2-.15.25-.2l.8.05-.3.2-.75,0A14.5,14.5,0,0,1,57.44,49"/></g><text class="cls-30" transform="translate(57.29 41.87)">O</text></g></svg>