<?xml version="1.0" encoding="UTF-8" standalone="no"?>
<svg xmlns:xlink="http://www.w3.org/1999/xlink" height="332.9px" width="318.6px" xmlns="http://www.w3.org/2000/svg">
  <g transform="matrix(1.0, 0.0, 0.0, 1.0, 149.7, 38.7)">
    <path d="M5.15 219.7 L-3.6 222.2 -21.65 225.5 -48.5 228.65 -49.1 228.85 -52.3 231.45 -49.1 233.4 -40.35 236.75 -33.7 238.0 -23.6 238.35 -20.95 238.0 -16.3 236.75 -6.9 233.4 5.8 227.2 13.8 217.6 15.25 215.5 5.15 219.7 M25.2 191.4 L43.85 191.4 47.9 203.05 51.25 208.45 55.9 212.2 58.6 213.85 67.95 218.45 74.65 220.95 89.35 224.7 103.35 225.95 118.75 226.75 126.15 227.6 133.45 229.25 139.45 231.35 140.8 232.0 140.2 231.35 141.7 232.35 142.2 232.6 144.85 234.25 143.05 233.35 145.15 234.75 146.2 235.1 148.2 235.1 154.2 234.25 160.85 234.25 162.9 235.5 162.9 236.75 162.25 236.75 160.85 235.9 160.25 235.1 158.25 234.65 156.2 234.65 150.2 235.9 146.85 235.9 147.5 236.35 150.2 237.6 158.25 239.65 164.25 242.15 166.25 243.85 166.9 245.9 166.25 246.3 163.6 243.0 162.25 242.15 159.5 240.9 152.2 239.25 146.2 237.15 141.25 232.35 140.8 232.15 131.45 229.25 130.3 229.2 132.8 230.1 134.8 231.35 136.15 233.0 136.8 234.65 137.45 238.4 138.8 240.1 140.8 241.75 148.2 246.3 149.5 247.55 150.85 250.5 150.85 252.15 150.2 250.5 148.85 248.8 146.2 246.3 138.8 241.35 136.15 238.0 135.45 234.65 134.8 233.0 132.15 230.1 130.15 229.2 98.1 227.2 83.3 225.5 75.95 224.25 63.3 220.5 52.6 215.55 51.5 214.5 52.6 216.5 54.6 218.05 63.3 223.45 79.0 229.25 87.35 229.25 100.75 228.0 101.35 228.45 88.0 231.35 86.3 231.55 108.65 238.0 119.4 238.0 124.15 237.15 129.45 235.5 129.45 235.9 127.45 236.75 124.8 237.6 119.4 238.4 109.85 238.4 116.75 240.9 117.4 240.9 124.8 243.4 127.2 244.7 129.45 245.5 127.9 245.1 144.2 253.8 145.55 254.8 150.2 255.5 161.6 258.4 164.25 260.05 168.9 264.2 168.25 264.2 166.25 262.15 160.85 258.8 150.2 255.9 145.9 255.0 152.85 260.05 156.85 263.8 159.5 267.55 158.85 267.55 155.5 263.4 150.85 259.65 148.9 258.6 150.2 260.9 150.2 265.45 150.85 266.7 155.5 272.55 156.2 274.2 152.2 270.05 150.2 268.4 148.85 266.3 148.85 258.55 128.8 247.15 122.8 244.25 123.4 244.65 134.15 253.8 136.8 255.5 140.8 257.55 133.45 254.25 116.2 241.95 101.3 237.9 103.35 238.85 108.1 242.15 114.1 249.25 106.75 243.0 97.5 236.85 72.65 230.1 58.45 224.9 61.25 228.45 75.95 243.4 84.7 250.5 94.05 257.15 104.1 262.95 103.35 262.95 93.35 257.55 91.1 256.15 91.35 256.3 95.35 261.3 96.1 262.85 96.1 262.15 96.7 262.15 97.35 264.2 100.1 266.7 102.1 267.95 106.75 269.65 108.75 270.9 111.4 274.2 110.35 276.8 112.75 278.8 115.4 280.05 118.75 283.35 118.75 284.6 118.15 285.45 116.75 286.7 116.1 286.25 117.4 285.45 118.15 284.6 118.15 283.8 117.4 282.55 114.75 280.85 112.75 279.2 109.95 277.8 108.1 282.1 108.1 283.8 109.4 285.45 108.75 285.45 107.4 283.35 107.4 281.3 108.9 276.9 108.75 276.7 108.1 275.45 108.75 275.45 109.3 275.9 109.4 275.45 109.4 273.35 108.1 271.7 98.1 266.7 97.35 265.9 97.05 265.7 97.35 267.15 97.35 272.95 95.35 264.65 92.05 259.2 88.0 254.25 88.0 254.15 66.25 240.3 66.65 241.75 66.65 246.3 65.3 251.3 65.3 253.4 66.65 256.3 67.3 259.2 73.3 267.95 79.95 273.35 79.3 273.35 74.65 269.65 71.3 267.55 68.55 264.55 69.3 265.45 71.95 275.05 74.65 279.2 73.95 279.2 69.95 271.7 68.65 265.9 67.95 264.2 67.95 263.9 65.9 261.7 63.9 257.95 64.4 253.15 59.65 262.55 60.65 260.45 61.9 243.4 58.15 233.35 50.6 226.75 43.85 219.7 40.25 214.5 38.6 213.45 36.55 213.05 35.2 213.05 33.2 213.85 32.55 214.7 31.2 216.15 30.55 218.85 31.6 241.55 31.85 242.15 35.85 246.3 40.6 250.05 51.25 256.3 51.25 256.75 37.85 250.05 34.55 248.0 31.75 245.1 31.85 246.75 35.85 259.2 41.85 271.7 44.75 275.55 46.6 276.7 60.65 282.55 62.65 284.6 64.65 287.75 63.3 285.85 60.65 283.35 56.6 281.3 46.6 277.95 46.5 277.9 55.9 289.2 45.25 278.35 43.3 275.65 42.6 275.05 42.85 274.95 41.85 273.65 41.85 274.6 39.85 287.5 39.2 287.5 40.6 279.2 40.6 271.85 33.85 261.3 29.2 248.5 29.2 251.75 26.45 267.0 26.55 267.15 26.4 267.35 23.2 280.45 22.45 280.45 24.2 269.3 23.8 269.65 13.15 275.85 5.8 278.35 5.15 278.35 5.15 277.95 14.45 273.8 21.15 270.05 24.55 267.35 28.05 245.35 27.2 243.0 25.2 232.15 24.7 213.1 20.45 219.25 11.0 229.1 9.15 233.4 7.8 241.75 10.45 251.3 15.8 260.45 15.15 260.45 9.15 252.15 5.15 242.6 4.55 235.65 -19.65 258.8 -23.5 263.65 -22.3 274.2 -20.3 280.45 -16.3 286.25 -18.9 283.8 -22.3 277.95 -22.45 277.0 -26.3 282.1 -26.3 285.85 -27.65 290.45 -28.95 292.5 -32.3 294.2 -30.3 292.95 -28.3 288.35 -28.95 285.45 -27.65 280.05 -23.65 274.6 -23.0 274.6 -24.3 268.4 -23.8 264.1 -31.7 275.45 -35.7 284.6 -34.3 276.7 -32.5 273.05 -34.3 274.2 -44.35 278.35 -49.1 284.2 -50.35 287.5 -51.1 287.5 -49.1 281.7 -46.35 277.55 -31.5 271.15 -25.65 261.3 -19.1 253.25 -20.95 253.4 -24.95 254.25 -39.7 259.65 -45.7 262.95 -46.35 262.95 -38.35 258.4 -28.95 254.25 -19.65 250.9 -18.3 250.05 -16.9 249.65 -15.8 249.65 -0.9 234.15 -8.25 237.15 -12.9 238.4 -32.3 241.75 -39.55 242.4 -51.1 246.45 -56.4 250.05 -57.1 250.05 -53.35 247.25 -59.1 249.25 -68.15 254.6 -69.15 257.15 -69.15 260.45 -68.4 262.15 -68.4 265.9 -72.4 272.55 -70.4 265.9 -70.4 262.55 -71.15 258.8 -71.15 256.55 -75.8 259.65 -79.8 263.4 -76.65 259.15 -83.8 262.95 -95.2 266.3 -101.2 269.65 -101.2 269.2 -99.2 267.55 -96.45 266.3 -82.45 260.9 -75.2 257.6 -72.4 254.65 -67.1 250.9 -61.1 247.55 -55.1 245.05 -47.05 243.0 -46.2 242.85 -45.4 242.6 -61.1 242.6 -61.75 242.15 -61.1 241.75 -43.7 240.9 -31.7 239.35 -36.35 238.85 -45.7 235.9 -50.35 233.4 -52.55 231.65 -53.75 232.6 -61.1 236.35 -73.15 241.35 -81.8 248.0 -79.15 244.25 -74.4 241.35 -65.5 237.05 -87.8 240.9 -91.8 242.15 -91.8 241.75 -88.45 240.5 -63.35 236.05 -57.1 233.0 -53.55 230.85 -55.0 229.7 -69.15 232.15 -69.15 231.75 -56.3 228.65 -57.1 228.0 -56.4 228.0 -55.8 228.5 -53.75 228.0 -42.8 226.3 -61.1 224.25 -67.1 224.25 -80.45 225.5 -64.4 223.0 -59.1 223.0 -37.6 225.5 -21.65 223.0 -5.6 219.25 Q0.8 216.8 7.15 214.3 L17.15 207.6 23.1 201.65 23.2 201.4 25.2 191.4 M97.35 272.95 L97.35 275.85 96.7 275.85 97.35 272.95 M-53.35 230.7 L-50.35 228.85 -54.55 229.6 -53.35 230.7" fill="#663300" fill-rule="evenodd" stroke="none"/>
    <path d="M-145.45 -36.7 L-90.2 -5.7" fill="none" stroke="#fc0303" stroke-linecap="round" stroke-linejoin="round" stroke-width="4.0"/>
    <path d="M-86.8 -4.25 L-109.1 -5.7 -99.95 -22.05 -86.8 -4.25" fill="#fc0303" fill-rule="evenodd" stroke="none"/>
    <path d="M-147.7 98.25 L-87.55 11.0" fill="none" stroke="#fc0303" stroke-linecap="round" stroke-linejoin="round" stroke-width="4.0"/>
    <path d="M-83.45 6.3 L-86.95 28.25 -102.3 17.65 Q-92.85 11.9 -83.45 6.3" fill="#fc0303" fill-rule="evenodd" stroke="none"/>
    <path d="M-83.45 273.15 L-58.05 249.1" fill="none" stroke="#fc0303" stroke-linecap="round" stroke-linejoin="round" stroke-width="4.0"/>
    <path d="M-54.15 245.05 L-62.1 265.8 -74.95 252.25 -54.15 245.05" fill="#fc0303" fill-rule="evenodd" stroke="none"/>
  </g>
</svg>
