<?xml version="1.0" encoding="UTF-8" standalone="no"?>
<svg xmlns:xlink="http://www.w3.org/1999/xlink" height="38.2px" width="90.05px" xmlns="http://www.w3.org/2000/svg">
  <g transform="matrix(1.0, 0.0, 0.0, 1.0, -97.7, -43.15)">
    <path d="M186.0 45.6 L186.7 46.35 187.25 47.1 187.5 47.65 187.7 48.5 187.75 48.85 187.75 75.65 187.5 76.85 187.35 77.1 187.3 77.2 187.25 77.35 187.1 77.6 187.05 77.7 186.9 77.9 186.85 78.0 186.8 78.05 186.7 78.15 186.0 78.9 185.5 79.3 185.35 79.35 185.3 79.4 184.85 79.75 184.1 80.1 183.9 80.15 183.4 80.4 181.75 80.95 181.05 81.05 180.85 81.1 178.45 81.35 105.95 81.3 103.7 80.95 102.0 80.4 100.6 79.75 99.4 78.9 98.7 78.15 98.05 77.1 97.85 76.55 97.7 75.65 97.7 48.85 97.9 47.65 98.5 46.6 98.85 46.1 99.4 45.6 100.6 44.75 102.4 43.9 104.5 43.35 106.45 43.15 178.95 43.15 180.85 43.35 182.15 43.65 183.4 44.05 184.85 44.75 186.0 45.6" fill="#ffffff" fill-rule="evenodd" stroke="none"/>
  </g>
</svg>
