<svg id="Layer_1" data-name="Layer 1" xmlns="http://www.w3.org/2000/svg" viewBox="0 0 96 96"><defs><style>.cls-1{fill:#fff;}.cls-2,.cls-29{fill:none;stroke:#000;stroke-linecap:round;stroke-linejoin:round;}.cls-3{fill:#a8a8a8;}.cls-4{fill:#a3a3a3;}.cls-5{fill:#9e9e9e;}.cls-6{fill:#999;}.cls-7{fill:#949494;}.cls-8{fill:#8f8f8f;}.cls-9{fill:#8a8a8a;}.cls-10{fill:#858585;}.cls-11{fill:#adadad;}.cls-12{fill:#b2b2b2;}.cls-13{fill:#b8b8b8;}.cls-14{fill:#bdbdbd;}.cls-15{fill:#c2c2c2;}.cls-16{fill:#c7c7c7;}.cls-17{fill:#ccc;}.cls-18{fill:#d1d1d1;}.cls-19{fill:#d6d6d6;}.cls-20{fill:#dbdbdb;}.cls-21{fill:#e0e0e0;}.cls-22{fill:#e5e5e5;}.cls-23{fill:#ebebeb;}.cls-24{fill:#f0f0f0;}.cls-25{fill:#f5f5f5;}.cls-26{fill:#fafafa;}.cls-27{opacity:0.47;}.cls-28{fill:red;}.cls-29{stroke-opacity:0;stroke-width:0.05px;}.cls-30,.cls-31{isolation:isolate;font-family:ArialMT, Arial;}.cls-30{font-size:17.05px;}.cls-31{font-size:25.57px;}</style></defs><title>water</title><path class="cls-1" d="M95.5,95.5H.5V.5h95v95"/><path class="cls-2" d="M95.5,95.5H.5V.5h95Z"/><g id="Layer_4" data-name="Layer 4"><path class="cls-3" d="M44.06,7.91q13.57-2.06,20.65,7.74t.36,21.63a19,19,0,0,1-4.39,4.65,19.53,19.53,0,0,1-9.29,3.82,20.08,20.08,0,0,1-12.75-2.37,15.38,15.38,0,0,1-3.87-3.2q-7.64-7.43-5.57-17Q31.7,11.52,44.06,7.91m3.43.62,1.71.15q1-.15.57-.46l-1.71-.15q-1,.15-.57.46"/><path class="cls-3" d="M61.84,12.35l.51.46,1,1,1.09,1.34.77,1.14.88,1.45L66.69,19l.57,1.5.41,1.39.36,1.6.15,1.5.1,1.71-.1,1.55L68,30.14l-.36,1.5-.51,1.55-.51,1.39L65.82,36l-.73,1.21-1,1.38-.93,1-1.24,1.24-1,.88-1.6,1.14-1,.57-2.17,1-.72.26-4,1-.51.05-.57.05-.46.05H47.49L47,45.86l-.51-.05L46,45.76l-.57-.05-.57-.1-.57-.1-.67-.15-.75-.23-.77-.26-1-.36-1-.41-1.5-.77-1.14-.67-1.65-1.19-1-.93-1.24-1.29-.88-1.14-1-1.39L31,35.42l-.67-1.5-.53-1.39-.46-1.65-.26-1.5-.21-2.79.05-1.5.21-1.65L29.41,22l.46-1.55.51-1.39.72-1.45.72-1.24L32.76,15l.88-1,1.19-1.24,1-.88,1.5-1.14,1-.62,2-1L41,8.76a23.12,23.12,0,0,1,4.7-1.19l.57-.1.51-.05h.51l.46-.05H49.2l.46.05h.46l.46.05.51.05.51.05.57.1.62.1.67.15.72.21L55,8.4l1,.36,1,.41,1.5.77.36.21a18.88,18.88,0,0,0-9.09-1.91A2.66,2.66,0,0,0,48.06,8q-1,.15-.62.46l.26.1L47,8.7q-9,2.82-9.14,11.9t8.72,15q9.29,4.75,16,.1t4.75-14.4q-.88-4-5.11-8.52l-.41-.41"/><path class="cls-4" d="M66.69,19l.57,1.5.41,1.39L68,23.5l.15,1.5.1,1.71-.1,1.55L68,30.11l-.36,1.5-.51,1.55-.51,1.39L65.82,36l-.73,1.24-1,1.38-.93,1-1.24,1.24-1,.88-1.6,1.14-1,.57-2.17,1-.72.26-4,1-.51.05-.57.05-.46.05H47.49L47,45.86l-.51-.05L46,45.76l-.57-.05-.57-.1-.57-.1-.67-.15-.75-.23-.77-.26-1-.36-1-.41-1.5-.77-1.14-.67-1.65-1.19-1-.93-1.24-1.29-.88-1.14-1-1.39L31,35.42l-.67-1.5-.53-1.39-.46-1.65-.26-1.5-.21-2.79.05-1.5.21-1.65L29.41,22l.46-1.55.51-1.39.72-1.45.72-1.24L32.76,15l.88-1,1.19-1.24,1-.88,1.5-1.14,1-.62,2-1L41,8.76a23.12,23.12,0,0,1,4.7-1.19l.57-.1.51-.05h.51l.46-.05H49.2l.46.05h.46l.46.05.51.05.51.05.57.1.62.1.67.15.72.21L55,8.4l1,.36,1,.41,1.5.77,1.09.67,2.72,2.2,1,1,1.09,1.34.77,1.14.88,1.45L66.69,19m-13-10.82a14.51,14.51,0,0,0-10.29,1.5l-.93.57q-8.19,7.38-4.12,16.77T52.86,38.57q10.74.67,14-7.33T64.27,15q-4.7-5.62-10.58-6.76"/><path class="cls-5" d="M67.26,20.55l.8,3,.15,1.5.05,1.65-.05,1.55L68,30.13l-.31,1.45-.51,1.6-.51,1.34L65.85,36l-.77,1.24-1,1.36-.93,1.09-1.24,1.24-1,.83-1.6,1.14-1,.57L56.1,44.57l-.72.26-4,.93-.51.1-.57.05h-.46l-.46.05H48l-.46-.05h-.46l-.51-.05L46,45.81l-.51-.05-.57-.1-.57-.1-.67-.15-.78-.23-.77-.26-1-.36-1-.41-1.5-.77Q31.24,39,30.88,29.09q.57-11.61,9.76-17.86l-.51.51q-7,9.22-1.21,18.41A18.65,18.65,0,0,0,55.58,39.4,13.27,13.27,0,0,0,66,33.56Q69.57,28.3,67,19.94l.21.62"/><path class="cls-5" d="M58.69,10.07q-6.5-3.25-11.2-2.22t-6.86,3.3Q31.44,17.44,30.87,29q.36,10,7.74,14.29l-1.14-.67-1.65-1.19-1-.93-1.24-1.29-.88-1.14-1-1.39L31,35.42l-.67-1.5-.53-1.39-.46-1.65-.26-1.5-.21-2.79.05-1.5.21-1.65L29.41,22l.46-1.55.51-1.39.72-1.45.72-1.24L32.76,15l.88-1,1.19-1.24,1-.88,1.5-1.14,1-.62,2-1L41,8.76a23.12,23.12,0,0,1,4.7-1.19l.57-.1.51-.05h.51l.46-.05H49.2l.46.05h.46l.46.05.51.05.51.05.57.1.62.1.67.15.72.21L55,8.4l1,.36,1,.41,1.5.77.15.1"/><path class="cls-6" d="M68.19,25l.05,1.65-.31,3.43-.31,1.5-.51,1.55-.51,1.39L65.82,36,65,37.24l-1,1.38-.93,1-1.24,1.24-1,.88-1.6,1.14-1,.57-2.17,1-.72.26-4,1-.51.05-.57.05-.46.05H47.49L47,45.86l-.51-.05L46,45.76l-.51-.05-.57-.1-.57-.1-.67-.15-.75-.23-.77-.21-1-.36-1-.46-1.5-.77Q31.23,39,30.87,29a21.61,21.61,0,0,1,7.64-16.26l-.1.15q-5.47,9.34.57,18.69t18.95,8.05q3.87-.62,7.38-4.54,3.35-3.77,2.86-10.79l.05.72"/><path class="cls-6" d="M53.48,8l.72.21.36.1q-10.32-2.63-16,4.49A21.84,21.84,0,0,0,30.87,29q.36,10,7.74,14.29l-1.14-.67-1.65-1.19-1-.93-1.24-1.29-.88-1.14-1-1.39L31,35.42l-.67-1.5-.53-1.39-.46-1.65-.26-1.5-.21-2.79.05-1.5.21-1.65L29.41,22l.46-1.55.51-1.39.72-1.45.72-1.24L32.76,15l.88-1,1.19-1.24,1-.88,1.5-1.14,1-.62,2-1L41,8.76a23.12,23.12,0,0,1,4.7-1.19l.57-.1.51-.05h.51l.46-.05H49.2l.46.05h.46l.46.05.51.05.51.05.57.1.62.1.67.15"/><path class="cls-7" d="M68.24,26.7a17.56,17.56,0,0,1-.31,3.43l-.31,1.5-.51,1.55-.51,1.39-.77,1.5L65,37.3l-1,1.31-.93,1.09-1.24,1.24-1,.83-1.6,1.14-1,.57-2.17,1-.72.26-4,1-.51.05-.57.05-.46.05h-.46l-.46.05h-.46L48,45.92h-.5L47,45.86h-.51L46,45.81l-.51-.1-.57-.1-.57-.1-.67-.15-.75-.18-.77-.26-1-.36-1-.46-1.5-.72Q31.23,39,30.87,29a21.61,21.61,0,0,1,5.89-14.56l-.57,1.09q-3.92,11.92,4.91,19.77t19.15,4.21a13.87,13.87,0,0,0,5-3.92q2.63-3,3-9v.1"/><path class="cls-7" d="M51.77,7.65Q43.82,7,40.34,10.18t-3.61,4.29A21.61,21.61,0,0,0,30.84,29q.36,10,7.74,14.29l-1.14-.67-1.65-1.19-1-.93-1.24-1.29-.88-1.14-1-1.39L31,35.42l-.67-1.5-.53-1.39-.46-1.65-.26-1.5-.21-2.79.05-1.5.21-1.65L29.41,22l.46-1.55.51-1.39.72-1.45.72-1.24L32.76,15l.88-1,1.19-1.24,1-.88,1.5-1.14,1-.62,2-1L41,8.76a23.12,23.12,0,0,1,4.7-1.19l.57-.1.51-.05h.51l.46-.05H49.2l.46.05h.46l.46.05.51.05.51.05.57.1-.41-.05"/><path class="cls-8" d="M60.86,41.77l-1.6,1.14-1,.57-2.17,1-.72.31-4,.93-.51.05-.57.05-.46.05-.46.05H48l-.46-.05h-.46l-.51-.05L46,45.81l-.51-.1-.57-.05-.57-.15-.67-.1-.79-.22-.77-.26-1-.36-1-.41-1.5-.77Q31.23,39,30.87,29a21.37,21.37,0,0,1,4.29-12.65l-.41,1.19Q32.21,29,41.2,36.67t19.61,3.2a13.37,13.37,0,0,0,5.52-5.37L67.78,31l-.67,2.17-.51,1.34-.77,1.5-.77,1.24-1,1.33-.93,1.09-1.24,1.24-1,.83"/><path class="cls-8" d="M48.68,7.39Q41,7.91,38.15,11.57t-3,4.8A21.37,21.37,0,0,0,30.87,29q.36,10,7.74,14.29l-1.14-.67-1.65-1.19-1-.93-1.24-1.29-.88-1.14-1-1.39L31,35.42l-.67-1.5-.53-1.39-.46-1.65-.26-1.5-.21-2.79.05-1.5.21-1.65L29.41,22l.46-1.55.51-1.39.72-1.45.72-1.24L32.76,15l.88-1,1.19-1.24,1-.88,1.5-1.14,1-.62,2-1L41,8.76a23.12,23.12,0,0,1,4.7-1.19l.57-.1.51-.05h.51l.46-.05h.88"/><path class="cls-9" d="M58.28,43.47l-2.17,1-.72.31-4,.93-.51.05-.57.05-.46.05-.46.05H48l-.46-.05h-.46l-.51-.05L46,45.8l-.51-.1-.57-.05-.57-.15-.67-.1-.79-.21-.77-.26-1-.36-1-.41-1.5-.77Q31.23,39,30.87,29a21.52,21.52,0,0,1,2.86-10.42l-.26,1q-1.09,8.57,3.61,14.5a21.37,21.37,0,0,0,11.75,7.79,15.57,15.57,0,0,0,13-2,18.58,18.58,0,0,0,4.44-4.75l-.46.93L65,37.28l-1,1.34-.93,1.09-1.24,1.24-1,.83-1.6,1.14-1,.57"/><path class="cls-9" d="M45,7.7q-6,1.45-8.52,5t-2.74,5.89A21.61,21.61,0,0,0,30.85,29q.36,10,7.74,14.29l-1.14-.67L35.8,41.41l-1-.93-1.21-1.29-.88-1.09-1-1.43L31,35.42l-.67-1.55-.53-1.39-.46-1.6-.26-1.5-.21-2.79L28.9,25l.21-1.6L29.41,22l.46-1.55.51-1.39.72-1.45.72-1.24L32.76,15l.88-1.09,1.19-1.19,1-.88,1.5-1.14,1-.62a22.19,22.19,0,0,1,2-1L41,8.76a18.56,18.56,0,0,1,3.92-1.09"/><path class="cls-10" d="M55.38,44.81l-4,.93-.51.05-.57.05-.46.05h-.46l-.46.05H48l-.46-.05h-.46l-.51-.05L46,45.8l-.51-.1-.57-.05-.57-.15-.67-.1-.78-.21-.77-.26-1-.36-1-.41-1.5-.77Q31.23,39,30.87,29a21.41,21.41,0,0,1,1.5-7.64l-.15,1.39a18.73,18.73,0,0,0,5.21,13.72A21.91,21.91,0,0,0,50,43.25a15.68,15.68,0,0,0,13.14-3.87l2.37-2.89-1.45,2.13-.93,1.09-1.24,1.24-1,.83-1.6,1.14-1,.57-2.17,1-.72.31"/><path class="cls-10" d="M41.91,8.52q-5.68,2.32-7.74,6.29t-1.81,6.57A21.15,21.15,0,0,0,30.87,29q.36,10,7.74,14.29l-1.14-.67-1.65-1.19-1-.93-1.24-1.29-.88-1.14-1-1.39L31,35.42l-.67-1.5-.53-1.39L29.32,31l-.26-1.5-.21-2.86.05-1.5.21-1.65L29.42,22l.46-1.55.51-1.34.72-1.5.72-1.19.93-1.34L33.65,14l1.19-1.24,1-.88,1.5-1.14,1-.62,2-1L41,8.77l.88-.26"/><path class="cls-11" d="M48.26,8.79A15.55,15.55,0,0,1,58,9.93q9.34,5.42,9.65,14.61T58.92,36.92Q48.85,38.72,42.55,31T40.27,14.31a11.72,11.72,0,0,1,8-5.52"/><path class="cls-12" d="M49.25,9a15.15,15.15,0,0,1,10.69,2.17q7.74,5.78,7.49,14t-8.37,11Q49.3,38,43.15,30.67T40.93,14.41A11.61,11.61,0,0,1,49.24,9"/><path class="cls-13" d="M50.64,9.15q5.31-.88,11,3.51,7.12,6.81,5.31,14.61T56.21,36q-10.44-.36-14.5-8.57T43,12.61Q45.37,10,50.64,9.15"/><path class="cls-14" d="M51.57,9.4q5.06-.51,10,3.46Q68.44,19.62,66.69,27T56.26,35.31Q46.25,35,42.38,27t1.29-14.29a12.55,12.55,0,0,1,7.9-3.3"/><path class="cls-15" d="M63,14.62Q68,21,66,27.76T54,34.52a14,14,0,0,1-11.59-8.81q-3.25-7.59,2.29-13.11a12.77,12.77,0,0,1,8.93-2.89q5.14.21,9.4,4.9"/><path class="cls-16" d="M62.92,14.82q4.9,6.25,2.79,12.75T53.42,33.86q-6.7-1-10.21-7.78T45.2,13a11.51,11.51,0,0,1,8.21-2.86q5.16,0,9.51,4.71"/><path class="cls-17" d="M64.06,16.73q3.71,7,.26,12.29T53.17,33.2Q44.7,31,42.95,23.86t4.85-12a11.21,11.21,0,0,1,8.1-1q4.85.93,8.16,5.91"/><path class="cls-18" d="M63.85,17q3.3,6.2.31,11.3t-11,4.34q-7-1.5-9.4-7.75t3.3-11.77q3.15-2.63,8.26-2T63.85,17"/><path class="cls-19" d="M63.54,17.2q3.3,6.61-.31,11.15T53.17,32.17a12.75,12.75,0,0,1-4.29-1.71Q45.78,28.79,44,24a9.65,9.65,0,0,1,.08-5,10.33,10.33,0,0,1,3.51-5.57,10,10,0,0,1,8.21-1.86,11.5,11.5,0,0,1,7.8,5.57"/><path class="cls-20" d="M63.18,17.46q3.15,6.45-.62,10.69a10.29,10.29,0,0,1-9.4,3.56,12.15,12.15,0,0,1-4.23-1.65q-2.84-1.55-4.57-6a9.54,9.54,0,0,1,.1-4.39,9.72,9.72,0,0,1,3-5.21q4.85-3.61,9.24-2.17a11.46,11.46,0,0,1,6.5,5.14"/><path class="cls-21" d="M63.33,18.85Q65.62,25.2,61,29.07T49.86,30.21q-5.94-3.43-5.26-9t6.25-8.1a9.24,9.24,0,0,1,7.22.26,10.5,10.5,0,0,1,5.26,5.47"/><path class="cls-22" d="M63.18,19.83q1.29,6.25-3.25,9.24a10.26,10.26,0,0,1-10.06.74q-5.23-3-4.85-8.18t6-7.95a9.18,9.18,0,0,1,7.12.31,9.09,9.09,0,0,1,5.06,5.83"/><path class="cls-23" d="M62.67,20q1.19,6-3.15,8.82t-9.65.51a13.77,13.77,0,0,1-2.42-2.11A7.21,7.21,0,0,1,45.27,22q1.29-6.09,5.94-7.69a8.73,8.73,0,0,1,7,.36A8.5,8.5,0,0,1,62.67,20"/><path class="cls-24" d="M62.09,20.3a7.65,7.65,0,0,1-2.79,8.1q-3.82,3-9.45.62l-2.29-2a6.45,6.45,0,0,1-1.91-5q1.19-5.62,5.67-7.12a8.27,8.27,0,0,1,6.61.36,8.06,8.06,0,0,1,4.13,5"/><path class="cls-25" d="M61.53,20.5A7.33,7.33,0,0,1,59,28q-3.51,3.1-9.14.57A7.65,7.65,0,0,1,46,22.06a7.87,7.87,0,0,1,2.53-4.9,9.24,9.24,0,0,1,3-1.76,8,8,0,0,1,6.14.51,7.53,7.53,0,0,1,3.92,4.57"/><path class="cls-26" d="M59.26,27.26l-1.65,1.19-1.24.67q-4,.83-6.14-.62a9.91,9.91,0,0,1-2.58-2.17q-2.58-4.29.26-7.95t7.95-2.48q5.94,2.63,5.26,6.92L60.75,25l-1.5,2.22"/><path class="cls-1" d="M60.71,23q-.46,5.06-5,6A7.65,7.65,0,0,1,48,26.36q-2.06-4-.77-6.2a8.84,8.84,0,0,1,2-2.55,6.64,6.64,0,0,1,4.65-1.5q3.82.31,5.37,2.63A7.39,7.39,0,0,1,60.71,23"/><path class="cls-1" d="M60.34,23a6,6,0,0,1-2.06,4.13l-2,1.29-1.65.26-1.55.21q-3.92-1-4.75-2.58A6,6,0,0,1,47,22q.31-1.81.57-2,3.15-4.34,6.35-3.61,4,.88,5,2.58A7.54,7.54,0,0,1,60.34,23"/><path class="cls-1" d="M59.21,25.46l-1.65,1.6-1.24,1-1.65.31-1.55.21a8.63,8.63,0,0,1-4.39-2.22Q47,24,47.28,22.34a5.6,5.6,0,0,1,.62-2.24l1.6-1.81a5.87,5.87,0,0,1,4.57-1.34q5.31.88,5.83,6.14a4.8,4.8,0,0,1-.72,2.37"/><path class="cls-1" d="M58.74,25.51,57.5,26.7l-1.24,1-1.6.26-1.55.26-1.65-.51a6.29,6.29,0,0,1-2.37-1.45q-2.63-3.56-.72-6.4a6.09,6.09,0,0,1,5.89-2.58,7.59,7.59,0,0,1,3.25,1.55,4.78,4.78,0,0,1,2,4.29l-.36,1.19-.41,1.19"/><path class="cls-1" d="M56.88,19a4.65,4.65,0,0,1,2.22,4.23,5.38,5.38,0,0,1-.83,2.32,4.89,4.89,0,0,1-2.06,1.86l-1.6.31L53.06,28l-1.6-.57a6.29,6.29,0,0,1-2.06-1.14q-2.63-3.45-.82-6.17t5.77-2.38A10.55,10.55,0,0,1,56.88,19"/><path class="cls-1" d="M58.34,21.27a4.21,4.21,0,0,1,.31,2.06,4.73,4.73,0,0,1-1.29,2.89l-1.14.88-1.65.36-1.5.26-1.65-.67-1.6-.72a6.29,6.29,0,0,1-1.5-2.17,4.26,4.26,0,0,1-.21-2.06q.77-2.42,1.5-2.79L52,18.08h2.48L57,19.42a4.45,4.45,0,0,1,1.35,1.85"/><path class="cls-1" d="M58.38,23.44,57.77,25a3,3,0,0,1-1.55,1.75l-1.71.41-1.45.31-1.39-.57a5.75,5.75,0,0,1-1.86-1,5.27,5.27,0,0,1-1.14-1.71,3.91,3.91,0,0,1-.26-2.06,8.29,8.29,0,0,1,1.24-2.42l2.41-1.33,2.53.1a5.89,5.89,0,0,1,2,1A5.71,5.71,0,0,1,58,21.38a4.68,4.68,0,0,1,.36,2.06"/><path class="cls-1" d="M58,23.44a4.62,4.62,0,0,1-1,2.32,5,5,0,0,1-2.22,1.09l-1.71.36q-.88,0-3.25-1.71l-.88-1.34a3.57,3.57,0,0,1-.21-2.06,5.14,5.14,0,0,1,.94-2l2.4-1.45,2.63.15,1.45.77a6.29,6.29,0,0,1,1.5,1.81A4,4,0,0,1,58,23.44"/><path class="cls-1" d="M57.71,23.52a7.57,7.57,0,0,1-1.6,2.63l-1.39.41L53,27a8.24,8.24,0,0,1-3.2-1.91l-.6-.86A3.62,3.62,0,0,1,49,22.15a3.69,3.69,0,0,1,1.18-2.06,4.74,4.74,0,0,1,2-1.14l2.63.26.93.46,1.65,1.81a3.88,3.88,0,0,1,.36,2.06"/><path class="cls-1" d="M57.35,23.52a4,4,0,0,1-1.29,2.34l-1.6.46L53,26.74a3.92,3.92,0,0,1-1.75-.93l-1.49-1.18-.31-.46a3.57,3.57,0,0,1-.21-2.06,4.53,4.53,0,0,1,1.48-2l1.45-.88,2.69.31.36.21L57,21.48a3.32,3.32,0,0,1,.36,2.06"/><path class="cls-1" d="M57,23.65a3,3,0,0,1-1,1.75,12.29,12.29,0,0,1-3,1.09l-1.65-1a7.81,7.81,0,0,1-1.6-1.29,3.08,3.08,0,0,1-.21-2.06,7.66,7.66,0,0,1,1.81-2.06,1.68,1.68,0,0,1,.88-.57l1.45.15,1.34.26a4.74,4.74,0,0,1,1.65,1.65A3.32,3.32,0,0,1,57,23.65"/><path class="cls-1" d="M56.68,23.65A2.29,2.29,0,0,1,56,24.94l-1.39.62-1.6.67-1.47-1-1.34-1a2.73,2.73,0,0,1-.31-2.06l2-2.11.36-.21,2.86.62a2.76,2.76,0,0,1,1.24,1.19,3.32,3.32,0,0,1,.36,2.06"/><path class="cls-1" d="M55.9,24.53l-1.56.71-1.39.62a3.83,3.83,0,0,1-2.37-1.71,2.91,2.91,0,0,1-.26-2.06l2-2,2.89.77.77.77a4,4,0,0,1,.36,2.06l-.46.83"/><path class="cls-1" d="M50.79,22.05a2.82,2.82,0,0,1,1.6-1.6l2.94.88.36.36a5.93,5.93,0,0,1,.37,2.06l-.21.31-1.65.83L53,25.51a3,3,0,0,1-1.91-1.41A2.86,2.86,0,0,1,50.8,22"/><path class="cls-1" d="M55.49,23.86l-1.29.67-1.34.62a2,2,0,0,1-1.37-1,2.91,2.91,0,0,1-.26-2.06,2,2,0,0,1,1.19-1.24l2.76.95a2.21,2.21,0,0,1,.31,2.06"/><path class="cls-1" d="M54.66,23.91a2.15,2.15,0,0,1-1.81.88,1.45,1.45,0,0,1-.93-.69A2.91,2.91,0,0,1,51.67,22a1.4,1.4,0,0,1,.83-.79,2.14,2.14,0,0,1,1.85.61,2.23,2.23,0,0,1,.31,2.06"/><path class="cls-1" d="M52.86,24.42l-.51-.31A3.21,3.21,0,0,1,52.14,22l.41-.41a1,1,0,0,1,.93.36A2.23,2.23,0,0,1,53.79,24a1.18,1.18,0,0,1-.93.41"/><path class="cls-1" d="M52.81,24.1,52.76,24A3,3,0,0,1,52.55,22h.05A2.13,2.13,0,0,1,52.86,24l-.05.05"/><g class="cls-27"><path class="cls-28" d="M67.57,31.53l-1,2.94L65,37.16a19.74,19.74,0,0,1-13.72,8.52l-6.46-.14-3.61-1-2.69-1.29-.41-.21a15.06,15.06,0,0,1-2.32-1.65l-2.06-2a18.9,18.9,0,0,1-2.86-4.08,21.06,21.06,0,0,1-1.19-2.94,14.73,14.73,0,0,1-.72-3.1,19.21,19.21,0,0,1,2-11.61l1.6-2.53,2-2.29L36.82,11a28,28,0,0,1,2.48-1.5A18.42,18.42,0,0,1,44,7.84l7.28-.36L55,8.36,58,9.6l2.69,1.75a19,19,0,0,1,3.71,3.71L66,17.6l1.19,2.86a20.29,20.29,0,0,1,1,6,22.29,22.29,0,0,1-.69,5m-18.48-23q1-.15.62-.46L48,8q-1,.15-.62.46l1.71.15m-1.71-.15a19.56,19.56,0,0,0-11.7,7.1,21.79,21.79,0,0,0-4.85,13.42Q31.18,38.7,38.15,43q-7-4.31-7.33-14.07a21.79,21.79,0,0,1,4.85-13.44A19.56,19.56,0,0,1,47.38,8.4"/><path class="cls-29" d="M67.57,31.53l-1,2.94L65,37.16a19.74,19.74,0,0,1-13.72,8.52l-6.46-.14-3.61-1-2.69-1.29-.41-.21a15.06,15.06,0,0,1-2.32-1.65l-2.06-2a18.9,18.9,0,0,1-2.86-4.08,21.06,21.06,0,0,1-1.19-2.94,14.73,14.73,0,0,1-.72-3.1,19.21,19.21,0,0,1,2-11.61l1.6-2.53,2-2.29L36.82,11a28,28,0,0,1,2.48-1.5A18.42,18.42,0,0,1,44,7.84l7.28-.36L55,8.36,58,9.6l2.69,1.75a19,19,0,0,1,3.71,3.71L66,17.6l1.19,2.86a20.29,20.29,0,0,1,1,6,22.29,22.29,0,0,1-.69,5m-18.48-23q1-.15.62-.46L48,8q-1,.15-.62.46l1.71.15M38.15,43.06q-7-4.34-7.33-14.09a21.79,21.79,0,0,1,4.85-13.44A19.56,19.56,0,0,1,47.38,8.4"/></g></g><g id="Layer_3" data-name="Layer 3"><path class="cls-3" d="M21.2,30.61q9.34-1.42,14.21,5.33t.25,14.86a13,13,0,0,1-3,3.19,13.31,13.31,0,0,1-6.4,2.63A13.82,13.82,0,0,1,17.47,55a10.58,10.58,0,0,1-2.66-2.2Q9.55,47.64,11,41.1q1.71-8,10.23-10.52m2.34.43,1.17.11q.67-.11.39-.32l-1.17-.11q-.67.11-.39.32"/><path class="cls-3" d="M33.48,33.66l.35.32.67.67.75.93.53.78.61,1,.43.89.39,1,.29,1,.25,1.1.11,1,.06,1.16-.07,1.06-.14,1.28-.25,1L37.1,48l-.35,1-.53,1-.5.87-.71,1-.66.71-.85.85-.71.61-1.1.78-.67.39-1.49.71L29,56l-2.75.7-.35,0-.39,0-.32,0H23.6l-.32,0-.37-.07-.32,0-.39,0-.39-.07-.39-.07L21,56.36l-.53-.14L19.9,56l-.71-.25-.67-.29-1-.53-.78-.46-1.14-.82L14.85,53,14,52.16l-.61-.78-.67-1-.5-.89-.46-1-.34-1-.32-1.14-.19-1-.14-1.92,0-1,.14-1.14.21-1,.33-1.06.35-1,.5-1,.5-.85.65-.91.61-.71.83-.87.67-.61,1-.78.67-.43,1.38-.71.5-.21a15.91,15.91,0,0,1,3.21-.83l.39-.07.35,0h.35l.32,0h1l.32,0h.32l.32,0,.35,0,.35,0,.39.07.43.07.46.11.5.14.57.18.67.25.71.29,1,.53.25.14a13,13,0,0,0-6.25-1.3A1.83,1.83,0,0,0,24,30.68q-.71.11-.43.32l.18.07-.46.11Q17.1,33.1,17,39.35t6,10.29q6.4,3.27,11,.07t3.27-9.91a13.2,13.2,0,0,0-3.5-5.85l-.29-.29"/><path class="cls-4" d="M36.82,38.25l.39,1,.29,1,.25,1.1.11,1,.06,1.16-.07,1.06-.14,1.28-.25,1L37.1,48l-.35,1-.53,1-.5.87-.71,1-.66.71-.85.85-.71.61-1.1.78-.67.39-1.49.71L29,56l-2.75.7-.35,0-.39,0-.32,0H23.6l-.32,0-.37-.07-.32,0-.39,0-.39-.07-.39-.07L21,56.36l-.53-.14L19.9,56l-.71-.25-.67-.29-1-.53-.78-.46-1.14-.82L14.85,53,14,52.16l-.61-.78-.67-1-.5-.89-.46-1-.34-1-.32-1.14-.19-1-.14-1.92,0-1,.14-1.14.21-1,.33-1.06.35-1,.5-1,.5-.85.65-.91.61-.71.83-.87.67-.61,1-.78.67-.43,1.38-.71.5-.21a15.91,15.91,0,0,1,3.21-.83l.39-.07.35,0h.35l.32,0h1l.32,0h.32l.32,0,.35,0,.35,0,.39.07.43.07.46.11.5.14.57.18.67.25.71.29,1,.53.75.46L33.82,34l.67.67.75.93.53.78.61,1,.43.89m-8.95-7.43a10,10,0,0,0-7.07,1l-.64.39q-5.65,5.08-2.86,11.54a13.07,13.07,0,0,0,10,7.94q7.39.46,9.62-5T35.15,35.47a12.63,12.63,0,0,0-7.28-4.65"/><path class="cls-5" d="M37.2,39.31l.53,2.06.11,1,0,1.14,0,1.06-.18,1.31-.21,1L37.1,48l-.35.93-.53,1-.53.85-.67.93-.66.74-.85.85-.71.57-1.1.78-.67.39-1.49.75L29,56l-2.75.66-.35.07-.39,0H25.2l-.32,0h-1l-.32,0h-.32l-.35,0-.36-.07-.35,0-.39-.07-.39-.07L21,56.39l-.53-.14-.53-.18-.71-.25-.67-.29-1-.53q-5.08-3-5.33-9.84a14.91,14.91,0,0,1,6.72-12.29l-.35.35q-4.79,6.36-.82,12.68A12.89,12.89,0,0,0,29.2,52.28a9.14,9.14,0,0,0,7.14-4q2.52-3.66.75-9.38l.14.43"/><path class="cls-5" d="M31.31,32.1q-4.47-2.24-7.71-1.53a9.08,9.08,0,0,0-4.73,2.29,15,15,0,0,0-6.71,12.28Q12.41,52,17.49,55l-.78-.46-1.14-.82-.71-.64L14,52.17l-.61-.78-.67-1-.5-.89-.46-1-.34-1-.32-1.14-.19-1-.14-1.92,0-1,.14-1.14.21-1,.33-1.06.35-1,.5-1,.5-.85.65-.91.61-.71.83-.87.67-.61,1-.78.67-.43,1.38-.71.5-.21a15.91,15.91,0,0,1,3.21-.83l.39-.07.35,0h.35l.32,0h1l.32,0h.32l.32,0,.35,0,.35,0,.39.07.43.07.46.11.5.14.57.18.67.25.71.29,1,.53.11.07"/><path class="cls-6" d="M37.85,42.38l0,1.14-.21,2.34-.21,1L37.1,48l-.35,1-.53,1-.53.85-.67,1-.67.73-.85.85-.71.61-1.1.78-.67.39-1.49.71L29,56l-2.75.7-.35,0-.39,0-.32,0H23.6l-.32,0-.37-.07h-.34l-.35,0-.39-.07-.39-.07L21,56.39l-.53-.14-.53-.14-.71-.25-.68-.33-1-.53Q12.41,52,12.17,45.16A14.86,14.86,0,0,1,17.43,34l-.07.11q-3.77,6.43.39,12.86t13,5.54a8.84,8.84,0,0,0,5.08-3.13q2.29-2.59,2-7.43l0,.5"/><path class="cls-6" d="M27.72,30.65l.5.14.25.07q-7.1-1.81-11,3.09a15,15,0,0,0-5.26,11.19Q12.42,52,17.49,55l-.78-.46-1.14-.82-.71-.64L14,52.17l-.61-.78-.67-1-.5-.89-.46-1-.35-1-.32-1.14-.19-1-.14-1.92,0-1,.14-1.14.21-1,.33-1.06.35-1,.5-1,.5-.85.65-.91.61-.71.83-.87.67-.61,1-.78.67-.43,1.38-.71.5-.21a15.91,15.91,0,0,1,3.21-.83l.39-.07.35,0h.35l.32,0h1l.32,0h.32l.32,0,.35,0,.35,0,.39.07.43.07.46.11"/><path class="cls-7" d="M37.88,43.53a12.09,12.09,0,0,1-.21,2.34l-.21,1L37.1,48l-.35,1-.53,1-.53.85-.67.93-.67.76-.85.85-.71.57-1.1.78-.67.39-1.49.71L29,56l-2.75.7-.35,0-.39,0-.32,0h-.32l-.32,0h-.32l-.32,0H23.6l-.32,0h-.37l-.34-.07-.35-.07-.39-.07-.39-.07L21,56.36l-.53-.11-.53-.18-.71-.25-.68-.29-1-.5q-5.08-3-5.33-9.88a14.86,14.86,0,0,1,4.05-10l-.39.75Q13.12,44.1,19.2,49.47t13.18,2.91a9.5,9.5,0,0,0,3.43-2.7q1.81-2.06,2.06-6.22v.06"/><path class="cls-7" d="M26.55,30.43Q21.08,30,18.7,32.14t-2.49,2.95a14.86,14.86,0,0,0-4.05,10Q12.41,52,17.49,55l-.78-.46-1.14-.82L14.85,53,14,52.15l-.61-.78-.67-1-.5-.89-.46-1-.34-1-.32-1.14-.19-1-.14-1.92,0-1,.14-1.14.21-1,.33-1.06.35-1,.5-1,.5-.85.65-.91.61-.71.83-.87.67-.61,1-.78.67-.43,1.38-.71.5-.21a15.91,15.91,0,0,1,3.21-.83l.39-.07.35,0h.35l.32,0h1l.32,0h.32l.32,0,.35,0,.35,0,.39.07-.29,0"/><path class="cls-8" d="M32.8,53.91l-1.1.78-.67.39-1.49.71L29,56l-2.77.67-.35,0-.39,0-.32,0-.32,0h-1l-.32,0h-.32l-.35,0-.36-.07-.35-.07-.39,0-.39-.11L21,56.39l-.53-.14-.53-.18-.71-.25-.67-.29-1-.53q-5.08-3-5.33-9.88a14.7,14.7,0,0,1,2.95-8.7l-.3.82a12.64,12.64,0,0,0,4.44,13.14q6.15,5.26,13.5,2.2a9.08,9.08,0,0,0,3.8-3.69l1-2.38L37.1,48l-.35.93-.53,1-.53.85-.67.93-.66.75-.85.85-.71.57"/><path class="cls-8" d="M24.42,30.25q-5.26.35-7.25,2.86t-2.06,3.3a14.7,14.7,0,0,0-2.95,8.7Q12.42,52,17.49,55l-.78-.46-1.14-.82L14.86,53,14,52.15l-.61-.78-.67-1-.5-.89-.46-1-.35-1-.32-1.14-.19-1-.14-1.92,0-1,.14-1.14.21-1,.33-1.06.35-1,.5-1,.5-.85.65-.91.61-.71.83-.87.67-.61,1-.78.67-.43,1.38-.71.5-.21a15.91,15.91,0,0,1,3.21-.83l.39-.07.35,0h.35l.32,0h.61"/><path class="cls-9" d="M31,55.08l-1.49.71L29,56l-2.77.67-.35,0-.39,0-.32,0-.32,0h-1l-.32,0h-.32l-.35,0-.36-.07-.35-.07-.39,0-.39-.11L21,56.39l-.53-.14-.53-.18-.71-.25-.67-.29-1-.53q-5.08-3-5.33-9.88a14.81,14.81,0,0,1,2-7.17l-.18.67a12.83,12.83,0,0,0,2.47,10A14.7,14.7,0,0,0,24.52,54a10.72,10.72,0,0,0,8.95-1.38,12.79,12.79,0,0,0,3.06-3.27l-.32.64-.53.85-.67.93-.66.74-.85.85-.71.57-1.1.78-.67.39"/><path class="cls-9" d="M21.86,30.47q-4.12,1-5.86,3.43a8.9,8.9,0,0,0-1.88,4.05,14.86,14.86,0,0,0-2,7.21Q12.41,52,17.49,55l-.78-.46-1.14-.85L14.85,53,14,52.16l-.61-.75-.66-1-.5-.85-.46-1.06-.35-.94-.32-1.1-.19-1-.14-1.92,0-1.08.14-1.1.21-1,.31-1,.35-1,.5-1,.5-.85.65-.91.61-.75.83-.83.67-.61,1-.78.67-.43a15.27,15.27,0,0,1,1.38-.71l.5-.21a12.77,12.77,0,0,1,2.7-.75"/><path class="cls-10" d="M29,56l-2.77.67-.35,0-.39,0-.32,0h-.32l-.32,0h-.64l-.32,0h-.32l-.35,0-.36-.07-.35-.07-.39,0-.39-.11L21,56.39l-.53-.14-.53-.18-.71-.25-.67-.29-1-.53q-5.08-3-5.33-9.88a14.73,14.73,0,0,1,1-5.26l-.11,1a12.92,12.92,0,0,0,3.59,9.45A15.08,15.08,0,0,0,25.34,55a10.86,10.86,0,0,0,9.06-2.68l1.66-2-1,1.46-.69.74-.85.85-.71.57-1.1.78-.67.39-1.49.71L29,56"/><path class="cls-10" d="M19.76,31a9.85,9.85,0,0,0-5.33,4.33,8.52,8.52,0,0,0-1.24,4.51,14.53,14.53,0,0,0-1,5.26Q12.42,52,17.49,55l-.78-.46-1.14-.82-.71-.64L14,52.17l-.61-.78-.67-1-.5-.89-.46-1-.35-1-.32-1.1-.19-1-.14-2,0-1,.14-1.14.21-1,.33-1.06.35-.93.5-1,.5-.82.65-.94.61-.75.83-.83.67-.61,1-.78.67-.43,1.38-.71.5-.21.61-.18"/><path class="cls-11" d="M24.14,31.21a10.7,10.7,0,0,1,6.68.78Q37.24,35.73,37.45,42t-6,8.53a11.05,11.05,0,0,1-11.26-4.05A10.31,10.31,0,0,1,18.63,35a8.06,8.06,0,0,1,5.5-3.8"/><path class="cls-12" d="M24.81,31.35a10.42,10.42,0,0,1,7.36,1.49q5.33,4,5.14,9.62t-5.75,7.61a10.67,10.67,0,0,1-10.93-3.81,10,10,0,0,1-1.54-11.18,8,8,0,0,1,5.71-3.73"/><path class="cls-13" d="M25.77,31.46q3.66-.61,7.57,2.42,4.9,4.69,3.66,10.05T29.6,50q-7.17-.25-10-5.87t.89-10.23a8.92,8.92,0,0,1,5.26-2.38"/><path class="cls-14" d="M26.41,31.64A9.37,9.37,0,0,1,33.3,34q4.73,4.65,3.51,9.72t-7.17,5.71q-6.89-.25-9.56-5.71T21,33.89a8.69,8.69,0,0,1,5.43-2.29"/><path class="cls-15" d="M34.29,35.23q3.43,4.37,2.06,9.06t-8.29,4.65a9.59,9.59,0,0,1-7.93-6.07q-2.22-5.23,1.56-9a8.79,8.79,0,0,1,6.14-2,9.11,9.11,0,0,1,6.46,3.37"/><path class="cls-16" d="M34.22,35.37q3.37,4.3,1.92,8.77t-8.46,4.34a9.26,9.26,0,0,1-7.06-5.37q-2.44-4.69,1.38-9a8,8,0,0,1,5.65-2,8.81,8.81,0,0,1,6.54,3.23"/><path class="cls-17" d="M35,36.67q2.56,4.79.18,8.45T27.48,48q-5.8-1.56-7-6.43t3.34-8.28a7.71,7.71,0,0,1,5.58-.71A8.67,8.67,0,0,1,35,36.67"/><path class="cls-18" d="M34.86,36.86q2.29,4.26.21,7.78t-7.59,3A8.27,8.27,0,0,1,21,42.3q-1.63-4.3,2.29-8.1A7,7,0,0,1,29,32.85a8.26,8.26,0,0,1,5.86,4"/><path class="cls-19" d="M34.65,37q2.29,4.57-.21,7.68a7.34,7.34,0,0,1-7,2.63,8.79,8.79,0,0,1-2.95-1.17,7.73,7.73,0,0,1-3.34-4.44,6.64,6.64,0,0,1,0-3.43,7.13,7.13,0,0,1,2.42-3.83,6.86,6.86,0,0,1,5.65-1.28A7.92,7.92,0,0,1,34.66,37"/><path class="cls-20" d="M34.4,37.18q2.17,4.44-.43,7.36A7.08,7.08,0,0,1,27.48,47a8.36,8.36,0,0,1-2.91-1.14,7.59,7.59,0,0,1-3.16-4.12,6.54,6.54,0,0,1,.07-3,6.68,6.68,0,0,1,2.06-3.59q3.38-2.45,6.39-1.46a7.89,7.89,0,0,1,4.47,3.55"/><path class="cls-21" d="M34.51,38.14q1.56,4.37-1.6,7T25.24,46q-4.09-2.34-3.62-6.18a6.77,6.77,0,0,1,4.3-5.58,6.36,6.36,0,0,1,5,.18,7.22,7.22,0,0,1,3.62,3.77"/><path class="cls-22" d="M34.4,38.81q.89,4.3-2.24,6.36a7,7,0,0,1-6.93.5q-3.59-2-3.34-5.61T26,34.59a6.32,6.32,0,0,1,4.9.21,6.25,6.25,0,0,1,3.48,4"/><path class="cls-23" d="M34,39q.82,4.15-2.17,6.07a6.72,6.72,0,0,1-6.64.35,9.46,9.46,0,0,1-1.67-1.46,5,5,0,0,1-1.49-3.62Q23,36.1,26.16,35a6,6,0,0,1,4.83.25A5.85,5.85,0,0,1,34,39"/><path class="cls-24" d="M33.66,39.13a5.33,5.33,0,0,1-1.92,5.58q-2.61,2.1-6.5.43l-1.56-1.38a4.43,4.43,0,0,1-1.31-3.43q.82-3.87,3.91-4.9a5.71,5.71,0,0,1,4.57.25A5.54,5.54,0,0,1,33.7,39.1"/><path class="cls-25" d="M33.26,39.28a5,5,0,0,1-1.71,5.18q-2.38,2.13-6.29.39a5.27,5.27,0,0,1-2.66-4.51A5.43,5.43,0,0,1,24.31,37a6.36,6.36,0,0,1,2-1.21,5.48,5.48,0,0,1,4.23.35,5.18,5.18,0,0,1,2.7,3.16"/><path class="cls-26" d="M31.7,43.93l-1.14.82-.85.46a5.48,5.48,0,0,1-4.23-.43,5.63,5.63,0,0,1-1.78-1.49,4.46,4.46,0,0,1,.18-5.47,5,5,0,0,1,5.47-1.71q4.09,1.81,3.62,4.76l-.24,1.52-1,1.53"/><path class="cls-1" d="M32.7,40.94q-.32,3.48-3.43,4.12A5.27,5.27,0,0,1,24,43.29q-1.42-2.74-.53-4.26a6.08,6.08,0,0,1,1.35-1.71,4.56,4.56,0,0,1,3.19-1,4.57,4.57,0,0,1,3.69,1.81,5.2,5.2,0,0,1,1,2.86"/><path class="cls-1" d="M32.44,41A4.11,4.11,0,0,1,31,43.84l-1.35.89-1.14.18-1,.13q-2.7-.71-3.27-1.78a4.08,4.08,0,0,1-.93-2.91A3.51,3.51,0,0,1,23.68,39Q25.84,36,28,36.5q2.74.61,3.43,1.78a5.08,5.08,0,0,1,1,2.7"/><path class="cls-1" d="M31.67,42.69l-1.14,1.1-.85.67-1.14.21-1,.14a5.94,5.94,0,0,1-3-1.53,3.92,3.92,0,0,1-1-2.77A3.85,3.85,0,0,1,23.9,39L25,37.75a4.07,4.07,0,0,1,3.16-.93,4.34,4.34,0,0,1,4,4.23,3.3,3.3,0,0,1-.5,1.63"/><path class="cls-1" d="M31.35,42.72l-.86.81-.85.71-1.1.18-1.05.19-1.14-.35a4.33,4.33,0,0,1-1.63-1q-1.81-2.45-.5-4.41a4.19,4.19,0,0,1,4.05-1.78,5.23,5.23,0,0,1,2.24,1.06,3.23,3.23,0,0,1,1.38,2.95l-.25.82-.29.82"/><path class="cls-1" d="M30.07,38.25a3.19,3.19,0,0,1,1.53,2.91,3.7,3.7,0,0,1-.57,1.6A3.37,3.37,0,0,1,29.6,44l-1.1.21-1.06.18L26.34,44a4.33,4.33,0,0,1-1.42-.78q-1.81-2.38-.57-4.26a4,4,0,0,1,4-1.63,7.22,7.22,0,0,1,1.71.89"/><path class="cls-1" d="M31.06,39.81a2.9,2.9,0,0,1,.21,1.43,3.25,3.25,0,0,1-.89,2l-.78.61-1.14.25-1,.18-1.14-.46-1.09-.51a4.33,4.33,0,0,1-1-1.47,2.93,2.93,0,0,1-.11-1.43q.53-1.67,1-1.92l1.63-.85h1.71l1.71.93a3.06,3.06,0,0,1,.93,1.28"/><path class="cls-1" d="M31.1,41.3l-.42,1.09a2.09,2.09,0,0,1-1.06,1.21l-1.17.29-1,.22-1-.39A4,4,0,0,1,25.2,43a3.63,3.63,0,0,1-.78-1.19,2.69,2.69,0,0,1-.18-1.42,5.71,5.71,0,0,1,.85-1.67l1.67-.91,1.71.07a4.06,4.06,0,0,1,1.38.71,4,4,0,0,1,1,1.28,3.22,3.22,0,0,1,.25,1.42"/><path class="cls-1" d="M30.85,41.3a3.18,3.18,0,0,1-.71,1.6,3.43,3.43,0,0,1-1.51.75l-1.17.25a5.3,5.3,0,0,1-2.24-1.17l-.62-.91a2.46,2.46,0,0,1-.14-1.42A3.54,3.54,0,0,1,25.1,39l1.67-1,1.81.11,1,.53a4.31,4.31,0,0,1,1,1.25,2.75,2.75,0,0,1,.25,1.42"/><path class="cls-1" d="M30.63,41.37a5.23,5.23,0,0,1-1.1,1.81l-1,.29-1.17.29a5.71,5.71,0,0,1-2.2-1.32l-.42-.62a2.49,2.49,0,0,1-.15-1.4A2.54,2.54,0,0,1,25.44,39a3.26,3.26,0,0,1,1.35-.78l1.83.17.64.32,1.14,1.25a2.67,2.67,0,0,1,.25,1.42"/><path class="cls-1" d="M30.39,41.37A2.77,2.77,0,0,1,29.5,43l-1.1.32-1,.29A2.7,2.7,0,0,1,26.19,43l-1-.82L25,41.81a2.46,2.46,0,0,1-.14-1.42,3.11,3.11,0,0,1,1-1.38l1-.62,1.85.21.25.14,1.21,1.21a2.29,2.29,0,0,1,.25,1.42"/><path class="cls-1" d="M30.17,41.44a2.05,2.05,0,0,1-.67,1.21,8.45,8.45,0,0,1-2.1.75l-1.14-.67a5.37,5.37,0,0,1-1.09-.91A2.12,2.12,0,0,1,25,40.39,5.27,5.27,0,0,1,26.27,39a1.14,1.14,0,0,1,.61-.39l1,.11.93.18A3.26,3.26,0,0,1,29.94,40a2.29,2.29,0,0,1,.25,1.42"/><path class="cls-1" d="M29.92,41.44a1.59,1.59,0,0,1-.5.89l-1,.43-1.1.46-1-.71-.92-.7a1.87,1.87,0,0,1-.21-1.42l1.38-1.46.25-.14,2,.43a1.9,1.9,0,0,1,.85.82,2.29,2.29,0,0,1,.25,1.42"/><path class="cls-1" d="M29.39,42l-1.06.5-1,.41a2.63,2.63,0,0,1-1.63-1.14,2,2,0,0,1-.18-1.42L26.91,39l2,.53.53.53a2.75,2.75,0,0,1,.25,1.42l-.32.57"/><path class="cls-1" d="M25.87,40.34a1.94,1.94,0,0,1,1.1-1.1l2,.61.25.25a4.07,4.07,0,0,1,.25,1.42l-.14.21-1.14.57-.85.43a2.09,2.09,0,0,1-1.31-1,2,2,0,0,1-.18-1.42"/><path class="cls-1" d="M29.11,41.58l-.89.46-.93.43a1.38,1.38,0,0,1-1-.66,2,2,0,0,1-.18-1.42,1.39,1.39,0,0,1,.81-.86l1.92.64a1.51,1.51,0,0,1,.21,1.42"/><path class="cls-1" d="M28.54,41.62a1.49,1.49,0,0,1-1.25.61,1,1,0,0,1-.64-.46,2,2,0,0,1-.18-1.42,1,1,0,0,1,.57-.57,1.47,1.47,0,0,1,1.28.43,1.54,1.54,0,0,1,.21,1.42"/><path class="cls-1" d="M27.3,42l-.38-.21a2.21,2.21,0,0,1-.14-1.46l.29-.29a.71.71,0,0,1,.64.25,1.54,1.54,0,0,1,.21,1.42.81.81,0,0,1-.64.29"/><path class="cls-1" d="M27.26,41.76l0,0a2.09,2.09,0,0,1-.14-1.42h0a1.46,1.46,0,0,1,.18,1.42l0,0"/></g><g id="Layer_2" data-name="Layer 2"><path class="cls-3" d="M68.47,30.41Q77.81,29,82.67,35.74t.25,14.86a13,13,0,0,1-3,3.19,13.31,13.31,0,0,1-6.4,2.63,13.82,13.82,0,0,1-8.77-1.63,10.58,10.58,0,0,1-2.66-2.2q-5.26-5.14-3.83-11.69,1.71-8,10.23-10.52m2.34.43,1.17.11q.67-.11.39-.32l-1.17-.11q-.67.11-.39.32"/><path class="cls-3" d="M80.72,33.47l.35.32.7.67.75.93.53.78.61,1,.43.89.39,1,.29,1,.25,1.1.11,1,.07,1.17-.07,1.06L85,45.69l-.25,1-.35,1.06-.35,1-.53,1-.5.85-.75.94-.64.71-.85.85-.69.63-1.14.78-.67.39-1.49.71-.5.18-2.77.67-.35,0-.39,0-.32,0h-1.6l-.32,0-.35,0-.32,0-.39,0L69,56.34l-.39-.07-.46-.11L67.67,56l-.53-.18-.71-.25-.67-.29-1-.53-.78-.46-1.14-.82-.71-.64L61.24,52l-.61-.78-.67-1-.47-.89-.46-1-.35-1-.32-1.14-.18-1L58,43.26l0-1,.14-1.14.21-1L58.74,39l.35-1,.5-1,.5-.85.64-.93.61-.71.82-.85.67-.61,1-.78.67-.43,1.38-.71.5-.21a15.91,15.91,0,0,1,3.23-.82l.39-.07.35,0h.35l.32,0h1l.32,0h.29l.32,0,.35,0,.35,0,.39.07.43.07.46.11.5.14.57.18.67.25.71.29,1,.53.25.14a13,13,0,0,0-6.25-1.31,1.83,1.83,0,0,0-1.21-.18q-.71.11-.43.32l.18.07L70.5,31q-6.18,1.92-6.29,8.17t6,10.29q6.4,3.27,11,.07t3.27-9.91A13.23,13.23,0,0,0,81,33.73l-.29-.29"/><path class="cls-4" d="M84.06,38.05l.39,1,.29,1,.25,1.1.11,1,.07,1.17-.07,1.06L85,45.69l-.25,1-.35,1.06-.35,1-.53,1-.5.85-.72.94-.64.71-.85.85-.69.63-1.14.78-.67.39-1.49.71-.5.18-2.77.67-.35,0-.39,0-.32,0h-1.6l-.32,0-.35,0-.32,0-.39,0L69,56.34l-.39-.07-.46-.11L67.67,56l-.53-.18-.71-.25-.67-.29-1-.53-.78-.46-1.14-.82-.71-.64L61.24,52l-.61-.78-.67-1-.47-.89-.46-1-.35-1-.32-1.14-.18-1L58,43.26l0-1,.14-1.14.21-1L58.74,39l.35-1,.5-1,.5-.85.64-.93.61-.71.82-.85.67-.61,1-.78.67-.43,1.38-.71.5-.21a15.91,15.91,0,0,1,3.23-.82l.39-.07.35,0h.35l.32,0h1l.32,0h.29l.32,0,.35,0,.35,0,.39.07.43.07.46.11.5.14.57.18.67.25.71.29,1,.53.75.46,1.9,1.53.7.65.75.93.53.78.61,1,.43.89m-8.95-7.43a10,10,0,0,0-7.08,1l-.64.39q-5.65,5.08-2.86,11.54a13.06,13.06,0,0,0,10,7.94q7.39.46,9.62-5T82.38,35.29a12.63,12.63,0,0,0-7.28-4.65"/><path class="cls-5" d="M84.45,39.12,85,41.17l.11,1,0,1.14,0,1.06-.18,1.31-.21,1-.35,1.1-.35.93-.53,1-.54.85-.67.9-.64.75-.85.85L80,53.7l-1.13.79-.67.39-1.49.75-.5.18-2.77.64-.35.07-.39,0h-.32l-.32,0h-1l-.32,0H70.5l-.35,0-.35,0-.35,0L69,56.38l-.39-.07-.46-.11-.53-.14-.53-.18-.71-.25-.67-.29-1-.53q-5.08-3-5.33-9.84a14.91,14.91,0,0,1,6.72-12.29l-.35.35Q61,39.4,64.94,45.72A12.91,12.91,0,0,0,76.42,52.1a9.14,9.14,0,0,0,7.14-4q2.52-3.66.75-9.38l.14.43"/><path class="cls-5" d="M78.55,31.9q-4.47-2.24-7.71-1.53a9.08,9.08,0,0,0-4.73,2.29A15,15,0,0,0,59.4,45q.25,6.86,5.33,9.84l-.78-.46-1.14-.82-.71-.64L61.24,52l-.61-.8-.67-1-.47-.89-.46-1-.35-1-.32-1.14-.18-1L58,43.26l0-1,.14-1.14.21-1L58.74,39l.35-1,.5-1,.5-.85.64-.93.61-.71.82-.85.67-.61,1-.78.67-.43,1.38-.71.5-.21a15.91,15.91,0,0,1,3.23-.82l.39-.07.35,0h.35l.32,0h1l.32,0h.29l.32,0,.35,0,.35,0,.39.07.43.07.46.11.5.14.57.18.67.25.71.29,1,.53.11.07"/><path class="cls-6" d="M85.09,42.21l0,1.14-.21,2.34-.21,1-.35,1.06-.35,1-.53,1-.54.85-.67.94-.64.71-.85.85-.69.63-1.14.78-.67.39-1.49.71-.5.18-2.77.67-.35,0-.39,0-.32,0h-1.6l-.32,0-.35,0-.35,0-.35,0L69,56.34l-.39-.07-.46-.11L67.67,56l-.53-.14-.71-.25-.67-.32-1-.53q-5.08-2.95-5.33-9.84a14.86,14.86,0,0,1,5.26-11.19l-.07.11q-3.77,6.43.39,12.86t13,5.54a8.84,8.84,0,0,0,5.08-3.13q2.29-2.59,2-7.43l0,.5"/><path class="cls-6" d="M75,30.45l.5.14.25.07q-7.08-1.81-11,3.09a15,15,0,0,0-5.26,11.19q.25,6.86,5.33,9.84L64,54.32l-1.14-.82-.71-.64L61.25,52l-.62-.79-.67-1-.47-.89-.46-1-.35-1-.32-1.14-.18-1L58,43.26l0-1,.14-1.14.21-1L58.74,39l.35-1,.5-1,.5-.85.64-.93.61-.71.82-.85.67-.61,1-.78.67-.43,1.38-.71.5-.21a15.91,15.91,0,0,1,3.23-.82l.39-.07.35,0h.35l.32,0h1l.32,0h.29l.32,0,.35,0,.35,0,.39.07.43.07.46.11"/><path class="cls-7" d="M85.13,43.34a12.09,12.09,0,0,1-.21,2.34l-.21,1-.35,1.06-.35,1-.53,1-.54.86-.67.9-.64.75-.85.85L80,53.7l-1.13.79-.67.39-1.49.71-.5.18-2.77.67-.35,0-.39,0-.32,0H72.1l-.32,0h-.29l-.32,0h-.32l-.32,0h-.35l-.35,0-.35-.07-.39-.07-.39-.07-.46-.11-.53-.11-.53-.18-.71-.25-.67-.32-1-.5q-5.08-3-5.33-9.88a14.86,14.86,0,0,1,4.05-10l-.39.75q-2.7,8.21,3.37,13.6t13.18,2.91a9.5,9.5,0,0,0,3.43-2.7q1.81-2.06,2.06-6.22v.07"/><path class="cls-7" d="M73.78,30.23q-5.47-.43-7.85,1.71T63.44,34.9a14.86,14.86,0,0,0-4.05,10q.25,6.86,5.33,9.84l-.78-.46-1.14-.82-.71-.64L61.23,52l-.59-.76-.67-1-.47-.89-.46-1-.35-1-.32-1.14-.18-1L58,43.26l0-1,.14-1.14.21-1L58.74,39l.35-1,.5-1,.5-.85.64-.93.61-.71.82-.85.67-.61,1-.78.67-.43,1.38-.71.5-.21a15.91,15.91,0,0,1,3.23-.82l.39-.07.35,0h.35l.32,0h1l.32,0h.29l.32,0,.35,0,.35,0,.39.07-.29,0"/><path class="cls-8" d="M80.06,53.72l-1.14.78-.67.39-1.49.71-.5.21-2.77.64-.35,0-.39,0-.32,0-.32,0h-1l-.32,0H70.5l-.35,0-.35,0-.35-.07-.39,0-.39-.11-.46-.07-.53-.14-.53-.18-.71-.25-.67-.29-1-.53q-5.08-3-5.33-9.88a14.7,14.7,0,0,1,2.95-8.69l-.29.82A12.64,12.64,0,0,0,66.5,50.2q6.16,5.26,13.5,2.2a9.08,9.08,0,0,0,3.8-3.69l1-2.38-.46,1.49-.35.93-.53,1-.53.85-.67.9-.64.75-.85.85L80,53.7"/><path class="cls-8" d="M71.66,30.06q-5.26.35-7.25,2.86t-2.07,3.33a14.7,14.7,0,0,0-2.95,8.7q.25,6.86,5.33,9.84l-.78-.46-1.14-.82-.71-.64L61.24,52l-.61-.79-.67-1-.47-.89-.46-1-.35-1-.32-1.14-.18-1L58,43.26l0-1,.14-1.14.21-1L58.74,39l.35-1,.5-1,.5-.85.64-.93.61-.71.82-.85.67-.61,1-.78.67-.43,1.38-.71.5-.21a15.91,15.91,0,0,1,3.23-.82l.39-.07.35,0h.35l.32,0h.61"/><path class="cls-9" d="M78.27,54.89l-1.49.71-.5.21-2.77.64-.35,0-.39,0-.32,0-.32,0h-1l-.32,0h-.32l-.35,0-.35,0-.35-.07-.39,0-.39-.11-.46-.07-.53-.14-.53-.18-.71-.25-.67-.29-1-.53q-5.08-3-5.33-9.88a14.81,14.81,0,0,1,2-7.17l-.17.67a12.82,12.82,0,0,0,2.49,10,14.7,14.7,0,0,0,8.08,5.39,10.72,10.72,0,0,0,8.95-1.38,12.79,12.79,0,0,0,3.06-3.27l-.32.64-.54.82-.67.9-.64.75-.85.85L80,53.7l-1.13.79-.67.39"/><path class="cls-9" d="M69.1,30.27q-4.12,1-5.86,3.43a8.9,8.9,0,0,0-1.88,4.05,14.86,14.86,0,0,0-2,7.21q.25,6.86,5.33,9.84l-.78-.46-1.14-.85-.71-.64L61.24,52l-.61-.77-.67-1-.47-.85L59,48.28l-.35-1-.33-1.1-.18-1L58,43.27l0-1.06.14-1.1.21-1L58.73,39l.35-1,.5-1,.5-.85.64-.93.61-.75.82-.82.67-.61,1-.78.67-.43a15.27,15.27,0,0,1,1.38-.71l.5-.21a12.77,12.77,0,0,1,2.7-.75"/><path class="cls-10" d="M76.28,55.81l-2.77.64-.35,0-.39,0-.32,0h-.32l-.32,0h-.64l-.32,0h-.32l-.35,0-.35,0-.35-.07-.39,0-.39-.11-.46-.07-.53-.14-.53-.18-.71-.25-.67-.29-1-.53q-5.08-3-5.33-9.88a14.73,14.73,0,0,1,1-5.26l-.12,1a12.92,12.92,0,0,0,3.59,9.45,15.08,15.08,0,0,0,8.67,4.65,10.86,10.86,0,0,0,9.06-2.67l1.63-2-1,1.42-.64.75-.85.85L80,53.7l-1.13.79-.67.39-1.49.71-.5.21"/><path class="cls-10" d="M67,30.84a9.85,9.85,0,0,0-5.33,4.33,8.56,8.56,0,0,0-1.25,4.51,14.53,14.53,0,0,0-1,5.26q.25,6.89,5.33,9.84L64,54.32l-1.14-.82-.71-.64L61.25,52l-.62-.78-.67-1-.47-.89-.46-1-.35-1-.33-1.1-.18-1-.14-2,0-1,.14-1.14.21-1L58.73,39l.35-.93.5-1,.5-.82.64-.93.61-.75.82-.85.67-.61,1-.78.67-.43,1.38-.71.5-.21.61-.18"/><path class="cls-11" d="M71.37,31A10.7,10.7,0,0,1,78,31.8q6.44,3.73,6.65,10.05t-6,8.53a11.05,11.05,0,0,1-11.26-4.05,10.31,10.31,0,0,1-1.56-11.51,8.06,8.06,0,0,1,5.5-3.8"/><path class="cls-12" d="M72.06,31.16a10.42,10.42,0,0,1,7.34,1.51q5.33,4,5.14,9.62t-5.75,7.6a10.68,10.68,0,0,1-10.93-3.82,10,10,0,0,1-1.51-11.19,8,8,0,0,1,5.71-3.73"/><path class="cls-13" d="M73,31.27q3.66-.61,7.57,2.42,4.9,4.69,3.66,10.05t-7.39,6q-7.18-.25-10-5.9t.89-10.23A8.92,8.92,0,0,1,73,31.27"/><path class="cls-14" d="M73.65,31.45a9.37,9.37,0,0,1,6.89,2.38q4.73,4.65,3.51,9.72t-7.17,5.71Q70,49,67.33,43.54t.89-9.84a8.69,8.69,0,0,1,5.43-2.29"/><path class="cls-15" d="M81.54,35Q85,39.4,83.59,44.09t-8.28,4.65a9.67,9.67,0,0,1-8-6.07q-2.24-5.22,1.56-9a8.79,8.79,0,0,1,6.14-2A9.11,9.11,0,0,1,81.53,35"/><path class="cls-16" d="M81.46,35.17q3.37,4.3,1.92,8.77t-8.46,4.34a9.2,9.2,0,0,1-7-5.37q-2.42-4.69,1.38-9a8,8,0,0,1,5.65-2,8.81,8.81,0,0,1,6.54,3.23"/><path class="cls-17" d="M82.24,36.49q2.56,4.79.18,8.45T74.75,47.8q-5.82-1.56-7-6.43T71,33.09a7.71,7.71,0,0,1,5.58-.71,8.66,8.66,0,0,1,5.61,4.09"/><path class="cls-18" d="M82.1,36.67q2.29,4.26.21,7.78t-7.57,3a8.29,8.29,0,0,1-6.46-5.33q-1.63-4.29,2.29-8.1a7,7,0,0,1,5.68-1.35,8.26,8.26,0,0,1,5.86,4"/><path class="cls-19" d="M81.89,36.81q2.29,4.57-.21,7.68a7.31,7.31,0,0,1-6.93,2.63,8.79,8.79,0,0,1-2.95-1.17,7.87,7.87,0,0,1-3.37-4.44,6.64,6.64,0,0,1,0-3.43,7.13,7.13,0,0,1,2.42-3.83A6.86,6.86,0,0,1,76.53,33a7.92,7.92,0,0,1,5.37,3.83"/><path class="cls-20" d="M81.64,37q2.17,4.44-.43,7.36a7.08,7.08,0,0,1-6.46,2.45,8.36,8.36,0,0,1-2.91-1.14,7.59,7.59,0,0,1-3.16-4.12,6.54,6.54,0,0,1,.07-3,6.68,6.68,0,0,1,2.06-3.59q3.34-2.49,6.36-1.49A7.89,7.89,0,0,1,81.64,37"/><path class="cls-21" d="M81.78,37.94q1.56,4.37-1.6,7t-7.7.78q-4.09-2.34-3.62-6.18A6.77,6.77,0,0,1,73.15,34a6.36,6.36,0,0,1,5,.18,7.22,7.22,0,0,1,3.65,3.77"/><path class="cls-22" d="M81.64,38.62q.89,4.3-2.24,6.36a7,7,0,0,1-6.93.5q-3.59-2-3.34-5.61t4.12-5.48a6.32,6.32,0,0,1,4.9.21,6.25,6.25,0,0,1,3.48,4"/><path class="cls-23" d="M81.28,38.76q.82,4.15-2.17,6.07a6.72,6.72,0,0,1-6.64.35,9.46,9.46,0,0,1-1.67-1.46,5,5,0,0,1-1.49-3.63q.89-4.19,4.09-5.29a6,6,0,0,1,4.83.25,5.85,5.85,0,0,1,3.06,3.69"/><path class="cls-24" d="M80.9,39A5.27,5.27,0,0,1,79,44.53q-2.63,2.1-6.5.43l-1.56-1.41a4.43,4.43,0,0,1-1.31-3.43q.82-3.87,3.91-4.9a5.71,5.71,0,0,1,4.57.25,5.54,5.54,0,0,1,2.86,3.43"/><path class="cls-25" d="M80.51,39.08a5,5,0,0,1-1.71,5.18q-2.38,2.13-6.29.39a5.27,5.27,0,0,1-2.66-4.51,5.43,5.43,0,0,1,1.71-3.37,6.36,6.36,0,0,1,2-1.21,5.48,5.48,0,0,1,4.23.35,5.18,5.18,0,0,1,2.7,3.16"/><path class="cls-26" d="M78.92,43.73l-1.14.82-.85.46a5.48,5.48,0,0,1-4.23-.43,5.63,5.63,0,0,1-1.78-1.49,4.46,4.46,0,0,1,.18-5.47,5,5,0,0,1,5.47-1.71q4.09,1.81,3.62,4.76l-.25,1.53-1,1.54"/><path class="cls-1" d="M79.94,40.75q-.32,3.48-3.43,4.12a5.27,5.27,0,0,1-5.29-1.78q-1.42-2.74-.53-4.26A6.08,6.08,0,0,1,72,37.12a5,5,0,0,1,6.89.78,5.2,5.2,0,0,1,1,2.86"/><path class="cls-1" d="M79.69,40.78a4.11,4.11,0,0,1-1.42,2.86l-1.35.89-1.14.18-1.06.14q-2.7-.71-3.27-1.78a4.08,4.08,0,0,1-.93-2.91,3.51,3.51,0,0,1,.39-1.35q2.17-3,4.37-2.49,2.74.61,3.43,1.78a5.08,5.08,0,0,1,1,2.7"/><path class="cls-1" d="M78.92,42.49l-1.14,1.1-.85.67-1.14.21-1.06.14a5.94,5.94,0,0,1-3-1.53,3.92,3.92,0,0,1-1-2.77,3.85,3.85,0,0,1,.43-1.53l1.1-1.25a4.07,4.07,0,0,1,3.16-.93,4.34,4.34,0,0,1,4,4.23,3.3,3.3,0,0,1-.5,1.63"/><path class="cls-1" d="M78.59,42.53l-.85.82-.85.71-1.1.18-1.06.18-1.14-.35a4.33,4.33,0,0,1-1.63-1q-1.81-2.45-.5-4.41a4.17,4.17,0,0,1,4-1.77,5.23,5.23,0,0,1,2.24,1.06,3.23,3.23,0,0,1,1.38,2.95l-.25.82-.29.82"/><path class="cls-1" d="M77.31,38.05A3.19,3.19,0,0,1,78.83,41a3.7,3.7,0,0,1-.57,1.6,3.37,3.37,0,0,1-1.42,1.28l-1.1.21-1.06.18-1.1-.39a4.33,4.33,0,0,1-1.42-.78q-1.81-2.38-.57-4.26a4,4,0,0,1,4-1.63,7.22,7.22,0,0,1,1.71.89"/><path class="cls-1" d="M78.3,39.61A2.9,2.9,0,0,1,78.51,41a3.25,3.25,0,0,1-.89,2l-.78.61-1.14.25-1,.18-1.14-.46-1.1-.5a4.33,4.33,0,0,1-1-1.49,2.93,2.93,0,0,1-.14-1.42q.53-1.67,1-1.92l1.63-.85h1.71l1.71.93a3.06,3.06,0,0,1,.93,1.28"/><path class="cls-1" d="M78.35,41.1l-.43,1.1a2.09,2.09,0,0,1-1.06,1.21l-1.17.29-1,.21-1-.38a4,4,0,0,1-1.28-.71,3.63,3.63,0,0,1-.78-1.17,2.69,2.69,0,0,1-.18-1.42,5.71,5.71,0,0,1,.85-1.67L74,37.63l1.71.07a4.06,4.06,0,0,1,1.42.69,4,4,0,0,1,1,1.28,3.22,3.22,0,0,1,.25,1.42"/><path class="cls-1" d="M78.09,41.1a3.18,3.18,0,0,1-.71,1.6,3.43,3.43,0,0,1-1.53.75l-1.17.25a5.3,5.3,0,0,1-2.24-1.17l-.61-.93a2.46,2.46,0,0,1-.14-1.42,3.54,3.54,0,0,1,.64-1.38l1.67-1,1.81.11,1,.53a4.31,4.31,0,0,1,1,1.25,2.75,2.75,0,0,1,.25,1.42"/><path class="cls-1" d="M77.88,41.18A5.23,5.23,0,0,1,76.78,43l-1,.29-1.17.29a5.71,5.71,0,0,1-2.2-1.31L72,41.64a2.49,2.49,0,0,1-.14-1.42,2.54,2.54,0,0,1,.82-1.42A3.26,3.26,0,0,1,74,38l1.81.18.64.32,1.14,1.25a2.67,2.67,0,0,1,.25,1.42"/><path class="cls-1" d="M77.63,41.18a2.77,2.77,0,0,1-.89,1.6l-1.1.32-1,.29a2.7,2.7,0,0,1-1.21-.64l-1-.82-.21-.32a2.46,2.46,0,0,1-.14-1.42,3.11,3.11,0,0,1,1-1.38l1-.61,1.85.21.25.14,1.21,1.21a2.29,2.29,0,0,1,.25,1.42"/><path class="cls-1" d="M77.42,41.24a2.05,2.05,0,0,1-.67,1.21,8.45,8.45,0,0,1-2.1.75l-1.14-.67a5.37,5.37,0,0,1-1.1-.89,2.12,2.12,0,0,1-.14-1.42,5.27,5.27,0,0,1,1.25-1.42,1.14,1.14,0,0,1,.61-.39l1,.11.93.18a3.26,3.26,0,0,1,1.14,1.14,2.29,2.29,0,0,1,.25,1.42"/><path class="cls-1" d="M77.16,41.24a1.59,1.59,0,0,1-.5.89l-1,.43L74.6,43l-1-.71-.93-.71a1.87,1.87,0,0,1-.21-1.42l1.38-1.46.25-.14,2,.43a1.9,1.9,0,0,1,.85.82,2.29,2.29,0,0,1,.25,1.42"/><path class="cls-1" d="M76.63,41.85l-1.06.5-1,.43A2.63,2.63,0,0,1,73,41.61a2,2,0,0,1-.18-1.42l1.38-1.38,2,.53.53.53A2.75,2.75,0,0,1,77,41.29l-.32.57"/><path class="cls-1" d="M73.12,40.14a1.94,1.94,0,0,1,1.1-1.1l2,.61.25.25a4.07,4.07,0,0,1,.25,1.42l-.14.21-1.14.57-.85.43a2.09,2.09,0,0,1-1.31-1,2,2,0,0,1-.18-1.42"/><path class="cls-1" d="M76.35,41.39l-.89.46-.93.43a1.38,1.38,0,0,1-1-.67,2,2,0,0,1-.18-1.42,1.39,1.39,0,0,1,.82-.85l1.92.64a1.51,1.51,0,0,1,.21,1.42"/><path class="cls-1" d="M75.78,41.42a1.49,1.49,0,0,1-1.25.61,1,1,0,0,1-.64-.46,2,2,0,0,1-.18-1.42,1,1,0,0,1,.57-.57,1.47,1.47,0,0,1,1.28.43,1.54,1.54,0,0,1,.21,1.42"/><path class="cls-1" d="M74.54,41.78l-.35-.21A2.21,2.21,0,0,1,74,40.11l.29-.29a.71.71,0,0,1,.64.25,1.54,1.54,0,0,1,.21,1.42.81.81,0,0,1-.64.29"/><path class="cls-1" d="M74.5,41.57l0,0a2.09,2.09,0,0,1-.12-1.43h0a1.46,1.46,0,0,1,.18,1.42l0,0"/></g><g id="Layer_5" data-name="Layer 5"><text class="cls-30" transform="translate(18.68 49.79)">H</text><text class="cls-30" transform="translate(66.27 49.2)">H</text><text class="cls-31" transform="translate(39.41 34.85)">O</text></g></svg>